<?xml version="1.0" standalone="no"?>
<!DOCTYPE svg PUBLIC "-//W3C//DTD SVG 20010904//EN"
 "http://www.w3.org/TR/2001/REC-SVG-20010904/DTD/svg10.dtd">
<svg version="1.0" xmlns="http://www.w3.org/2000/svg"
 width="1280.000000pt" height="720.000000pt" viewBox="0 0 1280.000000 720.000000"
 preserveAspectRatio="xMidYMid meet">

<g transform="translate(0.000000,720.000000) scale(0.100000,-0.100000)"
fill="#000000" stroke="none">
<path d="M5184 7186 c-25 -20 -11 -43 44 -74 34 -19 41 -28 36 -46 -3 -15 2
-28 15 -40 19 -17 21 -31 21 -143 l0 -123 68 0 c67 0 92 -10 92 -37 0 -9 -16
-13 -50 -13 -45 0 -50 -2 -50 -23 0 -12 11 -38 24 -58 19 -28 25 -54 31 -131
6 -75 11 -98 23 -100 10 -2 7 -7 -12 -17 -22 -12 -35 -13 -74 -2 -48 12 -128
6 -138 -10 -8 -13 -54 -11 -54 3 0 15 -877 3 -896 -13 -8 -6 -94 -10 -241 -8
-298 2 -734 -18 -746 -34 -6 -8 -7 -6 -3 6 5 16 -11 17 -238 17 -134 0 -301
-5 -372 -11 -71 -6 -222 -11 -336 -12 -114 -2 -210 -6 -214 -10 -12 -11 -62
-8 -66 4 -5 15 -123 17 -443 8 -526 -16 -592 -20 -745 -45 -78 -12 -82 -14
-77 -35 3 -12 -2 -28 -13 -39 -17 -17 -27 -17 -127 -8 -139 14 -163 9 -163
-35 0 -44 14 -62 47 -62 53 -1 238 -28 247 -36 18 -16 -26 -22 -67 -9 -97 29
-396 42 -440 19 -13 -8 -22 -8 -30 0 -17 17 -97 14 -97 -4 0 -8 -4 -15 -9 -15
-8 0 -15 -34 -23 -120 -3 -23 -8 -25 -55 -28 -89 -5 -59 -22 40 -23 60 0 85
-3 72 -9 -11 -5 -53 -9 -93 -9 l-72 -1 0 -1480 0 -1480 24 0 c13 0 26 -6 29
-13 8 -20 -20 -77 -38 -77 -19 0 -20 -16 0 -24 8 -3 15 -13 15 -22 0 -10 -5
-14 -15 -10 -13 5 -15 -21 -14 -197 1 -111 4 -190 6 -175 2 14 10 31 17 38 21
17 82 15 101 -3 19 -20 20 -20 -24 -7 -44 12 -58 3 -32 -21 12 -11 35 -19 56
-19 30 0 35 -3 35 -24 0 -14 5 -28 11 -32 6 -3 9 -19 7 -35 -3 -16 -1 -29 4
-29 4 0 8 6 8 14 0 8 4 17 9 20 18 11 -2 -37 -27 -63 -13 -14 -28 -36 -33 -48
-5 -14 -18 -23 -31 -24 -29 -2 -27 -2 -70 6 l-38 7 0 -346 0 -346 39 0 c22 0
41 5 43 12 2 6 12 9 21 5 12 -4 17 -18 17 -44 -1 -33 -5 -41 -39 -62 -22 -13
-37 -29 -35 -35 2 -6 20 -21 39 -34 l35 -22 0 -125 0 -125 -25 0 c-13 0 -29
-6 -35 -12 -65 -77 -61 -63 -59 -201 l1 -128 35 -14 c19 -8 40 -12 46 -8 7 4
8 -9 4 -39 -4 -31 -16 -55 -38 -79 -18 -19 -36 -33 -41 -31 -4 1 -8 -4 -8 -12
0 -20 43 -29 56 -11 13 17 24 9 24 -17 0 -12 4 -16 12 -12 7 4 8 3 4 -4 -4 -7
-14 -12 -21 -12 -8 0 -21 -15 -28 -32 -8 -18 -21 -39 -30 -47 -15 -11 -17 -37
-17 -172 0 -172 -1 -170 54 -149 14 5 26 16 26 25 0 18 19 20 21 3 2 -20 2
-21 -4 -55 l-6 -33 146 0 146 0 -7 193 c-4 105 -11 302 -16 437 -5 135 -9 349
-10 477 l0 232 35 96 c73 203 209 504 222 491 3 -3 7 -42 10 -88 7 -148 43
-731 48 -788 6 -72 33 -320 41 -387 6 -51 4 -58 -59 -180 -67 -131 -121 -275
-133 -352 -5 -31 -18 -55 -46 -85 -49 -51 -28 -63 24 -13 23 22 37 46 42 72 7
41 18 78 44 155 13 40 32 83 108 245 l19 40 6 -85 c14 -182 49 -241 184 -306
l70 -34 -3 -60 c-4 -55 -2 -60 17 -60 13 0 21 6 21 17 0 13 3 14 12 5 16 -16
23 -15 42 4 20 20 21 93 2 100 -8 3 -24 1 -35 -6 -12 -6 -21 -7 -21 -3 0 14
33 198 37 202 1 2 11 -3 21 -13 26 -23 50 -11 61 31 11 40 -1 83 -24 83 -42 0
5 51 59 64 26 6 28 5 22 -16 -14 -48 -54 -316 -59 -390 -4 -75 -3 -78 18 -78
18 0 27 11 44 53 40 98 110 151 189 140 54 -7 96 -54 120 -135 12 -42 22 -58
35 -58 31 0 24 133 -20 400 -24 144 -24 144 15 148 22 2 41 -3 53 -14 24 -22
24 -27 -3 -39 -30 -14 -40 -48 -22 -74 16 -22 48 -28 59 -11 15 25 33 6 44
-47 7 -32 17 -68 22 -81 15 -37 11 -75 -6 -68 -23 9 -44 -4 -61 -36 -14 -27
-14 -32 1 -54 22 -34 49 -30 69 8 l16 33 0 -82 c0 -77 2 -83 20 -83 20 0 21 5
19 100 -1 56 0 102 2 103 2 2 24 12 49 22 117 49 212 134 256 228 19 42 24 68
24 139 0 90 10 115 31 76 7 -13 57 -90 112 -173 55 -82 106 -165 113 -182 10
-24 30 -41 72 -63 66 -34 92 -53 92 -67 0 -5 -23 -20 -52 -34 -29 -13 -99 -52
-157 -86 l-106 -63 333 0 332 0 0 35 c0 35 0 35 24 20 13 -9 26 -25 29 -37 6
-20 10 -21 119 -14 139 8 306 34 333 52 11 8 37 14 58 14 34 0 38 -3 35 -22
-3 -20 -10 -23 -58 -26 -30 -2 -59 -7 -65 -13 -5 -5 48 -9 143 -9 l153 0 -7
133 c-4 85 -2 157 5 202 27 162 38 212 53 243 17 33 15 88 -4 125 -14 28 -24
20 -35 -26 -6 -30 -13 -41 -24 -37 -23 8 -118 1 -138 -10 -11 -5 -44 -10 -74
-10 -29 0 -75 -7 -101 -16 -35 -12 -51 -13 -59 -5 -8 8 2 16 36 31 38 17 47
26 47 45 0 14 -4 25 -10 25 -5 0 -10 4 -10 10 0 14 67 28 154 32 77 3 78 2 93
-25 12 -23 17 -26 29 -16 20 17 17 73 -7 121 -38 75 -72 172 -80 228 -4 30
-15 89 -24 130 -15 66 -16 89 -5 195 6 65 16 127 21 137 5 9 9 40 9 68 l0 51
30 -16 c16 -8 36 -15 45 -15 9 0 27 -7 40 -16 25 -16 27 -16 170 1 17 3 48 9
70 14 22 5 72 15 110 21 39 7 94 20 123 31 29 10 61 19 72 19 24 0 275 82 315
103 17 8 41 25 55 37 l25 22 7 -64 c9 -78 1 -343 -12 -458 -6 -47 -15 -128
-20 -180 -12 -120 -28 -178 -74 -274 -21 -42 -42 -103 -47 -135 -11 -62 -27
-95 -36 -73 -8 20 -23 14 -23 -10 0 -12 -8 -30 -17 -40 -15 -16 -15 -23 -4
-55 8 -20 15 -57 16 -82 4 -73 17 -135 30 -151 7 -8 18 -49 25 -90 15 -94 15
-93 5 -162 l-7 -58 45 0 46 0 -6 50 c-4 38 -1 60 13 90 19 40 36 48 64 30 13
-9 12 -13 -7 -29 -13 -11 -23 -22 -23 -25 0 -3 42 -6 93 -6 66 0 99 -4 113
-15 11 -8 14 -15 7 -15 -18 0 -16 -27 3 -34 25 -10 102 -7 109 4 6 9 93 12
107 3 4 -2 3 -15 -3 -30 l-9 -25 67 6 c38 3 93 6 123 7 62 1 96 13 69 24 -11
4 -15 13 -11 27 5 19 2 20 -24 13 -34 -9 -51 -9 -81 0 -17 5 -23 3 -23 -8 0
-13 -27 -27 -57 -27 -7 0 -11 12 -10 28 2 26 4 27 75 30 70 3 72 4 72 29 0 21
-3 24 -22 19 -13 -3 -32 -9 -43 -12 -12 -3 -29 3 -42 16 -28 25 -54 26 -76 0
-17 -21 -61 -27 -72 -11 -3 6 2 14 10 18 24 14 -21 59 -67 67 -46 8 -114 -9
-122 -30 -4 -11 -12 -14 -24 -9 -9 4 -53 9 -96 10 -82 3 -106 15 -106 55 0 9
-5 21 -10 26 -6 6 -13 28 -16 50 -2 21 -7 55 -10 74 -4 27 -1 41 15 59 26 30
26 33 1 51 -24 17 -26 30 -5 30 8 0 15 -5 15 -12 0 -6 3 -9 6 -5 10 9 -7 48
-17 41 -7 -4 -8 8 -3 33 9 49 11 53 33 53 10 0 24 7 31 15 10 12 10 15 -4 15
-9 0 -16 -5 -16 -11 0 -5 -4 -7 -10 -4 -13 8 -13 65 0 65 6 0 10 8 10 19 0 28
23 42 76 45 26 1 50 8 52 14 4 13 31 16 56 6 14 -5 13 -9 -5 -25 -12 -11 -33
-19 -46 -19 -16 0 -22 -4 -17 -11 5 -9 -6 -10 -40 -5 -28 5 -46 3 -46 -3 0
-13 94 -33 98 -20 2 5 23 9 47 9 24 0 47 5 50 10 4 7 12 7 25 0 24 -13 110
-13 110 0 0 6 -9 10 -20 10 -25 0 -26 17 -2 23 9 3 -2 5 -25 6 -24 0 -43 6
-43 12 0 5 5 7 12 3 7 -4 8 -3 4 4 -4 6 -21 11 -39 10 -18 -1 -48 7 -67 17
-35 19 -35 19 -10 25 14 4 35 2 48 -3 16 -8 26 -7 34 1 18 18 55 15 70 -6 15
-20 71 -41 114 -43 23 -1 25 -3 7 -6 -15 -3 -24 -12 -25 -26 0 -12 -2 -29 -2
-37 -1 -8 3 -19 9 -23 5 -5 -6 -6 -27 -4 -37 6 -66 -12 -54 -31 3 -5 -13 -16
-34 -26 -26 -11 -40 -24 -40 -36 0 -22 40 -34 54 -16 6 8 25 16 41 19 17 3 43
9 58 13 19 4 32 2 40 -9 7 -8 32 -17 57 -20 24 -3 49 -13 56 -21 14 -20 24
-20 24 -1 0 8 7 15 15 15 8 0 15 5 15 10 0 6 -4 10 -8 10 -5 0 -14 11 -20 25
-14 29 -2 39 36 31 15 -3 21 -3 15 0 -22 10 -14 21 20 29 17 4 26 9 19 12 -10
4 -10 8 -1 19 9 11 8 14 -3 14 -8 0 -18 -3 -22 -7 -8 -8 -116 -13 -128 -6 -4
2 -2 12 4 22 8 13 20 18 37 15 25 -4 25 -4 6 11 -11 8 -24 18 -30 23 -5 4 -30
12 -55 18 -29 6 -45 14 -45 24 0 13 24 15 145 17 80 0 156 -3 170 -7 14 -5
108 -11 209 -13 133 -4 186 -8 191 -18 7 -10 14 -10 40 1 29 12 34 12 46 -4 7
-10 17 -15 23 -12 5 4 12 2 16 -4 3 -5 15 -10 26 -10 20 0 26 -15 9 -25 -6 -4
-7 -11 -4 -17 5 -7 2 -8 -6 -3 -7 4 -38 8 -69 7 -38 -1 -50 2 -36 7 19 8 19 9
-3 12 -12 2 -23 9 -23 14 -1 19 -26 24 -64 11 -21 -8 -32 -16 -24 -18 8 -3 11
-9 7 -13 -5 -5 -23 0 -42 10 -29 16 -41 17 -70 8 -20 -6 -38 -8 -40 -4 -3 4
-33 8 -68 8 -48 0 -56 -1 -33 -7 l30 -8 -31 -1 c-24 -1 -33 -7 -38 -23 -3 -13
-1 -25 4 -26 16 -6 12 -22 -5 -22 -8 0 -15 7 -15 15 0 16 -16 20 -24 6 -3 -5
1 -11 9 -15 8 -3 15 -12 15 -20 0 -9 14 -18 35 -22 41 -7 53 -1 36 20 -9 11
-7 13 13 13 14 0 27 -6 30 -13 7 -18 46 -18 46 0 0 19 22 26 81 26 36 0 49 -4
49 -14 0 -22 -21 -31 -31 -13 -8 13 -16 14 -47 5 -20 -5 -41 -14 -47 -19 -15
-14 14 -29 45 -23 14 3 41 -2 60 -10 19 -8 28 -15 20 -16 -31 0 7 -18 54 -25
44 -6 48 -5 37 8 -7 9 -18 14 -26 11 -7 -3 -16 -1 -19 5 -3 5 8 12 24 16 25 6
29 9 19 21 -9 12 -6 14 19 14 17 0 35 -6 39 -13 10 -17 43 -30 43 -17 0 12 93
2 153 -17 27 -8 61 -13 77 -10 16 4 35 0 46 -8 18 -13 17 -14 -10 -15 l-29 0
21 -19 c12 -10 22 -20 22 -23 0 -6 -92 -1 -123 7 -22 6 -25 10 -16 21 17 20 7
26 -52 32 -46 4 -51 3 -46 -12 5 -13 -1 -16 -33 -16 -38 0 -62 -14 -38 -23 10
-3 10 -8 2 -16 -13 -14 -130 1 -148 19 -15 15 -43 12 -71 -6 -14 -9 -36 -14
-50 -12 -16 4 -25 1 -25 -8 0 -15 -53 -11 -58 5 -2 6 -8 11 -14 11 -6 0 -5 -6
2 -15 18 -21 11 -25 -54 -32 -63 -7 -91 -27 -63 -48 25 -18 21 -30 -15 -54
-23 -14 -28 -21 -15 -21 9 0 23 -11 29 -25 6 -14 22 -28 35 -31 14 -4 26 -16
30 -32 l6 -26 10 25 c6 13 9 27 9 32 -1 4 16 7 38 7 22 0 40 5 40 10 0 6 18
10 40 10 27 0 47 7 60 20 23 23 43 26 58 8 7 -9 31 -12 71 -10 51 3 61 7 61
22 0 23 18 36 32 22 6 -6 3 -16 -10 -28 -10 -11 -22 -31 -26 -46 -5 -24 -12
-27 -61 -33 -30 -4 -64 -5 -75 -2 -11 3 -20 2 -20 -3 0 -4 -11 -11 -25 -14
-14 -4 -36 -18 -48 -32 -18 -21 -27 -24 -56 -19 -22 4 -37 2 -41 -6 -8 -11
-28 -17 -105 -26 -64 -7 -68 -10 -45 -33 12 -12 33 -20 54 -20 41 0 50 -17 24
-49 -14 -18 -15 -27 -7 -37 15 -19 67 -18 85 1 17 17 54 20 54 5 0 -5 -9 -10
-20 -10 -11 0 -20 -5 -20 -11 0 -14 -63 -39 -99 -39 -16 0 -32 -4 -36 -9 -3
-6 243 -10 643 -10 l649 -1 13 25 c9 17 22 25 39 25 14 0 21 -4 15 -8 -6 -4
-13 -15 -17 -24 -6 -17 22 -18 494 -18 368 0 498 3 493 11 -5 8 4 10 32 5 79
-14 136 -18 131 -9 -3 5 10 9 29 9 19 0 34 -4 34 -8 0 -4 7 -8 15 -8 9 0 15 9
15 23 0 26 -10 42 -30 50 -12 4 -11 6 3 6 9 1 17 6 17 11 0 14 -53 13 -67 -1
-6 -6 -16 -8 -21 -5 -12 7 -4 42 19 80 21 35 17 46 -17 46 -13 0 -24 5 -24 10
0 6 25 10 55 10 30 0 55 -4 55 -9 0 -5 14 -11 30 -15 17 -3 30 -11 30 -17 0
-13 -53 -3 -58 12 -2 5 -10 9 -18 9 -10 0 -13 -11 -12 -39 1 -35 5 -41 39 -58
29 -14 37 -22 33 -36 -3 -10 0 -32 6 -48 11 -25 18 -29 52 -29 22 0 41 5 43
13 6 14 75 22 75 8 0 -5 -8 -12 -17 -14 -10 -3 18 -5 62 -5 44 0 71 2 60 5
-31 8 -41 21 -20 29 12 5 24 0 36 -14 19 -24 49 -28 67 -10 10 10 17 10 32 0
11 -6 41 -12 68 -12 l48 0 13 92 c7 54 20 105 31 123 12 20 22 64 29 127 5 53
15 105 22 116 11 18 10 24 -4 40 -9 10 -17 28 -17 40 0 13 -6 22 -15 22 -8 0
-15 -4 -15 -10 0 -5 -4 -10 -10 -10 -5 0 -10 13 -10 29 0 17 -5 33 -11 36 -6
4 -8 13 -5 20 6 17 -19 82 -74 196 -19 38 -40 154 -54 297 -9 85 -18 158 -22
163 -6 11 -6 450 0 457 3 2 19 -10 37 -26 45 -42 129 -76 284 -113 44 -11 100
-27 125 -36 25 -8 79 -22 120 -29 41 -8 102 -21 135 -29 85 -20 221 -30 248
-18 12 6 36 15 52 20 17 6 38 14 48 18 15 6 17 1 17 -37 0 -25 7 -86 16 -137
31 -182 -7 -433 -92 -605 -36 -75 -43 -116 -20 -135 12 -10 18 -8 31 12 15 23
20 24 103 21 175 -7 275 -19 280 -32 3 -10 -14 -12 -75 -10 -73 3 -78 2 -81
-18 -2 -17 7 -26 42 -43 26 -11 46 -25 46 -30 0 -20 -21 -21 -62 -2 -25 11
-75 22 -118 24 -41 3 -95 10 -119 15 -31 7 -50 7 -62 -1 -22 -14 -29 -7 -38
34 -8 40 -24 47 -38 16 -14 -31 -10 -85 16 -177 33 -119 53 -274 45 -352 l-7
-68 229 0 c218 1 267 9 144 24 -30 4 -66 9 -80 12 -14 3 -42 8 -63 11 -28 4
-37 9 -35 22 3 11 11 15 28 11 14 -2 63 -4 110 -5 84 0 85 0 88 26 4 35 -13
47 -97 67 -39 9 -71 20 -71 25 0 16 77 5 162 -23 49 -16 102 -30 118 -30 38 0
163 -29 175 -41 5 -5 17 -9 27 -9 27 0 22 -19 -11 -37 -16 -10 -34 -25 -40
-35 -11 -17 3 -18 291 -17 l303 0 -83 42 c-45 23 -81 46 -79 51 2 6 36 28 76
50 58 30 77 47 90 75 9 20 64 109 124 198 59 88 107 166 107 172 0 6 4 11 9
11 4 0 11 -44 13 -97 4 -80 10 -109 33 -156 38 -79 132 -165 231 -208 l76 -34
-6 -52 c-6 -48 -4 -53 14 -53 13 0 20 7 20 20 0 23 18 27 26 6 9 -22 46 -27
60 -8 18 23 17 48 -3 78 -13 21 -22 25 -45 20 -28 -6 -29 -5 -24 29 7 40 44
176 50 182 2 2 13 -1 24 -8 16 -10 26 -10 46 -1 34 15 33 46 0 77 -23 21 -25
27 -14 40 18 21 96 17 93 -5 -1 -8 -7 -40 -13 -70 -25 -131 -31 -174 -37 -264
l-6 -96 32 0 c26 0 34 6 47 34 20 41 61 66 109 66 46 0 84 -20 123 -64 30 -35
62 -47 62 -25 0 22 -110 118 -149 130 -56 17 -90 4 -145 -54 -47 -50 -48 -51
-43 -22 4 17 9 57 12 90 10 105 37 270 46 279 8 9 135 -7 200 -26 33 -9 36
-14 47 -67 7 -31 20 -120 29 -198 12 -101 21 -143 30 -143 14 0 16 7 13 65 -2
47 -44 282 -55 308 -10 23 26 23 66 0 34 -20 36 -34 9 -51 -39 -24 -15 -122
29 -122 11 0 22 7 25 16 7 19 25 10 24 -14 0 -9 5 -48 11 -87 15 -96 14 -100
-4 -85 -18 15 -45 6 -45 -15 0 -11 12 -15 50 -15 36 0 50 4 50 14 0 7 26 25
58 38 70 31 157 108 171 151 5 18 13 68 17 112 10 90 11 106 13 120 5 29 143
-295 162 -379 8 -37 17 -56 27 -56 16 0 15 5 -12 104 -21 75 -110 282 -145
338 -37 59 -42 82 -31 160 30 207 61 614 87 1116 3 68 10 119 14 115 30 -31
170 -352 232 -530 29 -84 32 -165 18 -548 -5 -154 -13 -387 -17 -517 l-6 -238
136 0 136 0 0 68 0 67 25 -30 c13 -16 25 -41 25 -55 0 -30 16 -57 27 -47 9 9
-31 128 -58 173 -17 27 -19 53 -19 208 0 111 4 176 10 176 6 0 10 9 10 20 0
15 7 20 29 20 31 0 35 -10 47 -109 13 -111 22 -88 23 62 1 86 -2 157 -6 157
-5 0 -30 20 -56 45 -27 24 -52 45 -57 47 -10 4 -24 358 -13 358 4 0 17 -15 28
-33 l20 -32 5 75 c5 75 5 75 23 50 9 -13 17 -31 18 -40 0 -8 5 -4 10 10 21 51
-13 138 -58 147 -7 2 -21 5 -30 6 -12 3 -20 18 -25 48 -12 69 -8 72 67 44 36
-14 68 -25 70 -25 3 0 5 167 5 370 0 204 -4 370 -8 370 -4 0 -13 -5 -20 -12
-8 -8 -15 -8 -25 1 -11 8 -27 9 -65 0 -56 -12 -86 -2 -97 30 -3 10 -38 52 -78
93 -98 101 -110 116 -92 120 10 2 12 7 5 18 -8 12 -12 12 -18 2 -6 -9 -12 -6
-22 13 -7 14 -17 25 -22 25 -4 0 -8 9 -8 20 0 17 3 19 18 11 21 -11 69 -3 99
16 14 10 33 12 58 7 l36 -6 -31 -19 c-17 -11 -28 -24 -25 -29 10 -17 53 -11
67 9 16 23 62 22 120 -3 21 -9 53 -16 73 -16 l35 0 0 216 0 215 -87 -7 c-49
-4 -95 -10 -103 -14 -29 -15 -66 -9 -67 11 -1 10 2 21 8 24 5 4 9 19 9 36 0
16 5 29 13 29 8 0 7 4 -3 10 -12 8 -9 10 12 10 21 0 25 -4 21 -20 -6 -22 -4
-23 76 -37 36 -7 65 -7 88 0 l33 10 0 1513 c0 1369 -1 1512 -16 1518 -29 11
-109 6 -130 -8 -11 -8 -40 -16 -65 -18 -54 -4 -50 -22 6 -24 97 -4 129 -7 110
-11 -11 -2 -45 -13 -76 -24 -31 -11 -82 -19 -117 -19 -59 0 -62 1 -62 24 0 14
7 32 16 40 8 9 11 16 6 16 -5 0 -9 8 -8 18 1 13 -6 17 -27 15 -19 -1 -26 2
-23 10 3 7 9 20 12 30 4 9 9 17 13 17 3 0 33 5 66 11 33 5 113 10 178 9 l117
-1 0 30 c0 28 -1 29 -57 33 -80 6 -302 -11 -326 -24 -31 -16 -307 -22 -447 -8
-217 20 -320 24 -320 11 0 -6 -9 -11 -20 -11 -11 0 -20 -4 -20 -10 0 -5 -7 -7
-16 -3 -14 5 -12 8 7 19 22 13 16 14 -56 14 -44 0 -201 4 -350 10 -148 5 -387
10 -530 11 -143 1 -267 5 -275 9 -8 5 -51 10 -95 13 -85 5 -118 13 -109 28 3
5 -34 9 -83 9 -193 1 -563 11 -643 17 -196 16 -363 8 -725 -37 -49 -6 -101
-11 -115 -11 -193 1 -736 13 -740 17 -2 3 2 9 10 14 10 7 11 10 3 10 -9 0 -13
16 -13 44 0 52 -12 64 -70 68 -43 3 -45 4 -48 38 -2 19 -10 42 -18 51 -12 13
-14 33 -9 90 8 105 14 129 41 171 36 56 32 68 -22 68 l-45 0 2 77 c2 72 4 79
32 105 17 15 43 30 59 33 22 5 30 15 39 48 6 23 17 49 25 57 7 9 12 29 11 44
-2 24 4 32 36 49 49 25 55 42 26 67 -24 19 -47 19 -1380 20 -1165 0 -1358 -2
-1375 -14z m284 -93 c-10 -2 -28 -2 -40 0 -13 2 -5 4 17 4 22 1 32 -1 23 -4z
m120 0 c-10 -2 -28 -2 -40 0 -13 2 -5 4 17 4 22 1 32 -1 23 -4z m95 0 c-7 -2
-21 -2 -30 0 -10 3 -4 5 12 5 17 0 24 -2 18 -5z m1037 -8 c-14 -8 -31 -14 -39
-15 -7 0 -22 -9 -31 -20 -15 -17 -28 -20 -78 -18 -51 3 -62 6 -66 23 -3 10 -3
21 -1 24 4 4 135 15 215 19 l25 1 -25 -14z m-595 -245 c-3 -5 -11 -10 -16 -10
-6 0 -7 5 -4 10 3 6 11 10 16 10 6 0 7 -4 4 -10z m1228 -247 c-7 -2 -19 -2
-25 0 -7 3 -2 5 12 5 14 0 19 -2 13 -5z m-1709 -213 c7 -7 -8 -10 -46 -10 -43
0 -57 4 -62 16 -6 15 0 16 46 11 28 -4 56 -11 62 -17z m-497 -96 c-3 -3 -12
-4 -19 -1 -8 3 -5 6 6 6 11 1 17 -2 13 -5z m-359 -11 c-10 -2 -26 -2 -35 0
-10 3 -2 5 17 5 19 0 27 -2 18 -5z m-2888 -23 c0 -5 -9 -10 -20 -10 -11 0 -20
5 -20 10 0 6 9 10 20 10 11 0 20 -4 20 -10z m1468 -17 c-10 -2 -28 -2 -40 0
-13 2 -5 4 17 4 22 1 32 -1 23 -4z m-2468 -23 c11 -7 5 -10 -22 -10 -21 0 -38
5 -38 10 0 13 40 13 60 0z m4627 -16 c-3 -3 -12 -4 -19 -1 -8 3 -5 6 6 6 11 1
17 -2 13 -5z m-2140 -20 c-3 -3 -12 -4 -19 -1 -8 3 -5 6 6 6 11 1 17 -2 13 -5z
m648 -4 c-3 -5 -13 -10 -21 -10 -8 0 -14 5 -14 10 0 6 9 10 21 10 11 0 17 -4
14 -10z m112 -6 c15 -14 14 -15 -12 -12 -16 2 -30 9 -33 16 -5 17 26 15 45 -4z
m-812 -4 c23 -10 25 -10 -100 -14 -77 -3 -145 -16 -145 -29 0 -11 23 -67 27
-67 3 0 23 16 46 35 46 40 106 48 139 18 20 -18 24 -48 8 -58 -6 -4 -8 -16 -5
-27 9 -26 -21 -58 -55 -58 -14 0 -45 9 -68 20 -22 11 -48 20 -57 20 -8 0 -15
4 -15 10 0 5 -13 7 -31 3 -34 -6 -52 10 -44 38 11 35 -19 42 -143 33 -135 -10
-320 -6 -342 7 -10 5 2 8 36 9 28 0 59 6 70 15 22 17 149 21 139 5 -4 -6 10
-3 29 7 31 14 43 15 87 5 78 -18 120 -16 126 8 5 17 16 20 102 23 53 1 114 3
136 4 22 1 49 -2 60 -7z m5912 -41 c16 -16 4 -78 -19 -101 -10 -10 -29 -18
-42 -18 -19 0 -25 7 -30 34 -4 18 -3 41 0 51 5 12 4 16 -3 12 -7 -5 -9 0 -6
13 4 16 14 20 47 20 23 0 47 -5 53 -11z m-5515 -15 c23 -12 44 -14 77 -9 52 8
166 7 195 -1 14 -5 17 -12 13 -34 -4 -19 0 -34 13 -48 58 -62 -77 -72 -618
-47 -48 2 -64 16 -60 55 2 18 10 26 26 28 13 2 26 10 29 18 8 22 24 17 55 -18
15 -18 25 -25 22 -15 -5 14 0 17 27 18 l34 2 -38 6 c-50 8 -49 23 5 39 65 19
91 13 93 -22 1 -29 -11 -38 -80 -57 -21 -6 -14 -7 25 -3 59 6 80 22 80 61 0
17 8 25 33 32 17 5 33 10 35 10 2 1 17 -6 34 -15z m5681 4 c-2 -5 -3 -30 -3
-58 0 -46 -2 -50 -24 -50 -13 0 -28 6 -33 13 -14 16 -32 95 -25 102 9 9 88 2
85 -7z m370 -11 c15 0 27 -4 27 -8 0 -5 -9 -9 -19 -9 -21 0 -33 -22 -25 -44 4
-10 -20 -15 -115 -20 -67 -4 -125 -4 -131 -1 -5 3 -10 21 -10 40 0 32 3 34 41
42 22 4 77 6 122 4 45 -2 94 -4 110 -4z m462 -7 c4 -6 -8 -10 -29 -10 -20 0
-36 5 -36 10 0 6 13 10 29 10 17 0 33 -4 36 -10z m-7755 -14 c0 -3 -4 -8 -10
-11 -5 -3 -10 -1 -10 4 0 6 5 11 10 11 6 0 10 -2 10 -4z m7496 -11 c11 -10 11
-15 1 -23 -20 -17 -41 -18 -42 -2 0 10 -13 16 -38 18 -20 2 -35 6 -33 10 8 13
99 10 112 -3z m704 11 c0 -2 -11 -6 -25 -8 -14 -3 -25 -1 -25 3 0 5 11 9 25 9
14 0 25 -2 25 -4z m-10101 -56 c39 0 81 -16 109 -42 13 -13 22 -16 22 -9 0 7
4 10 10 6 5 -3 7 -12 4 -20 -4 -8 -10 -12 -15 -9 -5 3 -9 -4 -9 -16 0 -11 -7
-23 -15 -26 -8 -4 -15 -10 -15 -15 0 -5 7 -9 15 -9 8 0 15 -5 15 -11 0 -7 -14
-9 -37 -6 -216 27 -258 29 -305 18 -90 -24 -128 5 -128 96 l0 43 53 2 c28 1
79 1 112 -1 33 -1 74 2 90 7 17 5 37 5 47 1 9 -5 30 -9 47 -9z m2116 6 c14
-10 27 -11 49 -4 40 13 96 10 114 -5 8 -6 27 -10 41 -9 20 2 23 1 11 -7 -8 -6
-22 -11 -31 -11 -9 0 -19 -9 -22 -20 -7 -28 -37 -37 -52 -17 -7 10 -22 17 -34
17 -12 0 -29 7 -37 15 -29 28 -104 17 -104 -16 0 -17 -8 -19 -80 -19 -79 0
-80 0 -80 25 0 49 31 65 123 65 55 0 90 -5 102 -14z m268 -1 c0 -6 -7 -11 -16
-13 -12 -3 -15 1 -11 13 7 17 25 17 27 0z m7167 11 c0 -3 -4 -8 -10 -11 -5 -3
-10 -1 -10 4 0 6 5 11 10 11 6 0 10 -2 10 -4z m235 -24 c6 -4 10 -13 10 -21 0
-25 22 -23 29 4 8 32 17 31 56 -1 29 -25 30 -28 16 -43 -32 -31 -306 -12 -306
21 0 5 0 11 1 16 0 4 -10 10 -23 13 -16 4 -9 7 22 7 25 1 57 -4 71 -9 19 -8
35 -6 60 5 40 17 50 18 64 8z m284 -9 c0 -11 -3 -13 -6 -5 -2 6 -9 12 -14 12
-6 0 -7 -4 -4 -10 3 -5 -3 -10 -14 -10 -12 0 -21 5 -21 10 0 6 -10 8 -24 4
-13 -3 -27 -1 -30 5 -5 7 13 11 53 11 52 0 61 -3 60 -17z m-2035 -2 c3 -5 -1
-11 -9 -15 -9 -3 -15 0 -15 9 0 16 16 20 24 6z m1503 3 c-3 -3 -12 -4 -19 -1
-8 3 -5 6 6 6 11 1 17 -2 13 -5z m1768 -24 c18 -16 26 -16 84 -4 36 7 67 12
69 9 6 -6 -55 -35 -75 -35 -20 0 -55 -34 -46 -44 4 -3 -1 -6 -11 -6 -9 0 -15
4 -12 9 9 14 -85 31 -128 24 -26 -4 -33 -9 -24 -14 8 -6 -1 -9 -27 -10 -63 -1
-99 -9 -117 -25 -15 -14 -17 -13 -23 15 -4 17 -2 46 5 65 l11 34 137 0 c116 0
140 -3 157 -18z m-1742 3 c-7 -2 -21 -2 -30 0 -10 3 -4 5 12 5 17 0 24 -2 18
-5z m-2471 -58 c-2 -36 0 -46 8 -35 7 11 10 2 10 -35 0 -27 2 -68 5 -90 l5
-40 -12 35 c-6 19 -18 39 -25 43 -9 5 -13 31 -13 77 0 40 -4 70 -10 70 -5 0
-10 7 -10 16 0 10 7 14 23 12 20 -3 22 -8 19 -53z m1402 32 c-22 -17 -25 -17
-59 -1 -19 9 -35 18 -35 20 0 3 26 3 59 2 l58 -2 -23 -19z m353 7 c-3 -3 -12
-4 -19 -1 -8 3 -5 6 6 6 11 1 17 -2 13 -5z m-6430 -10 c-3 -3 -12 -4 -19 -1
-8 3 -5 6 6 6 11 1 17 -2 13 -5z m1256 -1 c-7 -2 -21 -2 -30 0 -10 3 -4 5 12
5 17 0 24 -2 18 -5z m5426 1 c36 -7 42 -24 9 -24 -27 1 -82 29 -57 30 9 0 31
-3 48 -6z m973 -42 c4 -26 2 -27 -17 -18 -19 9 -20 11 -6 27 9 10 17 18 17 18
1 1 4 -12 6 -27z m-7681 1 c0 -10 2 -27 4 -38 4 -20 3 -20 -10 -1 -11 14 -33
21 -82 26 -38 4 -57 8 -43 9 14 1 32 6 40 11 8 5 32 10 53 10 28 0 37 -4 38
-17z m9466 11 c-3 -3 -12 -4 -19 -1 -8 3 -5 6 6 6 11 1 17 -2 13 -5z m-4190
-10 c-3 -3 -12 -4 -19 -1 -8 3 -5 6 6 6 11 1 17 -2 13 -5z m-5587 -20 c0 -2
-17 -4 -37 -3 -33 1 -35 2 -13 8 23 7 50 4 50 -5z m7878 9 c-10 -2 -26 -2 -35
0 -10 3 -2 5 17 5 19 0 27 -2 18 -5z m1882 -8 c16 -19 4 -35 -26 -35 -25 0
-30 24 -6 26 25 3 27 5 12 14 -8 5 -10 10 -4 10 6 0 17 -7 24 -15z m-8961 -14
c25 -16 -23 -33 -54 -19 -20 9 -34 9 -60 -1 -24 -8 -40 -9 -52 -2 -15 8 -16
10 -3 15 45 15 149 20 169 7z m-3021 -8 c-10 -2 -26 -2 -35 0 -10 3 -2 5 17 5
19 0 27 -2 18 -5z m1060 -12 c19 -12 -76 -23 -119 -14 l-34 8 45 6 c70 9 94 9
108 0z m1650 -3 c-3 -7 -20 -14 -39 -16 -19 -2 -39 -8 -44 -12 -12 -10 -40 -8
-51 3 -4 4 4 7 17 7 13 1 38 7 54 15 39 17 68 19 63 3z m7859 -4 c-3 -3 -12
-4 -19 -1 -8 3 -5 6 6 6 11 1 17 -2 13 -5z m186 -1 c-7 -2 -19 -2 -25 0 -7 3
-2 5 12 5 14 0 19 -2 13 -5z m284 1 c-3 -3 -12 -4 -19 -1 -8 3 -5 6 6 6 11 1
17 -2 13 -5z m611 -1 c-49 -2 -127 -2 -175 0 -49 1 -9 3 87 3 96 0 136 -2 88
-3z m-8347 -123 c12 0 19 -7 19 -19 0 -42 -10 -51 -61 -51 -27 0 -49 -4 -49
-8 0 -10 -60 -32 -88 -32 -23 0 -38 21 -46 63 -5 28 8 37 55 37 35 0 36 -6 7
-31 -22 -18 -22 -18 -3 -19 17 0 17 -2 5 -10 -10 -6 -11 -10 -3 -10 7 0 27 16
45 36 35 39 65 55 86 48 8 -2 22 -4 33 -4z m-671 -10 c0 -5 -4 -10 -10 -10 -5
0 -10 5 -10 10 0 6 5 10 10 10 6 0 10 -4 10 -10z m420 -12 c0 -15 -11 -29 -30
-40 -35 -20 -56 -15 -66 14 -8 26 21 47 64 48 27 0 32 -4 32 -22z m4219 -35
c-1 -38 -1 -38 -9 -9 -8 27 -6 46 6 46 2 0 4 -17 3 -37z m-109 -63 c7 12 12
12 34 0 30 -15 30 -18 12 -43 -10 -13 -21 -16 -40 -11 -25 6 -26 8 -24 78 2
66 2 67 5 16 3 -36 7 -50 13 -40z m-3710 10 c11 -11 27 -20 35 -20 8 0 15 -4
15 -9 0 -14 -95 -24 -117 -13 -21 11 -219 9 -246 -3 -10 -4 -53 -4 -97 -1 -51
5 -80 4 -85 -3 -3 -6 -28 -11 -56 -11 -27 0 -58 -5 -69 -12 -15 -10 -26 -10
-53 0 -18 7 -50 12 -70 12 -41 0 -54 12 -32 30 9 8 58 11 150 11 86 -1 135 2
135 9 0 5 9 10 21 10 11 0 18 -4 14 -10 -3 -6 67 -9 190 -9 159 0 197 2 201
14 3 7 12 11 20 8 8 -3 14 0 14 6 0 16 7 14 30 -9z m1682 -100 c-2 -44 -8 -80
-13 -80 -11 0 -11 16 -3 99 10 88 20 75 16 -19z m2115 58 c-3 -8 -6 -5 -6 6
-1 11 2 17 5 13 3 -3 4 -12 1 -19z m1686 15 c-7 -2 -21 -2 -30 0 -10 3 -4 5
12 5 17 0 24 -2 18 -5z m112 -3 c-3 -5 -17 -10 -31 -10 -13 0 -24 5 -24 10 0
6 14 10 31 10 17 0 28 -4 24 -10z m133 3 c-10 -2 -26 -2 -35 0 -10 3 -2 5 17
5 19 0 27 -2 18 -5z m-6577 -16 c-1 -4 -1 -15 -1 -24 0 -16 -1 -16 -16 -1 -9
9 -13 21 -9 28 7 12 27 10 26 -3z m-2811 -37 c0 -6 -35 -9 -97 -8 -77 1 -87 2
-48 7 96 12 145 12 145 1z m90 0 c-20 -13 -83 -13 -75 0 3 6 25 10 48 10 31 0
38 -3 27 -10z m157 4 c-3 -3 -12 -4 -19 -1 -8 3 -5 6 6 6 11 1 17 -2 13 -5z
m3465 -37 c5 -7 -1 -19 -14 -30 -19 -16 -20 -20 -7 -43 11 -22 11 -27 -1 -34
-8 -6 -22 -10 -30 -10 -11 0 -11 -3 -2 -12 9 -9 16 -8 29 4 44 37 73 23 73
-36 0 -21 -5 -26 -26 -26 -14 0 -32 -6 -40 -14 -16 -17 -19 -30 -4 -21 13 8
13 3 0 -31 -6 -16 -7 -31 -1 -38 5 -6 12 -26 16 -43 5 -26 3 -33 -9 -33 -9 0
-16 -4 -16 -10 0 -5 7 -10 16 -10 8 0 12 -5 9 -10 -4 -6 4 -27 16 -48 21 -35
22 -48 22 -217 0 -127 -4 -192 -14 -218 -10 -30 -11 -42 -1 -57 15 -24 15 -40
2 -40 -5 0 -10 8 -11 18 0 13 -2 12 -9 -5 -11 -27 -55 -32 -64 -7 -3 9 -6 52
-6 97 -1 89 -19 231 -44 342 -23 103 -21 139 9 162 19 14 27 30 31 69 8 61
-11 98 -62 119 -45 19 -43 32 9 45 63 16 65 18 27 20 -19 0 -46 7 -60 15 -18
10 -60 14 -147 15 -111 0 -166 10 -183 31 -3 4 -30 17 -60 29 -30 13 -58 26
-63 30 -4 3 41 5 100 4 157 -3 158 -3 283 5 139 9 222 5 232 -12z m5403 -17
c2 -4 -7 -13 -20 -20 -20 -11 -27 -11 -41 0 -15 13 -15 15 1 26 16 12 51 8 60
-6z m-3748 -27 c-3 -10 -5 -4 -5 12 0 17 2 24 5 18 2 -7 2 -21 0 -30z m-2401
-62 c10 -97 -3 -283 -23 -326 -19 -40 -28 -43 -43 -15 -10 19 -41 21 -82 5
-13 -5 -19 0 -24 19 -5 22 -12 26 -45 26 -27 0 -45 -6 -57 -20 -15 -19 -28
-21 -122 -20 -58 0 -123 -4 -145 -9 -45 -12 -118 -14 -128 -5 -3 4 0 22 8 41
8 20 15 45 15 57 0 37 15 43 83 33 34 -5 121 -12 192 -16 72 -5 161 -14 198
-22 94 -18 125 4 97 70 -11 27 -14 28 -128 39 -64 6 -165 14 -224 18 -64 4
-115 12 -125 20 -17 12 -17 14 -1 41 32 55 223 139 322 142 27 1 51 2 52 4 2
1 41 -2 88 -7 l85 -9 7 -66z m6769 68 c10 -15 -1 -23 -20 -15 -9 3 -13 10 -10
16 8 13 22 13 30 -1z m-6647 -19 c9 -5 44 -21 77 -36 68 -30 119 -69 218 -164
119 -113 151 -189 198 -475 11 -67 8 -222 -7 -394 -8 -94 7 -127 74 -158 50
-23 90 -37 108 -38 6 0 28 -8 50 -17 82 -35 234 -88 254 -88 11 0 20 -4 20
-10 0 -5 6 -10 14 -10 23 0 46 -70 33 -100 -12 -29 -44 -62 -75 -79 -31 -17
-114 -19 -132 -3 -31 26 -87 62 -150 97 -36 19 -85 51 -110 69 -25 19 -48 35
-52 35 -4 1 -33 17 -64 37 -31 20 -72 42 -91 51 l-36 15 6 127 c6 122 5 130
-18 173 -41 76 -109 135 -176 152 -18 4 -29 15 -34 33 -3 15 -23 61 -43 103
-39 81 -139 190 -173 190 -23 0 -24 21 -3 62 9 17 20 58 25 92 10 63 12 307 2
332 -4 10 4 14 31 14 20 0 44 -4 54 -10z m-2996 -19 c-7 -4 -12 -21 -10 -37 3
-28 1 -29 -39 -32 -47 -3 -58 14 -23 36 11 7 20 19 20 27 0 10 10 15 33 15 21
0 27 -3 19 -9z m9073 -1 c20 -1 20 -1 0 -9 -22 -9 -55 -3 -55 9 0 5 8 7 18 5
9 -2 26 -4 37 -5z m675 -6 c0 -8 5 -12 10 -9 14 9 12 -8 -2 -28 -12 -16 -16
-16 -63 2 -27 11 -45 21 -40 22 6 1 -10 5 -35 9 l-45 8 53 -3 c29 -1 55 2 58
7 10 15 64 9 64 -8z m-9813 0 c-3 -3 -12 -4 -19 -1 -8 3 -5 6 6 6 11 1 17 -2
13 -5z m9013 -9 c0 -8 -4 -15 -9 -15 -5 0 -14 7 -21 15 -10 13 -9 15 9 15 12
0 21 -6 21 -15z m560 -35 c92 -16 98 -18 188 -63 63 -33 92 -53 105 -77 10
-18 15 -35 12 -39 -8 -7 -117 -21 -215 -27 -41 -2 -118 -10 -170 -17 -86 -11
-96 -14 -109 -39 -14 -24 -14 -28 3 -47 21 -23 66 -27 131 -10 22 5 84 9 137
9 60 -1 123 5 162 15 36 9 79 15 98 13 34 -3 41 -16 62 -115 l7 -32 -69 3
c-37 2 -78 9 -90 15 -11 6 -67 11 -126 11 -95 0 -106 2 -116 20 -8 15 -21 20
-49 20 -33 0 -40 -4 -51 -30 -12 -29 -30 -41 -30 -20 0 6 -18 10 -39 10 -36 0
-40 -3 -43 -27 l-3 -28 -23 36 c-27 45 -36 107 -36 265 0 85 4 126 13 137 20
25 156 34 251 17z m-307 -200 c3 -175 4 -188 29 -242 l27 -58 -33 -15 c-67
-32 -169 -175 -205 -287 -9 -26 -18 -38 -31 -38 -49 0 -127 -66 -178 -150 -25
-42 -26 -51 -24 -146 2 -56 4 -111 7 -121 5 -27 -2 -34 -65 -67 -30 -16 -100
-59 -155 -95 -55 -36 -109 -69 -119 -74 -11 -4 -41 -23 -67 -41 -25 -19 -62
-42 -80 -52 -19 -9 -37 -21 -40 -26 -4 -6 -14 -6 -27 1 -11 6 -31 11 -43 11
-32 0 -85 36 -107 74 -19 32 -19 33 0 70 14 27 32 43 64 57 25 10 51 19 57 19
7 0 62 20 122 45 61 25 117 45 126 45 33 0 125 44 152 72 l27 29 -6 222 c-3
127 -2 254 4 297 12 91 54 255 78 306 16 33 136 173 156 182 4 2 32 23 61 47
56 47 220 127 250 122 15 -2 17 -20 20 -187z m-1859 -42 c8 -19 10 -37 5 -42
-12 -14 -11 -56 1 -56 6 0 10 -11 10 -24 0 -13 5 -26 10 -28 19 -6 24 -76 6
-93 -9 -9 -16 -12 -16 -5 0 6 -4 8 -10 5 -5 -3 -16 10 -24 29 -14 33 -18 35
-46 30 l-31 -7 20 39 c12 24 21 62 22 99 1 33 4 66 7 73 8 23 32 12 46 -20z
m-2088 7 c10 -8 27 -15 37 -15 9 0 17 -6 17 -14 0 -14 36 -46 52 -46 5 0 8 8
9 18 0 9 5 4 9 -12 14 -44 6 -641 -9 -705 -11 -48 -10 -55 6 -73 17 -19 18
-48 20 -372 l2 -351 -50 -23 c-61 -27 -62 -27 -84 -2 -21 23 -11 41 35 60 34
14 44 34 29 61 -8 16 -17 19 -42 14 -18 -4 -39 -13 -48 -21 -8 -8 -25 -14 -37
-14 -11 0 -24 -4 -27 -10 -3 -5 -13 -10 -21 -10 -8 0 -14 5 -14 10 0 6 8 10
18 10 13 0 14 2 3 9 -10 6 -10 10 -2 16 9 5 8 14 -4 32 -12 18 -15 39 -12 72
15 137 17 215 5 222 -9 6 -9 11 0 21 6 8 13 30 15 49 2 20 7 41 11 47 3 6 0
38 -8 71 -13 54 -12 66 4 117 14 48 23 60 54 76 20 10 41 16 46 13 12 -7 12 3
0 30 l-9 20 -1 -20 c-1 -14 -5 -9 -13 15 -7 19 -10 37 -7 40 21 19 30 74 30
186 0 124 8 164 34 164 8 0 17 7 20 16 8 21 8 174 0 174 -16 0 -33 -38 -34
-72 0 -21 -4 -38 -10 -38 -5 0 -10 4 -10 9 0 5 -10 11 -22 13 -19 2 -24 11
-28 48 -5 41 -8 45 -38 51 -18 4 -35 9 -38 12 -9 8 27 37 45 37 24 0 52 31 34
37 -17 6 -17 43 0 43 7 0 22 -7 33 -15z m-2576 -65 c0 -5 -12 -10 -26 -10 -14
0 -23 4 -19 10 3 6 15 10 26 10 10 0 19 -4 19 -10z m7560 -19 c12 -24 13 -786
1 -846 -5 -22 -9 -34 -10 -27 0 7 -5 11 -10 8 -5 -3 -16 5 -25 19 -9 14 -14
25 -10 25 4 0 1 7 -6 15 -14 17 -16 575 -1 603 4 9 5 26 0 37 -4 11 -8 53 -8
93 -1 58 2 72 14 72 8 0 15 5 15 10 0 18 29 11 40 -9z m1236 -293 c-2 -172 -7
-329 -11 -348 -4 -19 -9 -63 -12 -97 -3 -46 -9 -63 -19 -63 -8 0 -16 6 -18 13
-10 30 -24 530 -16 555 5 15 12 71 15 125 6 90 8 97 28 98 17 1 18 2 5 6 -27
7 -21 23 8 23 l25 0 -5 -312z m935 240 c1 -40 1 -82 1 -93 -1 -23 0 -286 1
-330 1 -68 -7 -145 -15 -145 -4 0 -8 -9 -8 -20 0 -13 -7 -20 -19 -20 -23 0
-41 63 -41 147 0 32 -4 65 -9 72 -6 10 -5 26 4 47 11 28 11 35 -6 60 -10 16
-27 32 -39 36 -18 7 -20 16 -21 105 -1 54 -2 114 -4 133 -3 56 3 71 28 65 12
-3 42 -1 67 4 25 5 48 9 53 10 4 1 8 -32 8 -71z m-9626 32 c-3 -5 -10 -10 -16
-10 -5 0 -9 5 -9 10 0 6 7 10 16 10 8 0 12 -4 9 -10z m-75 -32 c36 -14 87 -37
115 -51 27 -15 55 -27 61 -27 9 0 86 -89 116 -134 10 -14 74 -155 82 -179 4
-12 14 -18 28 -17 13 1 28 2 33 1 16 -2 122 -104 136 -131 7 -15 13 -67 13
-132 1 -94 -1 -108 -15 -108 -15 0 -17 13 -15 103 l1 103 -37 44 c-21 24 -38
47 -38 52 0 4 -7 8 -15 8 -8 0 -15 5 -15 10 0 6 -25 10 -55 10 -49 0 -55 2
-55 20 0 39 -88 197 -133 239 -58 55 -134 104 -147 96 -6 -4 -9 -1 -8 6 2 9
-17 17 -55 25 -32 7 -72 18 -90 25 -46 20 -375 18 -389 -2 -6 -10 -8 -5 -6 16
3 29 4 30 63 32 33 1 74 7 90 12 17 6 84 9 150 7 98 -3 132 -8 185 -28z
m-2590 6 c0 -2 -9 -4 -21 -4 -11 0 -18 4 -14 10 5 8 35 3 35 -6z m30 -34 c0
-5 -4 -10 -10 -10 -5 0 -10 5 -10 10 0 6 5 10 10 10 6 0 10 -4 10 -10z m9340
3 c0 -5 -11 -9 -25 -9 -14 -1 -22 2 -19 7 6 11 44 12 44 2z m-125 -33 c3 -5
-3 -10 -14 -10 -11 0 -23 5 -26 10 -3 6 3 10 14 10 11 0 23 -4 26 -10z m-6785
-16 c41 -8 107 -31 147 -51 65 -33 72 -39 77 -72 12 -71 11 -87 -11 -133 -13
-27 -23 -59 -23 -72 0 -14 -15 -44 -33 -68 -44 -59 -201 -139 -276 -140 -50
-1 -51 -2 -51 -33 0 -17 13 -52 30 -79 22 -34 33 -68 41 -123 6 -41 13 -85 17
-97 12 -37 7 -82 -22 -211 -19 -84 -37 -122 -85 -180 -67 -81 -78 -149 -32
-212 28 -38 55 -55 114 -67 33 -8 35 -21 5 -37 -13 -7 -41 -29 -64 -49 -56
-51 -100 -64 -193 -57 -101 9 -142 21 -193 61 -38 29 -43 37 -41 70 4 54 36
100 103 147 59 41 77 68 82 124 3 26 8 31 38 35 22 3 36 11 38 22 2 12 -2 15
-17 11 -48 -12 -131 24 -131 56 0 25 34 41 83 40 79 -2 101 -10 105 -42 3 -28
25 -36 38 -15 11 18 23 90 17 105 -3 7 -14 13 -25 13 -15 0 -18 -4 -13 -21 6
-19 4 -21 -16 -15 -79 24 -113 28 -149 16 -56 -19 -75 -11 -73 30 3 67 76 100
143 65 26 -13 30 -14 30 -1 0 8 -14 25 -30 38 l-30 24 16 46 c12 36 13 52 4
67 -13 26 -27 26 -65 1 -22 -15 -47 -20 -97 -20 -62 0 -68 2 -92 31 -34 40
-33 56 7 104 17 22 58 80 89 130 31 49 68 104 81 120 14 17 35 48 48 70 12 22
30 49 39 60 8 11 26 40 39 65 13 25 26 47 28 49 2 3 25 -16 51 -42 58 -57 116
-72 221 -57 94 13 112 22 154 71 29 34 34 45 25 56 -15 18 -82 53 -103 53 -8
0 -15 4 -15 9 0 5 23 12 50 16 55 8 64 20 24 35 -90 35 -303 -17 -368 -89 -11
-12 -22 -21 -25 -21 -3 0 -6 37 -5 82 l0 83 55 6 c102 11 164 9 239 -7z m7193
-5 c26 -5 68 -9 93 -9 41 0 45 -2 42 -22 -3 -20 -8 -22 -67 -19 -35 1 -75 7
-88 12 -31 12 -158 12 -181 0 -9 -5 -46 -14 -82 -20 -67 -12 -209 -74 -223
-98 -4 -7 -15 -13 -22 -13 -8 0 -15 -6 -15 -14 0 -8 -15 -24 -34 -35 -44 -27
-106 -151 -106 -211 0 -30 -1 -30 -54 -30 -35 0 -60 -5 -70 -15 -8 -8 -20 -15
-26 -15 -6 0 -14 -8 -17 -17 -4 -10 -17 -31 -29 -48 -25 -34 -36 -89 -38 -184
-1 -42 -5 -66 -13 -68 -10 -4 -13 12 -13 54 0 32 -3 81 -6 108 -5 44 -2 55 23
93 45 66 132 134 165 129 29 -4 31 -2 43 61 4 17 10 32 14 32 4 0 16 24 26 52
10 29 33 69 51 88 18 19 40 45 51 57 25 30 190 111 271 132 71 20 206 20 305
0z m-9623 -39 c0 -5 -4 -10 -10 -10 -5 0 -10 5 -10 10 0 6 5 10 10 10 6 0 10
-4 10 -10z m9633 -46 l59 -7 -6 -51 c-4 -28 -2 -66 3 -83 5 -18 7 -33 4 -33
-3 0 -24 17 -48 38 -91 80 -361 123 -373 59 -3 -14 5 -17 47 -17 28 0 51 -4
51 -9 0 -5 -21 -17 -47 -26 -27 -8 -57 -22 -67 -30 -18 -13 -18 -17 -6 -41 18
-33 60 -74 86 -84 11 -5 61 -11 111 -15 112 -9 147 1 208 61 l45 44 26 -53
c28 -57 52 -96 101 -160 17 -23 55 -80 84 -127 28 -47 71 -110 95 -141 49 -62
53 -84 23 -123 -19 -24 -27 -26 -91 -26 -53 0 -79 5 -103 20 -30 19 -34 19
-49 5 -19 -19 -20 -35 -5 -85 11 -36 10 -39 -22 -68 -41 -36 -32 -52 14 -27
40 21 74 16 111 -18 62 -55 33 -113 -41 -82 -31 13 -46 14 -88 4 -27 -6 -58
-16 -67 -21 -15 -7 -17 -5 -15 14 1 17 -3 23 -18 23 -17 0 -20 -8 -23 -47 -2
-34 2 -55 15 -73 24 -32 33 -31 33 5 0 37 17 46 98 53 55 5 66 3 84 -15 l21
-21 -32 -29 c-25 -23 -41 -28 -81 -28 -28 0 -50 -4 -50 -9 0 -15 24 -29 55
-33 25 -2 30 -8 33 -33 5 -55 24 -84 74 -116 63 -41 101 -97 102 -151 1 -34
-4 -44 -34 -69 -45 -36 -134 -59 -233 -59 -86 0 -103 6 -160 59 -21 20 -45 40
-53 44 -31 18 -9 47 36 47 9 0 36 20 59 45 36 39 41 50 41 92 0 49 -13 73 -90
178 -18 24 -32 59 -36 88 -4 26 -10 47 -15 47 -5 0 -9 12 -9 26 0 14 -5 46
-11 71 -9 35 -9 69 1 147 12 98 28 145 70 215 12 18 20 43 18 55 -3 18 -12 22
-61 28 -68 9 -205 73 -245 116 -54 58 -107 207 -97 275 4 24 10 48 13 54 14
22 129 71 193 83 36 6 72 16 80 21 13 9 50 8 182 -7z m-2463 -28 c0 -19 -4
-38 -10 -41 -12 -7 -24 39 -16 60 10 27 26 16 26 -19z m3360 30 c0 -3 -4 -8
-10 -11 -5 -3 -10 -1 -10 4 0 6 5 11 10 11 6 0 10 -2 10 -4z m-10523 -28 c-3
-8 -6 -5 -6 6 -1 11 2 17 5 13 3 -3 4 -12 1 -19z m2736 -101 c-6 -56 -23 -108
-40 -125 -7 -7 -13 -24 -13 -36 0 -13 -7 -29 -15 -36 -8 -7 -15 -19 -15 -26 0
-8 -6 -14 -12 -15 -7 0 -29 -20 -48 -45 -45 -56 -114 -94 -175 -94 -56 0 -65
-16 -40 -68 9 -21 19 -63 21 -95 2 -32 6 -61 8 -66 8 -13 -14 -315 -23 -321
-5 -3 -12 -21 -16 -40 -4 -19 -13 -42 -20 -50 -7 -8 -16 -26 -20 -40 -4 -14
-16 -37 -27 -52 -11 -15 -22 -43 -25 -61 -4 -28 -1 -37 22 -55 30 -24 108 -31
120 -11 4 6 13 8 21 5 8 -3 14 -1 14 4 0 6 7 10 15 10 8 0 23 4 33 9 62 31
116 51 138 51 13 0 42 9 64 20 22 11 47 20 58 20 10 0 22 4 28 8 5 5 29 16 54
26 92 34 112 67 117 196 l4 95 -45 50 c-25 28 -55 60 -66 73 -12 12 -18 27
-15 32 3 6 2 10 -4 10 -6 0 -15 19 -21 43 -11 48 -60 147 -72 147 -4 0 -8 34
-8 76 0 77 19 132 71 202 22 29 32 14 14 -19 -8 -13 -21 -37 -29 -54 -9 -16
-21 -38 -28 -47 -15 -20 -4 -70 49 -228 35 -105 67 -170 83 -170 14 0 50 -42
71 -82 16 -31 19 -58 19 -160 -1 -81 -5 -128 -13 -138 -17 -22 -143 -80 -172
-80 -14 0 -25 -4 -25 -10 0 -5 -11 -10 -25 -10 -14 0 -25 -4 -25 -10 0 -5 -7
-10 -15 -10 -8 0 -30 -9 -50 -20 -20 -11 -42 -20 -50 -20 -8 0 -15 -4 -15 -10
0 -5 -25 -10 -55 -10 -30 0 -55 -3 -55 -8 0 -13 -77 -32 -129 -32 -40 0 -55 5
-80 28 -57 52 -58 108 -2 166 38 40 67 100 79 162 6 27 18 76 27 109 18 67 16
207 -5 246 -7 12 -10 36 -7 54 6 34 -26 115 -44 115 -5 0 -9 9 -9 20 0 16 7
20 33 20 38 0 125 27 147 45 8 7 33 22 55 34 53 28 85 56 85 75 0 9 4 24 9 34
20 35 53 167 53 208 l0 42 23 -20 c19 -16 22 -27 18 -61z m-235 46 c19 -12 21
-17 11 -29 -17 -20 -65 -45 -73 -37 -3 4 -6 14 -6 23 0 10 -7 23 -15 30 -8 7
-15 18 -15 26 0 16 65 8 98 -13z m8206 -11 c-3 -9 -8 -37 -10 -62 -2 -25 -8
-72 -13 -105 -8 -59 -9 -60 -10 -14 -1 56 -14 69 -67 69 -24 0 -46 5 -49 10
-3 6 -14 10 -24 10 -9 0 -25 6 -35 13 -17 13 -18 16 -2 48 21 46 46 55 139 51
69 -3 78 -6 71 -20z m-8444 -18 c12 -32 6 -44 -20 -37 -44 12 -52 63 -10 63
13 0 24 -10 30 -26z m-2323 -35 c13 -5 21 -14 18 -19 -4 -6 -10 -8 -15 -5 -5
3 -16 -2 -24 -11 -15 -14 -17 -14 -22 0 -3 9 -3 28 1 44 4 15 10 21 12 14 3
-7 16 -17 30 -23z m2863 -29 c11 -27 9 -34 -23 -82 -71 -108 -77 -126 -77
-221 0 -76 3 -94 25 -130 13 -24 34 -73 45 -111 17 -53 33 -80 77 -128 72 -78
87 -114 78 -191 -6 -51 -13 -66 -47 -103 -26 -28 -49 -44 -64 -44 -13 0 -24
-4 -24 -10 0 -5 -8 -10 -17 -10 -10 0 -45 -9 -78 -19 -33 -11 -84 -27 -114
-36 -30 -9 -76 -27 -104 -41 -89 -42 -167 -44 -167 -4 0 11 20 52 45 92 25 40
45 81 45 91 0 10 5 27 10 37 9 17 30 225 32 320 0 38 -15 159 -27 203 -7 25
-5 27 26 27 84 0 235 122 273 220 45 114 56 146 56 163 0 25 15 14 30 -23z
m6310 -19 c0 -22 9 -60 20 -86 11 -26 20 -56 20 -66 0 -11 7 -34 16 -51 20
-39 93 -118 109 -118 7 0 37 -13 67 -29 30 -16 79 -32 111 -36 62 -8 67 -13
37 -35 -20 -14 -47 -86 -48 -125 0 -11 -5 -40 -11 -65 -17 -74 -13 -190 10
-281 24 -99 66 -199 91 -217 21 -15 58 -84 58 -107 0 -19 -52 -65 -94 -83 -18
-8 -44 -11 -61 -7 -16 4 -43 9 -60 12 -16 3 -35 9 -40 14 -6 4 -31 11 -55 15
-24 4 -80 23 -124 42 -45 19 -101 41 -126 49 -25 8 -58 20 -75 28 -16 7 -51
22 -77 33 l-46 20 -1 151 c-1 107 2 151 10 151 6 0 9 6 6 14 -6 15 28 52 65
70 13 6 25 20 27 31 2 11 9 24 16 30 8 5 20 32 28 59 7 28 19 52 25 54 7 2 4
-24 -9 -70 -15 -57 -27 -80 -54 -104 -19 -18 -50 -56 -70 -85 -37 -56 -40 -78
-28 -178 5 -47 12 -60 57 -106 39 -40 59 -52 86 -54 19 -2 40 -6 45 -10 6 -4
44 -18 85 -30 41 -13 93 -30 115 -38 22 -9 60 -23 85 -32 25 -9 51 -20 59 -25
18 -12 96 -9 121 4 47 25 47 85 0 135 -40 42 -87 177 -94 267 -14 188 -5 323
27 380 17 31 18 40 7 53 -7 8 -25 15 -40 15 -86 0 -254 138 -281 230 -7 25
-15 47 -19 50 -29 27 -40 112 -20 151 17 31 30 22 30 -20z m290 19 c0 -10 -7
-20 -15 -24 -8 -3 -15 -15 -15 -26 0 -26 -18 -25 -54 3 -31 25 -29 43 7 56 41
15 77 11 77 -9z m196 -15 c19 -14 18 -15 -6 -35 -27 -21 -60 -27 -60 -10 0 14
30 60 39 60 4 0 16 -7 27 -15z m-8416 -10 c0 -8 3 -15 8 -15 18 -1 32 -18 26
-33 -9 -24 -24 -21 -24 4 0 21 -1 21 -26 4 -14 -9 -29 -14 -32 -10 -4 4 1 11
11 16 9 6 17 19 17 29 0 11 5 20 10 20 6 0 10 -7 10 -15z m6036 -55 c11 -10
14 -53 14 -234 0 -206 -2 -225 -21 -266 -20 -41 -21 -49 -9 -134 7 -50 12
-131 11 -180 -1 -60 2 -92 10 -97 9 -5 7 -22 -7 -68 l-18 -61 -50 6 c-28 4
-53 8 -55 10 -2 2 -11 0 -20 -5 -9 -5 -28 -11 -43 -15 l-26 -6 1 118 c2 109 4
120 27 149 14 18 33 32 43 32 9 1 17 9 17 19 0 31 16 47 33 34 11 -10 17 -9
26 2 18 21 3 47 -24 40 -16 -4 -28 1 -43 20 -11 14 -24 26 -30 26 -6 0 -13 6
-16 13 -3 6 -4 0 -1 -16 5 -26 4 -27 -15 -15 -11 7 -16 14 -10 16 5 2 12 26
16 53 6 47 17 62 27 37 3 -9 10 -7 21 7 20 26 16 48 -11 59 -21 10 -22 16 -14
84 0 8 7 12 14 9 6 -2 20 5 29 15 9 11 20 19 25 19 4 -1 8 5 8 12 0 7 -13 12
-30 12 -38 0 -42 5 -44 70 -1 45 2 56 19 65 23 13 27 30 5 30 -8 0 -15 5 -15
10 0 6 7 13 15 16 8 4 15 10 15 15 0 5 -7 9 -15 9 -20 0 -19 8 5 58 11 22 21
51 21 64 1 17 3 18 6 6 2 -10 10 -18 18 -18 17 0 37 25 27 35 -4 4 3 4 16 1
15 -5 23 -3 24 6 0 7 3 -1 5 -19 2 -17 11 -37 19 -43z m-5581 16 l40 -14 -58
-7 c-59 -8 -86 2 -73 24 10 15 43 14 91 -3z m4385 -11 c6 4 10 2 10 -4 0 -20
-49 -24 -75 -7 -36 24 -21 38 21 20 19 -8 39 -12 44 -9z m-4305 5 c-3 -5 -10
-10 -16 -10 -5 0 -9 5 -9 10 0 6 7 10 16 10 8 0 12 -4 9 -10z m7325 -15 c0
-23 23 -89 57 -165 23 -52 131 -159 188 -186 28 -13 65 -24 83 -24 37 0 36 2
18 -47 -21 -55 -27 -171 -16 -308 6 -66 10 -131 10 -144 0 -14 6 -34 13 -45 8
-12 17 -36 20 -55 4 -19 18 -48 31 -65 22 -30 56 -90 56 -100 0 -12 -34 -36
-52 -36 -11 0 -77 22 -146 49 -70 26 -176 63 -235 82 -131 41 -167 72 -188
163 -11 53 -11 60 11 106 13 28 41 64 62 81 21 18 38 37 38 44 0 7 7 18 15 25
8 7 18 28 21 49 9 45 40 121 60 142 11 12 16 43 16 110 1 100 -6 125 -71 224
-38 58 -40 67 -24 98 17 34 33 35 33 2z m-3215 6 c43 -2 -4 -19 -67 -24 -48
-3 -71 -1 -78 8 -16 19 8 22 145 16z m612 -17 c-3 -3 -12 -4 -19 -1 -8 3 -5 6
6 6 11 1 17 -2 13 -5z m-4599 -28 c0 -18 -5 -22 -19 -19 -24 7 -24 19 -1 32 9
6 18 11 18 11 1 0 2 -11 2 -24z m-485 -6 c4 -14 0 -20 -12 -20 -9 0 -22 -5
-29 -12 -19 -19 -15 12 5 34 21 23 29 23 36 -2z m545 -20 c-13 -21 -28 -27
-28 -10 0 5 8 14 18 19 23 14 24 14 10 -9z m-243 -9 c-6 -4 -23 -11 -40 -15
-28 -6 -29 -5 -11 9 21 16 67 22 51 6z m85 -19 c0 -15 -2 -15 -10 -2 -13 20
-13 33 0 25 6 -3 10 -14 10 -23z m-710 8 c0 -5 -4 -10 -10 -10 -5 0 -10 5 -10
10 0 6 5 10 10 10 6 0 10 -4 10 -10z m260 -14 c0 -8 -4 -18 -10 -21 -5 -3 -10
3 -10 14 0 12 5 21 10 21 6 0 10 -6 10 -14z m2157 1 c6 -4 14 -1 16 5 4 8 6 7
6 -4 1 -9 10 -20 22 -23 17 -6 19 -12 14 -33 -4 -15 -10 -52 -14 -82 -4 -36
-11 -54 -19 -52 -9 1 -8 -8 4 -30 13 -24 13 -30 3 -21 -8 6 -29 15 -48 20 -28
7 -37 16 -48 48 -12 36 -11 130 3 173 4 13 39 13 61 -1z m48 3 c3 -5 1 -10 -4
-10 -6 0 -11 5 -11 10 0 6 2 10 4 10 3 0 8 -4 11 -10z m5559 -118 c32 -64 30
-155 -5 -206 -13 -19 -27 -32 -32 -29 -5 3 -5 8 -1 12 5 3 10 17 11 31 1 14 9
51 19 83 18 62 14 85 -27 132 -25 29 -49 77 -43 87 6 10 45 -44 78 -110z
m-7328 51 c-11 -11 -19 6 -11 24 8 17 8 17 12 0 3 -10 2 -21 -1 -24z m1261 10
c14 -21 18 -48 18 -128 0 -109 -15 -157 -50 -163 -11 -2 -28 -11 -38 -20 -16
-14 -19 -14 -27 -2 -6 8 -10 20 -10 25 0 16 30 55 42 55 6 0 20 7 30 17 14 13
18 31 18 90 0 93 -10 113 -56 113 -30 0 -35 -4 -40 -30 -9 -42 -24 -37 -24 8
0 50 14 62 72 62 41 0 50 -4 65 -27z m-1457 7 c-8 -5 -33 -9 -55 -8 l-40 1 40
7 c65 12 73 12 55 0z m4940 -24 c0 -23 -3 -24 -67 -24 -38 0 -89 -3 -115 -7
-46 -7 -78 3 -78 25 0 7 141 25 223 29 33 1 37 -2 37 -23z m-5320 -25 c0 -25
-20 -31 -42 -12 -21 18 -14 31 18 31 17 0 24 -6 24 -19z m4827 -5 c-18 -14
-98 -20 -129 -10 -42 13 -12 24 65 24 71 -1 80 -2 64 -14z m2963 -36 c19 -19
27 -60 13 -73 -3 -4 -14 7 -24 23 -20 32 -45 38 -71 18 -18 -14 -21 -36 -19
-134 1 -60 2 -62 36 -78 45 -22 63 -53 42 -73 -12 -12 -19 -13 -38 -2 -13 7
-31 15 -39 19 -32 15 -41 53 -38 166 3 94 6 115 22 133 26 28 88 29 116 1z
m-6012 -46 c-3 -34 -6 -39 -28 -39 -14 0 -31 -4 -38 -8 -17 -11 -43 10 -35 29
3 8 11 14 19 14 8 0 27 13 42 29 32 35 45 28 40 -25z m-1790 21 c3 -3 -12 -5
-34 -5 -27 0 -35 3 -25 9 14 9 49 7 59 -4z m-1198 -25 c9 -16 8 -22 -5 -26
-19 -8 -20 -6 -29 24 -9 29 19 31 34 2z m6155 -27 c15 -27 33 -65 40 -86 l13
-37 -40 -19 -40 -18 -28 28 c-23 24 -33 27 -64 22 -20 -3 -36 -3 -36 1 0 18
58 97 64 87 4 -6 20 -11 37 -11 25 0 29 4 29 26 0 25 -2 26 -35 20 -38 -7 -47
6 -17 23 33 20 50 11 77 -36z m2825 -43 c14 -16 33 -30 42 -30 21 0 22 -4 7
-31 -8 -16 -13 -18 -25 -9 -7 7 -25 10 -38 6 -22 -5 -24 -2 -28 37 -7 67 3 74
42 27z m2365 -19 c3 -5 1 -12 -5 -16 -5 -3 -10 1 -10 9 0 18 6 21 15 7z
m-7375 -27 c10 -26 14 -104 5 -104 -3 0 -13 4 -23 9 -9 5 -32 16 -50 24 -35
15 -37 21 -12 51 45 55 65 60 80 20z m2300 -3 c0 -25 -29 -67 -31 -45 0 5 -2
20 -4 34 -3 30 2 40 21 40 9 0 14 -10 14 -29z m-5319 -23 c15 -24 19 -44 16
-76 -4 -34 -2 -42 9 -38 8 3 14 1 14 -4 0 -6 -7 -10 -15 -10 -8 0 -15 -6 -15
-14 0 -7 -7 -19 -15 -26 -8 -7 -16 -22 -16 -34 -1 -11 -4 -5 -8 14 -3 19 -10
35 -16 35 -27 1 -35 19 -33 75 1 33 5 60 10 60 4 0 10 11 14 25 9 34 30 31 55
-7z m10369 -3 c0 -8 -4 -15 -10 -15 -5 0 -10 7 -10 15 0 8 5 15 10 15 6 0 10
-7 10 -15z m-8055 -44 c24 -14 31 -26 33 -55 2 -21 -2 -44 -8 -51 -7 -8 -11
-48 -11 -97 1 -46 -2 -114 -5 -153 -6 -66 11 -533 22 -602 4 -24 1 -33 -9 -33
-8 0 -34 -11 -59 -24 -24 -13 -55 -27 -69 -31 -13 -4 -60 -25 -104 -47 -77
-38 -196 -84 -242 -95 -13 -3 -43 -2 -67 1 l-44 7 16 40 c8 22 33 54 55 72 81
67 113 105 155 184 37 72 42 90 42 148 0 58 -2 66 -17 63 -12 -2 -23 -23 -34
-64 -32 -116 -47 -137 -222 -303 -39 -37 -44 -63 -22 -113 10 -25 -9 -23 -45
4 -35 25 -37 37 -12 69 30 39 29 132 -3 194 -15 30 -28 75 -31 115 l-6 65 38
14 c22 7 53 19 69 26 17 7 53 21 80 30 119 42 150 55 216 90 94 52 99 63 99
242 0 157 -11 197 -67 249 l-26 24 35 0 c22 0 41 7 53 20 16 18 36 22 140 27
11 1 34 -6 50 -16z m2788 -11 c-3 -11 -7 -20 -8 -20 -1 0 -5 9 -8 20 -3 12 0
20 8 20 8 0 11 -8 8 -20z m207 -68 c0 -56 -2 -63 -22 -71 -13 -5 -48 -27 -78
-50 -51 -38 -55 -40 -77 -25 -21 13 -26 13 -46 -1 -21 -15 -21 -16 -2 -14 11
2 30 -3 43 -10 21 -11 22 -14 9 -29 -8 -9 -21 -31 -30 -47 -14 -28 -14 -32 3
-53 22 -27 16 -52 -11 -52 -16 0 -19 -8 -19 -55 0 -43 8 -70 36 -126 31 -61
39 -70 58 -65 16 4 24 -1 31 -17 12 -26 44 -35 56 -16 6 10 11 5 19 -15 8 -23
15 -27 36 -23 21 4 28 -2 45 -34 14 -29 26 -39 43 -39 24 0 42 -33 29 -53 -10
-16 -182 2 -231 23 -39 18 -46 26 -88 117 -47 101 -50 107 -85 158 -17 24 -19
26 -14 7 5 -17 0 -27 -17 -41 -22 -19 -24 -19 -60 0 -27 14 -38 27 -43 51 -4
18 -13 46 -20 63 -29 68 -45 133 -45 175 0 38 -7 55 -45 105 -40 54 -45 65
-45 114 0 30 3 51 7 48 3 -4 12 -2 19 4 9 7 14 5 19 -10 3 -11 22 -39 41 -62
l34 -41 -6 31 c-6 26 -4 30 10 25 16 -6 28 -41 41 -119 4 -22 20 -67 36 -100
16 -33 35 -89 41 -125 l12 -65 8 54 c10 66 33 135 58 179 l20 32 -37 -25 c-20
-13 -39 -23 -41 -21 -5 6 30 59 44 68 6 4 9 19 6 33 -4 21 -1 25 21 25 34 0
58 -10 51 -21 -16 -26 81 6 105 35 16 19 6 35 -11 18 -19 -19 -30 -14 -26 11
2 14 17 29 43 42 49 24 55 32 55 70 0 23 3 27 10 15 5 -8 10 -43 10 -78z
m5064 43 c-4 -23 -2 -35 5 -35 7 0 10 -17 10 -42 -1 -24 -4 -33 -6 -20 -2 12
-9 22 -14 22 -10 0 -12 53 -3 88 10 35 16 26 8 -13z m-10113 -123 c1 -56 6
-102 11 -102 4 0 8 -16 8 -35 0 -29 4 -36 25 -41 14 -3 22 -10 19 -15 -7 -13
6 -50 16 -44 14 8 21 -113 18 -317 -3 -207 -18 -259 -21 -72 -2 81 -5 108 -15
106 -6 -1 -12 2 -12 7 0 6 -16 3 -35 -5 l-35 -14 0 313 c0 271 3 337 16 324 1
-1 4 -48 5 -105z m7590 68 c20 0 42 -7 49 -15 7 -8 28 -15 46 -15 38 0 43 -9
14 -28 -11 -6 -29 -30 -40 -52 -18 -34 -20 -58 -20 -199 0 -158 0 -160 26
-191 35 -41 124 -84 309 -150 83 -30 153 -59 157 -64 11 -16 10 -74 -2 -81 -5
-3 -10 -17 -10 -31 0 -13 -9 -41 -20 -61 -15 -28 -20 -57 -20 -114 0 -63 3
-79 20 -94 28 -26 25 -38 -15 -59 -42 -23 -48 -19 -33 21 11 28 9 36 -16 71
-15 22 -45 53 -67 68 -85 59 -155 161 -173 253 -7 40 -22 61 -43 61 -12 0 -15
-12 -11 -62 3 -48 13 -82 43 -142 39 -78 72 -117 155 -185 32 -26 70 -84 70
-106 0 -1 -18 -8 -41 -15 -38 -13 -47 -12 -122 14 -45 15 -122 48 -171 72 -49
24 -94 44 -99 44 -5 0 -43 17 -84 38 l-75 37 6 85 c10 153 19 588 12 606 -4
10 -8 77 -9 149 l-2 130 35 16 c25 12 42 14 64 8 17 -5 47 -9 67 -9z m-5355
-31 c22 -17 56 -40 77 -50 l37 -19 0 -177 c0 -107 -5 -191 -12 -216 -11 -35
-10 -41 7 -53 16 -12 16 -14 2 -20 -9 -3 -57 -4 -107 -2 l-92 3 1 185 c1 209
17 380 36 380 7 0 30 -14 51 -31z m6694 -28 c0 -21 -3 -58 -6 -83 -6 -42 -8
-44 -35 -40 -16 2 -26 8 -23 13 3 5 -2 12 -10 15 -11 4 -15 18 -14 45 1 21 5
39 10 39 4 0 20 13 34 30 33 36 44 31 44 -19z m-10143 -88 c-27 -36 -37 13
-14 75 l12 35 6 -49 c3 -27 2 -55 -4 -61z m11334 58 c6 9 9 0 9 -29 0 -60 -25
-51 -26 9 0 24 1 35 4 25 3 -15 6 -16 13 -5z m-7357 -80 c3 -5 -5 -8 -18 -7
-13 0 -22 4 -19 9 6 10 31 9 37 -2z m-2024 -137 c0 -8 -5 -12 -10 -9 -6 4 -8
11 -5 16 9 14 15 11 15 -7z m4574 -68 c22 -67 20 -88 -9 -144 -23 -45 -68
-102 -80 -102 -3 0 -5 31 -5 70 0 62 -2 71 -22 81 -29 14 -68 50 -68 61 0 4 7
8 15 8 8 0 15 5 15 10 0 6 8 10 19 10 10 0 26 11 35 25 9 14 25 25 36 25 10 0
22 5 26 11 9 15 19 1 38 -55z m-4546 21 c21 -17 14 -53 -13 -65 -36 -17 -35
-18 -35 38 0 43 2 49 18 43 9 -3 23 -10 30 -16z m-1866 -111 c16 -12 11 -14
-40 -19 -60 -6 -102 -1 -102 14 0 7 28 11 105 17 11 1 28 -5 37 -12z m5166
-53 c-16 -2 -40 -2 -55 0 -16 2 -3 4 27 4 30 0 43 -2 28 -4z m1805 0 c-7 -2
-19 -2 -25 0 -7 3 -2 5 12 5 14 0 19 -2 13 -5z m-6949 -24 c-6 -10 -107 -12
-143 -2 -20 5 -21 8 -9 12 26 9 159 1 152 -10z m11312 6 c-16 -9 -37 -25 -47
-38 -10 -12 -23 -28 -29 -34 -18 -22 -40 -15 -40 11 0 17 -9 29 -27 38 -14 7
-28 19 -31 26 -3 9 21 12 100 12 98 0 102 -1 74 -15z m-11340 -71 c-6 -16 -2
-16 65 -14 26 1 50 -3 54 -9 4 -7 -3 -11 -17 -11 -13 0 -37 -14 -55 -30 -34
-32 -64 -37 -122 -20 -19 5 -88 12 -155 15 -207 9 -235 15 -236 48 0 5 24 6
53 2 61 -7 132 -7 278 1 97 5 108 7 112 26 3 12 10 17 17 13 6 -4 9 -13 6 -21z
m5209 11 c28 -2 52 -4 54 -5 2 0 -2 -7 -9 -15 -9 -11 -46 -14 -188 -14 -96 0
-179 2 -184 5 -4 3 -2 14 5 25 11 18 20 19 142 13 71 -3 153 -7 180 -9z m6988
8 c-7 -2 -19 -2 -25 0 -7 3 -2 5 12 5 14 0 19 -2 13 -5z m-11250 -10 c12 -12
-15 -33 -43 -33 -15 0 -42 5 -60 12 -30 10 -32 12 -14 19 24 10 108 11 117 2z
m6205 -4 c56 0 102 -3 102 -8 0 -16 -26 -19 -146 -21 -192 -3 -254 -1 -254 8
0 20 49 30 120 26 41 -3 121 -5 178 -5z m4922 -21 c-6 -7 -17 -22 -25 -33 -10
-15 -17 -17 -25 -9 -19 18 5 54 36 54 19 0 22 -3 14 -12z m-8612 -15 c-2 -9
-14 -20 -27 -23 -38 -9 -35 -25 6 -46 21 -10 48 -26 60 -35 21 -15 21 -18 6
-30 -11 -10 -50 -14 -137 -14 l-121 0 0 40 c0 39 1 40 40 44 l40 3 -40 12
c-33 9 -41 17 -43 39 l-3 27 111 0 c100 0 111 -2 108 -17z m3610 -38 l217 -4
11 -31 c5 -17 13 -27 17 -24 9 9 47 -25 47 -43 0 -18 -30 -29 -39 -15 -7 12
-48 14 -253 13 -71 -1 -130 -6 -133 -11 -7 -12 -174 -14 -176 -2 -7 39 -3 61
11 60 41 -3 50 2 50 30 0 31 8 44 22 36 4 -3 106 -7 226 -9z m-1800 -21 c2
-12 13 -26 26 -32 26 -12 41 -68 21 -76 -7 -2 -117 -5 -245 -5 -218 -2 -235 0
-276 20 -43 20 -50 39 -16 39 15 0 15 2 2 10 -13 8 -12 10 3 10 9 0 17 5 17
10 0 29 141 48 345 46 114 -1 120 -2 123 -22z m-1518 -16 c0 -5 -16 -9 -35
-10 -19 -1 -43 -2 -52 -2 -10 -1 -20 -4 -23 -8 -3 -3 -21 -9 -40 -13 -32 -6
-35 -4 -36 19 l-2 25 94 -2 c52 -1 94 -5 94 -9z m126 -106 c18 -13 54 -78 75
-138 36 -104 64 -208 61 -229 -3 -22 -147 -96 -237 -121 -137 -40 -431 -140
-510 -174 -39 -17 -162 -60 -255 -90 -52 -17 -107 -37 -122 -45 -14 -8 -35
-15 -46 -15 -11 0 -33 -7 -49 -15 -15 -8 -43 -20 -60 -27 -18 -7 -33 -16 -33
-19 0 -4 -10 -9 -22 -12 -13 -2 -30 -7 -39 -11 -12 -5 -21 4 -36 41 -12 26
-24 59 -28 73 -4 14 -27 71 -51 128 -24 57 -44 108 -44 115 0 15 56 51 93 61
40 10 131 54 153 74 11 10 50 31 88 47 38 16 74 35 81 41 22 23 170 93 260
124 50 17 98 35 109 41 10 6 46 15 80 20 33 6 94 21 135 35 40 13 98 26 130
28 48 4 109 22 211 64 31 13 42 14 56 4z m4051 -116 c91 -37 126 -46 175 -46
25 0 65 -8 89 -19 24 -10 76 -24 114 -31 39 -7 117 -30 175 -51 58 -22 109
-39 113 -39 17 0 179 -81 211 -105 18 -14 36 -25 40 -25 16 0 115 -50 165 -84
29 -20 65 -39 80 -41 14 -3 50 -18 79 -33 44 -22 52 -31 52 -54 0 -16 -4 -36
-9 -46 -39 -72 -71 -146 -71 -167 0 -13 -4 -27 -10 -30 -5 -3 -14 -23 -20 -45
-11 -42 -39 -77 -49 -63 -3 5 -26 17 -51 27 -25 10 -65 28 -89 42 -24 13 -54
24 -67 24 -12 0 -26 5 -29 10 -3 6 -14 10 -23 10 -9 0 -39 9 -67 19 -27 11
-97 36 -155 56 -58 20 -133 48 -168 61 -132 52 -408 144 -431 144 -23 0 -44 8
-214 88 l-79 37 6 43 c6 42 57 206 79 252 29 60 53 90 74 90 12 0 48 -11 80
-24z m-5727 -72 c0 -6 -15 -21 -43 -43 -15 -12 -23 -11 -57 5 -62 29 -52 44
30 44 39 0 70 -3 70 -6z m2700 -14 c0 -12 -17 -12 -45 0 -17 7 -15 9 13 9 17
1 32 -3 32 -9z m330 -24 c10 -13 10 -17 3 -12 -7 4 -13 2 -13 -3 0 -6 -15 -11
-32 -11 l-33 1 30 24 c16 13 30 23 30 22 0 -1 7 -11 15 -21z m-5420 -26 c40
-1 48 -4 30 -9 -35 -10 -200 -1 -200 11 0 5 24 7 58 4 31 -2 82 -5 112 -6z
m199 -14 c6 -7 9 -21 5 -30 -4 -10 -1 -16 8 -16 7 0 24 -7 37 -16 l23 -17 -27
-21 c-26 -21 -31 -22 -104 -10 -42 7 -133 13 -203 13 -71 1 -128 5 -128 10 0
5 -11 12 -24 15 -13 3 -27 13 -30 22 -6 15 4 16 106 9 155 -10 223 -9 249 5
17 10 19 14 8 21 -8 5 -25 9 -39 10 l-25 1 25 8 c41 13 107 11 119 -4z m5068
-5 c12 11 13 8 8 -14 -5 -17 -3 -27 4 -27 6 0 11 5 11 11 0 5 5 7 10 4 6 -3
10 -10 10 -16 0 -12 -137 -12 -145 1 -4 6 1 7 12 3 16 -6 16 -5 4 10 -12 15
-10 17 17 17 17 0 34 5 38 12 6 9 9 9 12 0 3 -10 7 -10 19 -1z m4573 -20 c0
-10 -62 -41 -82 -41 -8 0 -25 11 -38 25 l-23 25 71 0 c40 0 72 -4 72 -9z
m-7170 -15 c6 -8 21 -16 33 -18 31 -4 32 -29 2 -68 -36 -48 -125 -200 -125
-215 0 -6 -5 -16 -12 -23 -7 -7 -22 -36 -33 -65 -12 -29 -28 -53 -38 -55 -15
-3 -17 13 -17 177 l0 181 76 50 c82 54 95 58 114 36z m200 -64 c0 -5 -11 -14
-25 -20 -27 -12 -28 -12 -19 12 6 16 44 23 44 8z m2385 -29 c140 -4 152 -6
175 -28 14 -12 35 -26 46 -29 14 -4 24 -18 28 -38 12 -59 8 -68 -25 -68 -17 0
-39 -5 -50 -11 -30 -16 -267 -23 -285 -8 -10 9 -17 9 -28 0 -20 -17 -59 1 -86
39 -19 27 -28 31 -56 28 -35 -4 -46 5 -19 16 8 3 15 12 15 20 0 17 45 66 61
66 6 0 8 4 4 9 -6 11 33 20 55 13 8 -2 83 -6 165 -9z m2101 5 c23 -8 35 -20
39 -39 3 -14 16 -31 28 -36 19 -9 17 -10 -20 -16 -44 -7 -65 -33 -35 -44 34
-12 43 -24 27 -39 -16 -16 -65 -19 -65 -3 0 6 -6 17 -14 25 -19 19 -150 20
-143 2 3 -9 21 -12 59 -10 56 4 73 -4 59 -26 -6 -10 -14 -9 -36 2 -16 9 -34
12 -39 7 -26 -20 -66 -18 -90 4 -16 14 -44 26 -76 30 -43 6 -49 9 -39 22 10
11 30 14 83 11 61 -2 71 0 74 15 2 9 -2 19 -10 21 -20 6 -95 15 -80 9 21 -8
13 -23 -13 -23 -20 0 -25 5 -25 25 0 21 5 25 28 25 15 0 34 6 40 12 7 7 57 18
110 24 53 7 99 12 101 13 3 0 19 -4 37 -11z m2149 -25 c108 -66 105 -58 105
-254 0 -154 -2 -169 -17 -169 -13 0 -33 30 -66 98 -61 123 -116 221 -144 257
-32 39 -29 59 12 74 19 7 35 17 35 22 0 15 12 11 75 -28z m2765 13 c0 -11 -19
-15 -25 -6 -3 5 1 10 9 10 9 0 16 -2 16 -4z m-12483 -32 c-3 -3 -12 -4 -19 -1
-8 3 -5 6 6 6 11 1 17 -2 13 -5z m9473 -35 c16 -29 7 -34 -25 -13 -20 13 -23
19 -13 25 20 13 26 11 38 -12z m-9035 -29 c-3 -5 -15 -10 -26 -10 -11 0 -17 5
-14 10 3 6 15 10 26 10 11 0 17 -4 14 -10z m785 -67 c14 -43 26 -84 28 -90 2
-7 -8 -17 -22 -23 l-26 -10 0 -975 c0 -901 -1 -975 -17 -975 -15 0 -16 72 -9
980 8 1022 8 1008 -31 969 -26 -26 -30 4 -7 58 13 32 29 77 36 101 7 23 15 42
18 42 3 0 17 -35 30 -77z m3079 -21 c32 -102 40 -212 16 -235 -9 -9 -26 -17
-37 -17 -22 0 -90 -17 -123 -30 -11 -5 -45 -14 -75 -20 -105 -21 -270 -74
-337 -109 -21 -10 -52 -21 -68 -24 -17 -3 -63 -17 -104 -31 -41 -14 -85 -26
-98 -26 -18 0 -136 -43 -209 -76 -18 -8 -50 53 -69 130 -9 38 -21 81 -26 95
-8 20 -6 28 13 45 13 12 41 27 63 34 43 14 79 29 107 43 10 5 28 9 41 9 13 0
27 3 30 6 7 7 52 24 187 70 41 14 93 33 115 43 22 10 85 33 140 51 55 18 105
36 110 40 10 7 19 10 115 36 30 8 64 18 75 23 33 16 49 19 80 20 29 1 31 -2
54 -77z m2947 27 c19 -11 34 -23 34 -25 0 -2 -22 -4 -50 -4 -42 0 -50 3 -50
18 0 38 19 41 66 11z m-2026 -39 c0 -5 -7 -10 -16 -10 -8 0 -12 5 -9 10 3 6
10 10 16 10 5 0 9 -4 9 -10z m6135 -88 c19 -50 35 -94 35 -97 0 -4 -13 -4 -30
0 l-30 7 0 -983 c0 -575 -4 -979 -9 -973 -13 13 -21 504 -21 1282 l0 672 -26
10 c-19 8 -24 15 -19 28 9 22 45 123 51 141 6 20 9 15 49 -87z m-3015 62 c152
-48 339 -113 500 -174 47 -18 99 -36 115 -41 28 -8 193 -65 295 -103 25 -9 56
-25 70 -35 l24 -19 -16 -54 c-9 -29 -20 -71 -24 -93 -8 -46 -43 -105 -62 -105
-7 0 -33 11 -58 25 -24 13 -44 22 -44 20 0 -3 -17 2 -37 9 -21 8 -56 17 -78
21 -22 4 -65 16 -95 27 -30 10 -79 26 -108 34 -28 7 -79 27 -112 44 -33 16
-69 30 -80 30 -12 0 -33 6 -48 14 -15 7 -56 19 -92 25 -36 7 -89 21 -118 31
-29 11 -74 22 -100 26 -26 4 -60 13 -76 21 l-29 15 6 79 c4 43 15 100 26 126
11 27 22 60 25 75 6 25 10 27 39 22 17 -3 52 -12 77 -20z m-6581 -77 c-30 -61
-47 -83 -58 -80 -11 2 -31 -19 -61 -63 -25 -37 -61 -90 -80 -118 -64 -95 -140
-236 -140 -260 0 -8 8 -17 18 -20 9 -3 30 -26 45 -50 15 -25 54 -78 86 -118
32 -40 60 -80 63 -88 8 -22 -19 -83 -82 -190 -32 -52 -83 -146 -115 -209 l-58
-114 22 -42 c12 -22 49 -71 81 -107 33 -36 60 -71 60 -77 0 -5 -17 -38 -37
-73 -61 -102 -81 -138 -128 -230 -43 -84 -53 -96 -68 -82 -7 7 11 41 110 217
69 122 85 165 70 192 -6 11 -41 56 -79 99 -37 43 -68 83 -68 87 0 10 117 235
140 269 28 42 115 204 122 227 5 17 -9 42 -59 110 -36 48 -85 111 -109 140
-24 28 -44 58 -44 65 0 19 106 195 207 342 73 107 80 121 72 145 -8 21 -7 28
6 36 10 6 40 26 69 47 28 20 53 35 54 33 2 -2 -15 -41 -39 -88z m3979 42 c-2
-6 -7 -10 -11 -10 -4 1 -17 1 -29 2 -22 1 -22 1 2 9 36 11 42 11 38 -1z m2012
1 c0 -5 -2 -10 -4 -10 -3 0 -8 5 -11 10 -3 6 -1 10 4 10 6 0 11 -4 11 -10z
m-4845 -61 c16 -35 17 -42 4 -50 -21 -13 -62 -11 -83 4 -18 13 -18 15 -1 48
36 71 48 71 80 -2z m2375 51 c11 -7 -3 -10 -47 -10 -34 0 -65 5 -68 10 -8 13
95 13 115 0z m1995 1 c-6 -5 -34 -11 -62 -14 -42 -5 -53 -3 -53 8 0 12 14 15
62 15 36 0 58 -4 53 -9z m4890 -41 c3 -5 2 -10 -4 -10 -5 0 -13 5 -16 10 -3 6
-2 10 4 10 5 0 13 -4 16 -10z m-7045 -17 c25 -6 25 -6 -5 -14 -31 -9 -89 4
-101 22 -5 9 49 5 106 -8z m230 3 c0 -19 -65 -29 -135 -21 -66 9 -63 17 8 26
95 11 127 10 127 -5z m165 -6 c13 -14 31 -20 62 -20 23 0 43 -5 43 -10 0 -6
-31 -9 -82 -6 -46 2 -101 5 -123 6 -32 1 -36 3 -20 10 11 5 37 11 58 15 21 3
35 10 32 16 -11 17 12 9 30 -11z m5278 -33 c57 -38 58 -39 43 -62 -14 -22 -13
-26 18 -67 39 -51 140 -207 215 -331 53 -89 53 -89 35 -112 -105 -133 -204
-270 -204 -283 0 -9 34 -78 76 -152 116 -206 184 -336 184 -353 0 -9 -20 -38
-45 -65 -73 -80 -105 -124 -105 -142 0 -27 22 -73 109 -230 45 -79 81 -148 81
-152 0 -4 -7 -8 -15 -8 -8 0 -36 43 -66 103 -28 56 -75 141 -105 189 -30 48
-54 92 -54 98 0 5 18 26 39 46 22 19 60 65 86 103 l46 67 -57 110 c-31 60 -85
159 -120 221 -36 61 -71 127 -79 147 -15 34 -14 35 28 88 23 29 65 84 94 123
28 38 61 79 72 90 l21 21 -31 59 c-88 169 -224 368 -255 373 -14 2 -31 26 -57
80 -20 43 -37 81 -37 85 0 10 6 6 83 -46z m1477 43 c-8 -5 -19 -10 -25 -10 -5
0 -3 5 5 10 8 5 20 10 25 10 6 0 3 -5 -5 -10z m-4455 -15 c75 -12 83 -18 35
-26 -78 -13 -150 -11 -150 4 0 17 39 37 60 32 8 -2 33 -7 55 -10z m-3037 -11
c20 -9 60 -18 87 -20 28 -3 52 -9 53 -14 2 -6 14 -10 27 -10 32 0 56 -10 49
-21 -3 -5 2 -9 11 -9 9 0 35 -9 57 -20 23 -11 56 -20 73 -20 39 0 94 -18 117
-37 9 -8 25 -13 35 -12 10 2 30 -5 46 -15 20 -14 37 -17 67 -12 24 4 68 0 108
-9 45 -10 108 -15 183 -14 63 1 126 -1 140 -5 33 -10 92 36 87 68 -3 18 -10
21 -55 21 -34 0 -58 6 -70 18 -11 9 -36 17 -56 17 -30 0 -39 5 -52 30 -9 17
-23 30 -33 30 -10 0 -18 8 -19 19 -1 17 7 18 165 14 120 -4 173 -9 189 -19 26
-16 50 -18 55 -4 2 6 37 7 91 3 l87 -6 0 -33 c0 -25 -10 -45 -36 -74 -58 -63
-48 -70 113 -72 76 -1 172 -3 213 -4 41 -1 101 -3 133 -3 47 -1 57 -4 57 -18
1 -15 3 -15 19 5 11 12 28 22 39 22 27 0 33 22 17 53 -7 15 -15 50 -17 79 l-3
53 90 5 c50 3 94 3 98 0 4 -4 29 -3 55 2 26 5 77 11 114 13 37 2 72 6 78 10
18 11 190 -16 190 -30 0 -14 25 -28 55 -30 11 -1 30 -2 43 -3 14 -1 26 -11 32
-27 13 -34 42 -39 207 -31 93 4 143 3 143 -4 0 -5 19 -10 43 -10 23 -1 60 -7
82 -15 22 -8 57 -15 78 -15 22 0 37 -5 38 -12 2 -21 -3 -43 -10 -48 -8 -6 -40
-151 -48 -218 -3 -26 -1 -48 6 -55 15 -15 14 -48 -1 -46 -30 4 -212 -3 -200
-8 6 -2 12 -11 12 -19 0 -12 -34 -14 -196 -14 -213 0 -272 -11 -199 -36 21 -7
56 -12 77 -12 71 1 50 -9 -33 -15 -62 -5 -88 -3 -109 8 -16 8 -45 15 -64 15
-29 0 -33 3 -29 20 6 24 15 25 54 4 17 -8 33 -13 37 -10 3 3 0 6 -6 6 -7 0
-12 7 -12 15 0 30 -39 36 -197 33 -114 -2 -157 -6 -161 -15 -2 -7 -10 -13 -18
-13 -12 0 -12 -4 1 -24 16 -24 16 -24 -32 -36 -53 -13 -71 -15 -123 -10 -32 3
-35 7 -35 34 l0 31 -80 -2 c-44 0 -88 -2 -97 -2 -21 -1 -24 -21 -4 -21 8 0 17
-7 20 -16 5 -14 7 -14 22 0 22 23 90 19 91 -6 1 -10 -4 -18 -10 -19 -41 -3
-111 4 -147 15 -36 11 -40 14 -22 18 30 8 27 19 -11 43 -30 19 -47 21 -217 20
-139 -1 -184 -4 -183 -13 3 -14 25 -13 -236 -12 -176 1 -220 4 -245 17 -49 25
-262 31 -321 8 -39 -14 -74 -16 -238 -13 -105 1 -212 -1 -236 -6 -40 -7 -43
-7 -37 11 4 12 1 20 -6 21 -152 17 -313 18 -333 2 -9 -7 -29 -15 -46 -17 l-29
-3 3 102 c3 65 8 103 16 106 16 5 14 22 -3 22 -9 0 -15 21 -19 70 -3 38 -13
80 -21 92 -9 12 -16 32 -16 44 0 12 -8 35 -17 52 -29 51 6 81 57 50 14 -9 23
-10 28 -3 4 6 57 12 117 13 61 2 114 8 120 13 12 12 20 12 63 -7z m3282 -13
c0 -12 -29 -23 -41 -15 -18 10 -9 24 16 24 14 0 25 -4 25 -9z m1600 -4 c0 -7
9 -30 19 -50 18 -36 18 -38 1 -47 -10 -6 -35 -10 -54 -10 -43 0 -47 19 -15 80
20 38 49 54 49 27z m-9513 -31 c6 -6 -29 -10 -54 -7 -6 1 -14 -3 -18 -9 -7
-11 -35 5 -35 20 0 8 99 5 107 -4z m-52 -26 c3 -5 1 -10 -4 -10 -6 0 -11 5
-11 10 0 6 2 10 4 10 3 0 8 -4 11 -10z m709 -31 c29 -17 33 -23 24 -38 -11
-18 -9 -21 107 -201 78 -120 136 -230 128 -243 -4 -7 -39 -61 -78 -122 -40
-60 -84 -130 -99 -153 -15 -24 -30 -42 -32 -39 -7 7 21 60 76 142 70 106 100
161 100 186 0 12 -25 65 -57 118 -163 278 -183 305 -196 269 -7 -22 -15 -5
-22 50 -7 59 -3 62 49 31z m2041 10 l100 -2 -71 -6 c-64 -6 -74 -10 -102 -42
-23 -25 -31 -44 -32 -71 0 -21 -4 -38 -9 -38 -12 0 -24 -74 -16 -99 5 -16 11
-18 28 -12 25 8 49 7 156 -9 41 -6 81 -8 88 -6 7 3 13 21 13 41 0 36 38 135
52 135 12 0 10 -13 -7 -37 -8 -12 -18 -50 -21 -85 -4 -35 -12 -67 -19 -73 -7
-6 -67 -9 -148 -7 -117 3 -138 6 -146 20 -16 31 -19 174 -4 213 10 26 11 43 4
62 -10 24 -9 26 12 23 12 -3 67 -6 122 -7z m-2794 -36 c13 -16 12 -17 -3 -4
-10 7 -18 15 -18 17 0 8 8 3 21 -13z m4203 -100 c3 -42 6 -114 6 -160 0 -70
-3 -86 -19 -100 -19 -16 -75 -40 -118 -50 -13 -3 -23 -9 -23 -13 0 -5 -15 -11
-32 -15 -34 -7 -87 -22 -123 -35 -51 -18 -93 -30 -109 -30 -9 0 -38 -8 -64
-19 -64 -26 -129 -44 -150 -44 -9 1 -37 -8 -61 -19 -73 -33 -88 -25 -126 67
-17 44 -43 105 -57 135 -13 30 -24 62 -24 70 1 15 74 46 146 61 25 5 60 16 79
25 19 9 52 19 75 21 23 3 46 9 51 13 32 22 238 93 379 130 60 16 111 32 114
35 3 3 15 5 27 5 20 0 23 -6 29 -77z m-1301 57 c31 0 36 -22 12 -54 -8 -11
-15 -29 -15 -40 0 -43 -12 -48 -93 -40 l-76 7 21 56 c25 69 42 84 88 77 19 -3
47 -6 63 -6z m8799 -57 c-5 -66 -9 -75 -23 -50 -6 9 -14 17 -18 17 -7 0 -116
-175 -165 -265 -9 -16 -30 -50 -46 -75 -15 -25 -29 -52 -29 -61 -1 -10 42 -87
95 -174 53 -86 94 -158 91 -161 -5 -5 -150 209 -197 291 l-23 40 40 75 c22 41
76 131 122 200 56 87 81 133 79 150 -2 19 5 30 32 47 19 12 38 23 41 23 3 0 4
-26 1 -57z m-1956 0 c1 -27 5 -93 9 -149 4 -57 4 -104 -1 -107 -5 -3 -76 -7
-159 -9 l-150 -3 -6 45 c-4 25 -10 61 -13 80 -7 33 -7 34 8 16 9 -11 16 -29
17 -40 3 -76 15 -90 69 -81 19 4 77 11 127 17 98 12 116 25 94 65 -5 10 -17
47 -26 83 -24 91 -43 110 -119 112 l-61 2 75 6 c149 13 135 16 136 -37z
m-7619 -40 c97 -75 245 -197 282 -233 l34 -33 -6 -486 c-7 -535 -18 -758 -48
-931 -18 -105 -64 -280 -74 -280 -2 0 -28 14 -57 32 -29 17 -63 37 -74 44 -12
7 -38 46 -59 85 -21 40 -56 100 -78 134 -49 73 -139 198 -148 205 -30 24 -33
84 -8 181 29 115 94 535 119 764 6 50 12 101 15 115 8 43 35 348 35 400 0 28
1 50 3 50 2 0 30 -21 64 -47z m6213 -8 c64 -17 186 -56 350 -113 47 -16 121
-42 165 -57 44 -15 98 -31 120 -35 50 -10 108 -32 117 -45 9 -12 -1 -78 -13
-85 -13 -9 -69 -134 -69 -156 0 -39 -23 -57 -66 -51 -61 8 -205 47 -252 68
-23 10 -54 19 -68 19 -14 0 -38 6 -52 14 -15 8 -56 22 -92 31 -122 32 -274 95
-282 117 -3 7 -1 69 3 138 4 69 8 139 8 156 1 36 -10 36 131 -1z m1277 7 c21
-17 57 -115 45 -126 -3 -4 -21 -3 -39 0 -21 4 -33 2 -33 -5 0 -6 -17 -11 -40
-11 -36 0 -40 2 -40 25 0 15 -7 40 -16 56 -21 41 -15 51 37 65 59 16 61 16 86
-4z m727 -104 c3 -29 8 -93 11 -143 3 -49 10 -128 16 -175 41 -338 73 -570 90
-660 11 -58 24 -140 29 -182 6 -42 14 -88 20 -102 5 -14 12 -54 16 -89 l6 -63
-60 -81 c-79 -105 -162 -233 -201 -310 -25 -50 -39 -67 -74 -84 -23 -12 -57
-32 -75 -46 l-32 -24 -11 28 c-46 120 -76 289 -89 500 -12 187 -30 797 -30
1016 l0 149 53 54 c50 52 305 262 319 263 4 1 9 -23 12 -51z m-7154 -223 c5
-27 13 -68 19 -91 7 -28 7 -68 0 -130 -5 -49 -14 -161 -20 -248 -5 -88 -14
-165 -20 -172 -5 -7 -38 -15 -72 -19 -34 -4 -77 -13 -96 -21 -63 -26 -201 -8
-201 26 0 6 -7 27 -17 48 -9 20 -15 43 -14 49 1 7 -4 23 -10 35 -7 13 -16 39
-20 58 -4 19 -14 62 -23 95 -8 33 -25 98 -36 145 -12 47 -25 99 -31 116 -10
34 -12 104 -3 128 5 14 36 16 243 16 l237 0 19 38 18 37 9 -30 c6 -16 14 -52
18 -80z m1605 33 c19 -19 -15 -24 -122 -20 -124 4 -166 14 -126 29 24 9 238 2
248 -9z m3190 2 c46 -17 16 -30 -70 -30 -63 0 -84 3 -88 14 -4 9 1 16 11 19
37 8 122 6 147 -3z m-2321 -20 c6 -6 51 -10 101 -10 94 0 111 -5 110 -30 0
-11 -15 -16 -65 -18 -53 -2 -69 1 -86 16 -15 14 -25 17 -37 10 -11 -5 -37 -3
-76 7 -75 19 -160 19 -252 0 -40 -9 -76 -12 -81 -7 -17 17 4 41 40 45 61 8
336 -3 346 -13z m790 4 c37 -14 -2 -24 -99 -24 -104 0 -135 5 -135 21 0 10
209 13 234 3z m776 -3 c0 -14 -26 -20 -102 -23 -68 -3 -94 6 -68 22 20 13 170
13 170 1z m-2295 -15 c13 -9 25 -11 36 -5 9 4 29 9 45 9 124 1 170 -3 187 -15
18 -12 15 -14 -29 -21 -48 -7 -236 1 -293 12 -17 4 -31 13 -31 20 0 19 60 18
85 0z m1172 -30 c-5 -13 -24 -16 -99 -16 -96 0 -122 7 -110 27 8 13 191 23
206 11 5 -4 6 -14 3 -22z m3153 4 l12 -30 242 -2 241 -3 3 -65 c2 -46 -5 -94
-24 -165 -14 -55 -32 -125 -39 -155 -8 -30 -18 -68 -23 -85 -6 -16 -25 -76
-43 -133 -18 -57 -36 -105 -41 -108 -17 -11 -158 -20 -173 -11 -8 4 -43 13
-78 19 -34 6 -74 17 -89 25 -26 13 -28 17 -28 81 0 104 -21 365 -31 384 -5 11
-5 28 1 43 6 15 10 39 10 55 0 16 5 32 10 35 6 3 10 23 10 44 0 49 10 101 20
101 4 0 13 -13 20 -30z m-1480 3 c0 -10 -6 -13 -16 -9 -9 3 -28 6 -42 7 l-27
1 25 7 c43 12 60 10 60 -6z m-2592 -166 c-1 -32 -6 -61 -10 -63 -4 -3 -8 1 -8
9 0 10 -16 17 -50 22 -48 7 -50 8 -50 39 0 18 6 40 13 49 14 18 88 27 99 12 5
-5 7 -36 6 -68z m-199 42 c1 -13 8 -27 14 -31 6 -4 -1 -10 -16 -13 -15 -4 -27
-11 -27 -16 0 -5 -4 -9 -10 -9 -10 0 -14 82 -4 92 13 14 39 -1 43 -23z m7572
11 c21 -17 22 -21 9 -30 -24 -16 -100 -13 -100 4 0 8 -3 21 -6 30 -9 25 67 22
97 -4z m-5921 -124 c0 -3 -4 -8 -10 -11 -5 -3 -10 -1 -10 4 0 6 5 11 10 11 6
0 10 -2 10 -4z m0 -36 c0 -5 -5 -10 -11 -10 -5 0 -7 5 -4 10 3 6 8 10 11 10 2
0 4 -4 4 -10z m-5840 -38 c0 -4 36 -61 80 -127 45 -66 92 -137 105 -157 25
-38 33 -78 15 -78 -5 0 -16 -13 -24 -28 -14 -26 -74 -111 -138 -194 -15 -20
-28 -42 -28 -48 0 -6 12 -29 27 -53 87 -137 180 -297 175 -301 -12 -13 -22 -2
-71 82 -29 48 -56 94 -62 102 -67 107 -96 166 -89 180 4 8 40 57 78 108 38 51
80 112 92 136 l23 42 -50 80 c-28 45 -69 105 -92 134 -50 64 -74 107 -66 120
7 12 25 13 25 2z m4300 -33 c0 -7 10 -9 28 -4 25 6 26 5 11 -10 -13 -13 -21
-15 -36 -6 -14 7 -23 7 -31 -1 -12 -12 -42 -4 -42 11 0 9 21 16 58 20 6 0 12
-4 12 -10z m713 -11 c6 -19 -3 -38 -18 -38 -12 0 -25 21 -25 41 0 14 38 11 43
-3z m1014 -44 c-3 -3 -12 -4 -19 -1 -8 3 -5 6 6 6 11 1 17 -2 13 -5z m4792
-45 c-7 -18 -39 -65 -70 -104 -31 -40 -72 -99 -90 -133 -32 -60 -32 -63 -17
-95 14 -30 75 -119 140 -206 15 -20 30 -42 34 -48 3 -7 -25 -65 -63 -128 -37
-64 -79 -135 -92 -158 -44 -80 -52 -90 -63 -79 -7 7 23 65 91 177 56 91 102
170 104 174 1 4 -44 74 -100 154 -57 80 -103 148 -103 151 0 2 46 74 103 158
57 84 107 162 111 172 5 14 10 16 18 8 8 -8 7 -20 -3 -43z m-8949 -44 c0 -11
11 -51 25 -90 l24 -70 -26 -22 c-50 -43 -53 -36 -53 115 1 124 2 135 15 112 8
-14 14 -34 15 -45z m1875 26 c50 1 124 2 165 3 62 1 74 -2 71 -14 -3 -8 -5
-39 -5 -68 -1 -44 -4 -54 -21 -57 -32 -7 -74 -1 -79 12 -3 7 -40 15 -88 19
l-83 8 50 7 c28 4 76 8 108 8 44 1 57 5 57 16 0 11 -11 15 -40 15 -22 0 -70 5
-107 12 -38 6 -85 8 -105 4 l-37 -7 2 -64 c1 -35 5 -58 9 -52 5 8 11 8 16 2 4
-6 77 -10 182 -10 160 0 176 -2 191 -19 16 -20 39 -15 39 8 0 7 -9 22 -20 34
-15 16 -20 35 -20 77 l0 55 53 2 c104 3 342 -4 352 -12 17 -12 802 -13 825 0
24 13 85 -2 93 -24 11 -28 -31 -35 -190 -34 -87 1 -173 -2 -190 -6 -32 -7 -45
-30 -21 -38 21 -7 -2 -28 -31 -28 -33 0 -51 16 -51 46 0 40 -21 45 -187 48
-142 2 -162 0 -195 -18 -32 -18 -41 -19 -70 -8 -41 14 -288 17 -288 3 0 -6 14
-18 30 -28 39 -23 38 -33 -4 -33 -40 0 -66 -8 -66 -21 0 -5 8 -9 18 -9 11 0
24 -12 30 -26 16 -33 57 -31 56 4 0 17 5 22 23 22 13 0 23 -4 23 -10 0 -5 17
-10 39 -10 28 0 42 -6 53 -21 12 -19 20 -21 51 -15 41 8 48 21 17 29 -23 6
-27 27 -5 27 8 0 15 -4 15 -10 0 -12 137 -13 200 -1 33 7 49 6 64 -5 27 -18
65 -18 72 1 6 15 34 21 34 8 0 -5 4 -15 10 -23 8 -12 11 -12 27 2 14 12 29 14
73 8 30 -5 86 -9 123 -9 43 -1 66 -5 62 -11 -4 -7 65 -8 209 -4 150 5 219 4
228 -4 18 -15 140 -18 243 -5 57 6 58 7 25 14 -36 7 127 12 345 9 436 -4 454
-4 469 9 14 11 16 11 16 -4 0 -15 6 -16 38 -9 20 4 108 8 195 8 108 1 160 5
165 13 5 8 21 9 50 3 23 -4 45 -3 48 1 3 5 27 9 54 9 38 0 50 -4 54 -17 4 -17
17 -112 22 -163 1 -14 5 -45 9 -69 10 -56 1 -62 -95 -60 -41 0 -138 -3 -216
-7 -95 -5 -143 -4 -147 3 -5 7 -20 8 -44 2 -21 -5 -101 -9 -178 -8 -77 0 -157
-3 -177 -7 -32 -6 -40 -3 -62 21 -24 26 -26 26 -26 7 0 -17 -8 -21 -57 -26
-32 -4 -153 -5 -268 -2 -170 3 -217 7 -242 20 -40 20 -66 20 -145 -1 -53 -14
-109 -17 -363 -16 -165 1 -452 2 -637 2 -186 1 -338 4 -338 8 0 5 -125 7 -277
7 -153 -1 -309 2 -348 6 -38 4 -73 6 -77 4 -8 -5 11 -44 25 -55 5 -4 -6 -11
-24 -18 -44 -15 -52 -14 -46 7 27 87 47 172 47 197 0 17 4 35 9 40 5 6 12 30
15 55 3 25 10 74 16 110 6 36 13 81 15 100 2 19 4 37 4 39 1 2 11 1 24 -3 13
-3 63 -5 112 -5z m3265 0 c0 -12 132 -21 152 -10 14 8 18 6 18 -10 0 -20 -9
-23 -133 -36 -49 -6 -59 -10 -67 -31 -11 -29 -26 -31 -40 -5 -18 34 -12 75 13
87 28 14 57 17 57 5z m-137 -34 c3 -12 9 -32 12 -44 7 -23 6 -23 -74 -23 -45
0 -91 -5 -102 -11 -12 -6 -46 -8 -90 -3 -67 6 -70 8 -76 35 -3 16 -9 26 -14
23 -5 -3 -17 0 -26 5 -17 10 -16 10 3 11 11 0 29 7 40 15 15 12 51 15 171 14
146 -1 151 -1 156 -22z m-587 -4 c57 -9 104 -20 104 -24 0 -15 -44 -21 -134
-18 l-91 4 -14 -30 c-11 -22 -16 -26 -19 -13 -2 12 -16 19 -45 22 -68 8 -315
15 -337 9 -19 -5 -19 -6 -3 -19 17 -12 17 -13 1 -14 -10 0 -24 13 -32 29 -9
16 -25 31 -38 34 -56 15 8 27 162 30 91 1 205 4 254 5 48 1 135 -6 192 -15z
m174 -13 c0 -5 -7 -10 -16 -10 -8 0 -12 5 -9 10 3 6 10 10 16 10 5 0 9 -4 9
-10z m-985 -10 c7 -11 -9 -11 -45 0 -24 8 -24 8 7 9 17 1 35 -3 38 -9z m148 3
c-7 -2 -19 -2 -25 0 -7 3 -2 5 12 5 14 0 19 -2 13 -5z m3337 -138 c0 -74 -3
-135 -7 -135 -5 0 -21 12 -37 26 l-29 26 26 82 c15 44 29 93 33 109 3 15 8 27
10 27 2 0 4 -61 4 -135z m-3657 85 c-5 -19 -23 -39 -23 -25 0 9 20 45 24 45 2
0 2 -9 -1 -20z m-836 -27 c-3 -3 -11 -2 -17 2 -9 6 -9 10 1 16 14 8 27 -7 16
-18z m173 1 c0 -2 -12 -4 -26 -4 -14 0 -23 4 -20 9 6 8 46 4 46 -5z m608 -1
c-10 -2 -28 -2 -40 0 -13 2 -5 4 17 4 22 1 32 -1 23 -4z m-2848 -122 c5 -11
10 -34 10 -51 0 -17 15 -73 32 -126 42 -121 39 -125 -69 -130 -45 -2 -94 -9
-108 -14 -15 -6 -53 -10 -85 -10 -55 0 -61 2 -74 29 -19 35 -9 46 47 55 20 3
53 9 72 12 40 7 56 28 50 67 -10 65 -12 75 -19 85 -4 7 -40 9 -109 5 l-103 -6
-12 28 c-7 15 -9 31 -5 36 4 4 55 10 113 12 58 3 123 10 145 15 68 16 103 14
115 -7z m-448 -43 c3 -18 7 -39 9 -47 3 -10 -9 -17 -40 -22 -23 -5 -52 -11
-62 -14 -16 -5 -19 -1 -19 22 0 37 9 48 43 57 15 4 30 13 33 21 11 26 32 16
36 -17z m6608 -53 c30 -8 92 -15 137 -15 46 0 83 -4 83 -9 0 -5 -5 -22 -10
-37 l-10 -26 -108 3 -107 4 -9 -62 c-12 -88 -8 -91 132 -109 45 -6 47 -9 32
-48 -9 -24 -14 -26 -67 -26 -32 0 -89 6 -128 12 -38 6 -88 12 -110 13 -62 3
-65 4 -65 23 0 9 14 55 30 101 17 46 30 96 30 111 0 15 5 42 11 60 11 31 13
32 58 27 25 -3 71 -13 101 -22z m-6330 -59 l0 -44 -67 -7 c-38 -4 -73 -11 -79
-16 -7 -5 -29 -11 -50 -14 -22 -2 -66 -9 -99 -15 -87 -15 -85 -15 -85 35 0 42
1 44 38 54 20 6 51 11 67 11 17 0 36 5 41 10 6 6 57 14 115 19 57 4 107 9 112
10 4 0 7 -19 7 -43z m6660 35 c0 -5 16 -15 35 -22 31 -11 35 -17 35 -47 0 -31
-2 -34 -22 -28 -13 3 -40 9 -61 12 -33 6 -38 10 -33 28 3 12 6 31 6 44 0 15 6
22 20 22 11 0 20 -4 20 -9z m-95 -107 c28 -3 64 -12 82 -20 17 -8 40 -14 52
-14 18 0 21 -6 21 -40 0 -22 -1 -43 -2 -47 -4 -10 -89 -4 -103 7 -10 8 -24 10
-155 29 -122 17 -122 17 -119 54 2 18 5 36 7 41 4 8 95 4 217 -10z m-1535 -42
c0 -10 -136 -10 -146 1 -4 4 27 7 69 7 43 0 77 -4 77 -8z m-5232 -51 c-3 -23
-9 -27 -58 -34 -30 -4 -71 -9 -90 -10 -33 -2 -35 0 -35 28 0 28 3 30 50 37 62
8 96 16 103 23 11 11 33 -20 30 -44z m4072 39 c0 -5 15 -10 34 -10 39 0 60
-19 24 -21 -13 -1 -28 -1 -35 0 -6 1 -14 -3 -18 -9 -3 -5 -15 -10 -25 -10 -16
0 -17 3 -7 30 11 29 27 41 27 20z m965 0 c-3 -5 -19 -10 -36 -10 -16 0 -29 5
-29 10 0 6 16 10 36 10 21 0 33 -4 29 -10z m-2115 -14 c0 -21 26 -67 33 -59 4
3 7 14 7 24 0 22 18 35 32 21 6 -6 12 -25 14 -42 2 -17 6 -36 9 -41 8 -13 0
-11 -42 6 -21 9 -40 12 -47 7 -14 -11 -122 0 -118 12 1 5 27 9 56 7 l55 -2
-12 30 c-6 17 -16 31 -22 31 -11 0 16 20 28 20 4 0 7 -6 7 -14z m1516 5 c-4
-5 0 -11 6 -14 22 -7 1 -19 -22 -12 -17 5 -19 10 -9 21 13 15 34 20 25 5z
m819 -20 c2 -11 0 -21 -6 -21 -5 0 -9 12 -9 27 0 30 9 27 15 -6z m-2042 8 c15
-6 27 -14 27 -18 0 -3 3 -16 6 -28 9 -31 -8 -29 -46 7 -27 26 -35 28 -53 18
-12 -6 -28 -19 -35 -30 -13 -17 -52 -26 -52 -10 1 15 26 39 48 46 12 4 22 11
22 14 0 13 53 13 83 1z m107 -5 c0 -8 -4 -12 -10 -9 -5 3 -10 10 -10 16 0 5 5
9 10 9 6 0 10 -7 10 -16z m644 -6 c-4 -13 -6 -38 -5 -57 1 -18 -3 -38 -8 -45
-5 -6 -11 -22 -14 -36 -2 -14 -3 -6 -2 17 1 23 -3 47 -9 54 -8 8 -8 13 2 16
17 6 15 42 -3 49 -26 10 -16 24 16 24 27 0 30 -2 23 -22z m-499 3 c-3 -5 5
-11 17 -13 31 -4 35 -33 6 -43 -21 -7 -20 -8 14 -18 25 -7 38 -17 42 -33 4
-14 15 -24 29 -26 17 -2 23 -11 25 -34 2 -22 9 -34 23 -37 10 -3 19 -10 19
-17 0 -17 -72 -1 -90 20 -8 10 -26 20 -40 22 -29 4 -36 43 -8 43 10 0 23 6 29
12 17 17 -27 33 -61 22 -45 -13 -96 -20 -80 -10 21 14 5 24 -18 12 -26 -14
-54 -4 -50 17 2 11 15 16 43 17 38 0 40 2 40 30 0 24 4 30 22 30 11 0 25 3 29
8 10 10 16 9 9 -2z m820 0 c25 -6 15 -10 -70 -30 -55 -13 -106 -26 -112 -28
-7 -3 -13 0 -13 6 0 6 8 11 18 11 9 1 35 12 57 25 41 24 67 28 120 16z m-614
-24 c-1 -12 -15 -9 -19 4 -3 6 1 10 8 8 6 -3 11 -8 11 -12z m722 -1 c6 -15 -1
-26 -15 -26 -4 0 -8 9 -8 20 0 23 15 27 23 6z m-2626 -2 c-3 -3 -12 -4 -19 -1
-8 3 -5 6 6 6 11 1 17 -2 13 -5z m657 -19 c-6 -16 -24 -21 -24 -7 0 11 11 22
21 22 5 0 6 -7 3 -15z m-459 -5 c3 -5 -1 -10 -9 -10 -9 0 -16 5 -16 10 0 6 4
10 9 10 6 0 13 -4 16 -10z m2670 0 c-28 -12 -85 -12 -85 0 0 6 24 10 53 9 38
0 47 -3 32 -9z m218 -11 c-3 -11 -11 -18 -19 -15 -7 3 -16 1 -19 -4 -4 -6 4
-10 17 -11 13 -1 4 -5 -20 -11 -41 -9 -74 -1 -42 10 8 3 23 16 35 28 26 30 55
32 48 3z m-964 2 c15 -10 7 -31 -13 -31 -8 0 -19 6 -25 13 -19 23 9 36 38 18z
m815 -22 c-6 -10 -38 -12 -47 -3 -3 3 -3 12 0 19 4 11 10 11 29 3 13 -6 21
-15 18 -19z m2171 2 c48 -6 50 -7 53 -40 l3 -33 -73 7 c-114 12 -131 22 -107
66 8 17 16 19 42 13 18 -4 55 -9 82 -13z m-4802 -16 c-7 -19 -33 -20 -33 -1 0
15 20 26 32 19 4 -2 5 -10 1 -18z m-3069 -102 c-4 -65 -11 -127 -17 -138 -22
-44 -153 -159 -239 -209 l-47 -27 -7 28 c-6 30 -41 157 -50 184 -3 10 4 19 20
27 23 10 164 108 176 122 3 3 27 24 54 45 28 22 61 50 74 63 14 12 29 22 34
22 5 0 6 -50 2 -117z m1214 112 c-3 -3 -19 -10 -36 -14 -23 -7 -34 -6 -43 5
-10 12 -4 14 36 14 27 0 46 -2 43 -5z m2996 -16 c-3 -5 -14 -9 -25 -9 -11 0
-28 -7 -36 -16 -14 -13 -14 -17 -2 -25 8 -5 9 -9 3 -9 -7 0 -19 11 -28 25 -13
19 -14 28 -5 38 13 14 102 10 93 -4z m822 6 c19 -14 19 -14 -2 -15 -12 0 -27
-7 -34 -15 -16 -20 -30 -19 -30 1 0 15 26 43 41 44 3 0 14 -7 25 -15z m-966
-4 c0 -14 -38 -24 -52 -14 -9 5 -3 10 17 14 17 4 31 7 33 8 1 0 2 -3 2 -8z
m2179 -10 c31 -23 14 -34 -30 -18 -44 15 -42 14 -34 26 9 16 37 13 64 -8z
m-5206 -6 c-1 -5 -19 -14 -40 -18 -21 -5 -46 -13 -55 -18 -10 -5 -24 -9 -33
-9 -18 0 -31 -48 -17 -62 7 -7 33 -7 87 1 91 13 112 14 100 3 -6 -5 -44 -15
-85 -21 -41 -7 -86 -17 -100 -21 -14 -5 -40 -12 -57 -15 -37 -7 -37 -7 -27 80
6 48 8 51 45 63 21 7 53 12 71 13 18 0 42 4 53 9 25 11 61 8 58 -5z m9683 0
c4 -8 12 -15 20 -15 8 0 14 -7 14 -15 0 -22 -57 -19 -87 5 l-25 20 23 9 c35
14 49 13 55 -4z m-5606 -10 c-7 -9 -15 -13 -17 -11 -7 7 7 26 19 26 6 0 6 -6
-2 -15z m148 -13 c2 -16 10 -22 28 -22 36 0 28 -34 -9 -38 -27 -3 -35 -16 -17
-27 6 -4 7 -11 4 -17 -5 -7 -10 -3 -15 10 -6 16 -17 22 -39 22 -20 0 -38 9
-52 25 -12 14 -28 25 -36 25 -11 0 -11 2 1 14 8 8 23 13 33 10 11 -3 33 2 49
10 36 19 49 16 53 -12z m660 1 c4 -27 -16 -31 -25 -5 -4 9 -11 21 -17 25 -6 4
0 7 14 5 17 -2 26 -10 28 -25z m-4773 -12 c-11 -5 -40 -11 -65 -14 l-45 -6 45
13 c25 8 54 14 65 14 l20 1 -20 -8z m4240 -1 c3 -5 1 -10 -4 -10 -6 0 -11 5
-11 10 0 6 2 10 4 10 3 0 8 -4 11 -10z m893 -33 c4 -7 14 -32 21 -57 7 -25 17
-58 22 -74 11 -37 10 -115 -2 -141 -7 -15 -8 -10 -6 22 1 23 -1 39 -5 37 -5
-3 -8 3 -9 13 0 11 -3 13 -6 5 -3 -9 -9 -10 -18 -2 -10 8 -72 9 -137 1 -16 -2
-38 -34 -38 -57 0 -27 -8 -29 -45 -12 -31 14 -37 68 -7 68 14 0 13 3 -6 18
-13 10 -20 21 -16 25 4 4 13 2 21 -5 8 -6 40 -11 71 -10 31 1 63 -2 70 -7 14
-9 62 8 62 22 0 7 -24 11 -43 8 -5 -1 -11 8 -14 19 -6 21 -23 26 -39 10 -6 -6
-27 -4 -59 6 -28 8 -57 13 -66 11 -9 -3 -23 -1 -30 3 -18 12 15 60 41 60 10 0
25 8 32 18 14 20 50 42 67 42 6 0 11 -13 11 -28 0 -33 7 -43 24 -36 6 2 11 17
10 32 0 16 5 29 15 33 19 7 66 -7 79 -24z m-1168 2 c0 -5 -4 -9 -10 -9 -5 0
-10 7 -10 16 0 8 5 12 10 9 6 -3 10 -10 10 -16z m3897 -209 c7 -6 28 -18 48
-27 31 -15 36 -21 31 -43 -9 -42 -49 -195 -52 -199 -11 -13 -191 118 -262 192
-34 35 -34 35 -40 162 -4 70 -6 128 -4 130 3 2 70 -49 279 -215z m-4717 195
c0 -8 -4 -15 -10 -15 -5 0 -10 7 -10 15 0 8 5 15 10 15 6 0 10 -7 10 -15z
m180 5 c0 -5 9 -10 19 -10 20 0 51 -25 51 -41 0 -5 -11 -11 -24 -15 -17 -4
-26 -14 -28 -32 -2 -21 -9 -28 -30 -30 -25 -3 -28 0 -28 27 0 24 4 31 19 31
35 0 33 19 -3 37 -44 21 -47 43 -6 43 17 0 30 -4 30 -10z m6187 -27 c-3 -10
-5 -4 -5 12 0 17 2 24 5 18 2 -7 2 -21 0 -30z m-6443 11 c3 -8 2 -12 -4 -9 -6
3 -10 10 -10 16 0 14 7 11 14 -7z m3581 -4 c28 -4 67 -13 88 -19 l37 -12 0
-66 0 -65 -32 5 c-90 15 -139 27 -157 36 -11 6 -33 11 -50 11 -17 0 -31 5 -31
10 0 13 13 12 80 -3 65 -14 109 -11 117 9 8 22 -25 53 -66 60 -41 7 -91 26
-91 35 0 13 16 20 35 14 11 -4 43 -11 70 -15z m-2776 -13 c8 -10 6 -19 -10
-35 -21 -23 -54 -28 -79 -12 -13 8 -12 10 3 10 10 0 21 8 24 18 12 32 42 42
62 19z m638 7 c-3 -3 -12 -4 -19 -1 -8 3 -5 6 6 6 11 1 17 -2 13 -5z m59 -9
c-22 -16 -46 -20 -46 -7 0 15 13 22 39 22 25 -1 25 -1 7 -15z m-4181 -27 c-4
-18 -10 -55 -14 -83 l-6 -50 -50 -12 c-27 -6 -67 -12 -88 -12 -53 -1 -43 21
13 31 56 10 67 20 52 53 -17 37 -56 49 -127 37 -63 -10 -75 -8 -58 9 14 14 73
29 157 39 37 5 71 12 74 15 3 3 16 5 30 5 23 0 24 -3 17 -32z m4349 16 c9 -24
0 -28 -23 -12 -12 8 -18 18 -14 21 12 12 31 7 37 -9z m-2067 0 c-3 -3 -12 -4
-19 -1 -8 3 -5 6 6 6 11 1 17 -2 13 -5z m253 -4 c18 -12 2 -12 -25 0 -13 6
-15 9 -5 9 8 0 22 -4 30 -9z m76 1 c-9 -14 15 -28 60 -36 25 -4 50 -16 63 -30
20 -24 20 -25 2 -35 -14 -7 -27 -6 -48 5 -19 10 -22 15 -10 15 15 0 15 3 5 20
-16 25 -42 26 -68 0 -22 -22 -50 -22 -73 2 -18 18 -13 28 16 28 14 0 18 5 14
20 -4 16 0 20 20 20 13 0 22 -4 19 -9z m3543 -27 c3 -4 -12 -4 -34 0 -56 10
-75 16 -75 25 0 9 99 -14 109 -25z m-8826 -46 c78 -40 143 -72 144 -73 1 0 -7
-25 -17 -55 -11 -30 -25 -88 -31 -127 -8 -45 -18 -73 -25 -73 -21 0 -137 71
-170 105 -27 26 -33 40 -38 95 -12 144 -15 200 -10 200 3 0 69 -32 147 -72z
m4718 62 c20 0 8 -31 -16 -40 -47 -18 -28 -31 43 -29 75 1 136 24 128 46 -9
24 24 27 40 4 16 -22 44 -29 44 -11 0 16 37 11 44 -6 11 -29 6 -34 -29 -34
-19 0 -35 -4 -35 -10 0 -5 -4 -10 -10 -10 -5 0 -10 7 -10 15 0 22 -21 18 -27
-4 -6 -25 -29 -34 -54 -20 -29 15 -124 8 -124 -10 0 -8 -12 -18 -27 -22 -25
-6 -28 -5 -28 17 0 22 -3 23 -52 20 -29 -2 -54 -9 -56 -14 -2 -6 -15 -6 -38 1
-30 9 -37 8 -57 -11 -30 -29 -45 -28 -57 4 -15 39 -13 42 33 43 129 3 152 6
155 23 3 13 10 16 33 11 25 -5 29 -2 29 16 0 12 4 20 9 16 5 -3 13 0 16 6 4 5
14 8 22 5 8 -3 19 -6 24 -6z m354 -20 c3 -5 -1 -10 -9 -10 -9 0 -16 5 -16 10
0 6 4 10 9 10 6 0 13 -4 16 -10z m-4507 -52 c11 -50 42 -292 42 -332 0 -14 -8
-8 -29 21 -40 56 -68 73 -117 73 -57 0 -144 -60 -182 -125 -10 -17 -11 -13
-11 30 0 96 35 326 52 342 15 15 132 41 192 42 l40 1 13 -52z m6387 26 c13 -5
14 -8 3 -15 -8 -6 3 -9 31 -9 57 0 49 -9 -9 -10 -46 -1 -135 17 -93 19 12 1
25 6 28 11 7 12 17 12 40 4z m-4680 -26 c-22 -5 -64 -15 -92 -24 -43 -12 -53
-19 -53 -37 0 -44 15 -52 92 -51 40 1 98 5 128 9 31 4 51 4 47 -1 -9 -9 -82
-27 -187 -45 -36 -6 -105 -25 -154 -41 -48 -16 -94 -27 -102 -24 -10 4 -14 27
-14 90 l0 85 38 10 c58 16 305 48 322 42 8 -3 -3 -9 -25 -13z m-1560 -19 c0
-7 -8 -15 -17 -17 -18 -3 -25 18 -11 32 10 10 28 1 28 -15z m1803 13 c12 -8
-20 -18 -140 -43 -29 -6 -74 -17 -100 -24 -39 -12 -52 -12 -73 -1 -24 13 -23
13 28 24 28 6 84 17 122 23 39 7 77 16 85 20 19 11 61 11 78 1z m2635 -8 c44
-7 50 -24 8 -24 -20 0 -32 -6 -36 -19 -4 -12 -19 -21 -43 -25 -61 -11 -92 -27
-92 -47 0 -25 -11 -24 -33 1 -21 25 -22 60 -2 60 8 0 15 6 15 14 0 8 15 24 33
35 32 22 51 23 150 5z m677 6 c0 -5 -2 -10 -4 -10 -3 0 -8 5 -11 10 -3 6 -1
10 4 10 6 0 11 -4 11 -10z m1025 -5 c0 -5 -10 -11 -22 -13 -16 -2 -23 2 -23
13 0 11 7 15 23 13 12 -2 22 -7 22 -13z m262 3 c-9 -5 -9 -14 0 -37 9 -24 8
-31 -3 -35 -18 -7 -45 4 -38 15 3 5 -2 12 -10 15 -9 3 -15 16 -14 29 2 21 7
24 40 22 21 -1 32 -4 25 -9z m1363 -6 c91 -12 130 -26 130 -48 0 -13 -3 -14
-15 -4 -8 6 -42 13 -76 13 -53 2 -64 -1 -80 -22 -33 -41 -18 -68 43 -78 41 -6
57 -20 34 -29 -28 -11 -166 27 -167 46 -3 42 -8 78 -15 109 l-7 33 39 -5 c22
-3 73 -10 114 -15z m2659 -205 c-13 -73 -20 -81 -129 -154 -67 -44 -89 -47
-95 -15 -3 15 -16 74 -30 132 -21 82 -23 106 -13 109 7 2 72 34 143 70 l130
67 3 -71 c2 -38 -2 -101 -9 -138z m-4690 164 c11 -20 5 -31 -16 -31 -7 0 -13
11 -13 25 0 29 15 33 29 6z m381 10 c0 -5 -7 -12 -16 -15 -24 -9 -28 -7 -14 9
14 17 30 20 30 6z m-1923 -7 c-3 -3 -12 -4 -19 -1 -8 3 -5 6 6 6 11 1 17 -2
13 -5z m734 -11 c32 -17 32 -18 11 -21 -32 -5 -52 4 -52 23 0 19 0 19 41 -2z
m959 2 c11 -13 8 -15 -14 -15 -25 0 -33 10 -19 23 10 11 19 8 33 -8z m-1365
-5 c4 -6 -5 -10 -19 -10 -14 0 -26 5 -26 10 0 6 9 10 19 10 11 0 23 -4 26 -10z
m119 -5 c4 -10 -1 -15 -17 -16 -22 -1 -22 -1 1 -7 20 -6 32 -22 17 -22 -23 -1
-57 16 -66 33 -10 18 -9 19 10 14 11 -3 21 -1 21 4 0 15 27 10 34 -6z m225 1
c10 -12 8 -13 -9 -9 -25 7 -37 23 -17 23 8 0 20 -6 26 -14z m-1189 0 c0 -3 -4
-8 -10 -11 -5 -3 -10 -1 -10 4 0 6 5 11 10 11 6 0 10 -2 10 -4z m2585 -7 c-4
-6 -13 -8 -21 -5 -8 3 -14 -1 -14 -9 0 -8 -4 -15 -8 -15 -4 0 -8 9 -8 20 0 15
7 20 29 20 17 0 26 -4 22 -11z m-2465 -14 c0 -8 -7 -15 -15 -15 -26 0 -18 20
13 29 1 1 2 -6 2 -14z m2311 -30 c9 -3 20 -12 23 -20 8 -21 -28 -20 -49 1 -22
22 -93 11 -75 -12 7 -8 26 -14 43 -14 17 0 27 -3 23 -7 -4 -4 -19 -7 -34 -8
-20 0 -27 -5 -27 -20 0 -15 8 -21 34 -25 l33 -5 -21 -19 c-11 -11 -21 -22 -21
-27 0 -4 27 -10 60 -14 63 -7 77 -19 35 -29 -15 -4 -34 0 -49 9 -13 9 -31 13
-40 9 -10 -4 -16 -1 -16 7 -1 10 -5 9 -14 -4 -17 -22 -26 -4 -19 35 4 23 2 25
-20 21 -14 -3 -28 1 -32 7 -5 9 -1 10 14 5 27 -8 28 10 1 32 -27 23 -25 40 5
47 18 5 25 13 25 29 0 20 4 23 28 19 18 -2 33 2 42 13 13 16 15 16 24 -4 5
-11 17 -23 27 -26z m1969 38 c0 -5 27 -9 61 -11 33 -1 69 -7 79 -12 10 -6 37
-10 59 -10 70 0 71 -1 71 -106 0 -52 -4 -94 -9 -94 -5 0 -47 13 -93 29 -46 16
-105 32 -133 36 -27 4 -78 15 -112 26 -34 10 -71 19 -83 19 -11 0 -20 5 -20
10 0 14 25 13 100 -6 54 -14 73 -15 108 -5 42 12 65 40 55 68 -6 14 -93 43
-132 43 -17 0 -31 5 -31 10 0 6 18 10 40 10 22 0 40 -3 40 -7z m-8580 -27 c0
-14 -5 -28 -10 -31 -13 -8 -24 20 -16 40 9 24 26 17 26 -9z m4236 13 c3 -6 1
-16 -5 -22 -9 -9 -14 -8 -21 3 -5 8 -10 18 -10 23 0 11 28 8 36 -4z m791 -36
c-4 -17 -4 -17 -12 0 -4 9 -4 25 0 35 8 16 8 16 12 0 3 -10 3 -26 0 -35z
m2161 6 c7 -2 -3 -13 -22 -23 -22 -12 -41 -16 -53 -11 -17 8 -17 8 0 12 12 3
17 14 17 35 l0 31 23 -20 c12 -11 28 -22 35 -24z m1207 16 c22 -3 53 -10 69
-16 16 -5 43 -9 60 -9 17 -1 45 -7 61 -14 l30 -13 -36 -7 c-24 -5 -48 -3 -73
8 -21 9 -42 14 -46 11 -4 -3 -25 2 -45 11 -20 8 -47 14 -59 13 -29 -2 -85 12
-92 23 -6 10 47 7 131 -7z m1718 0 c7 -16 -8 -29 -23 -20 -15 9 -12 35 4 35 8
0 16 -7 19 -15z m-4887 -44 c-4 -6 -16 -11 -27 -11 -10 0 -19 -7 -19 -15 0
-13 -11 -15 -62 -13 -38 2 -63 8 -66 16 -2 6 4 12 14 12 10 0 31 4 48 9 95 30
129 30 112 2z m122 10 c3 -8 -1 -12 -9 -9 -7 2 -15 10 -17 17 -3 8 1 12 9 9 7
-2 15 -10 17 -17z m-688 -1 c0 -5 -7 -7 -15 -4 -8 4 -15 8 -15 10 0 2 7 4 15
4 8 0 15 -4 15 -10z m-2240 -15 c0 -11 -12 -15 -45 -15 -49 0 -62 16 -17 23
53 8 62 7 62 -8z m-167 -22 c4 -3 -24 -14 -63 -24 -38 -10 -78 -23 -90 -29
-25 -13 -28 -65 -4 -74 31 -12 149 -6 168 9 26 20 36 19 36 -4 0 -19 0 -19
-150 -46 -41 -8 -106 -20 -145 -28 -130 -27 -163 -28 -170 -9 -3 9 -26 32 -51
51 -25 18 -42 37 -37 42 10 10 155 47 228 59 64 10 111 23 155 43 36 16 111
22 123 10z m4377 -8 c0 -10 10 -15 26 -15 22 0 25 -2 14 -15 -14 -17 -40 -20
-40 -5 0 6 -7 10 -15 10 -8 0 -15 9 -15 20 0 11 7 20 15 20 8 0 15 -7 15 -15z
m375 5 c3 -5 -1 -10 -9 -10 -9 0 -16 5 -16 10 0 6 4 10 9 10 6 0 13 -4 16 -10z
m-2315 -10 c0 -5 -4 -10 -10 -10 -5 0 -10 5 -10 10 0 6 5 10 10 10 6 0 10 -4
10 -10z m1630 -15 c0 -14 5 -25 10 -25 6 0 10 -7 10 -15 0 -10 -10 -15 -29
-15 -16 0 -36 -2 -44 -5 -10 -5 -13 1 -9 25 2 17 10 30 18 30 8 0 17 7 20 15
9 24 24 17 24 -10z m4294 9 c8 -20 -1 -34 -20 -34 -8 0 -14 10 -14 25 0 28 24
34 34 9z m-4429 -8 c-18 -13 -18 -15 -2 -39 18 -27 10 -41 -17 -31 -11 4 -16
19 -16 45 0 36 2 39 27 39 25 0 26 -1 8 -14z m-3775 -6 c13 -8 13 -10 0 -14
-17 -6 -84 -16 -120 -19 -14 -2 -39 -8 -56 -15 -18 -8 -47 -12 -65 -10 -34 3
-34 3 18 21 28 9 61 17 72 17 11 0 22 4 26 10 3 5 11 7 18 4 8 -3 24 0 38 5
31 13 50 13 69 1z m4010 0 c0 -5 -7 -10 -16 -10 -8 0 -12 5 -9 10 3 6 10 10
16 10 5 0 9 -4 9 -10z m-1100 -11 c0 -7 8 -18 18 -25 15 -12 14 -13 -10 -14
-23 0 -28 4 -28 25 0 14 5 25 10 25 6 0 10 -5 10 -11z m1626 0 c8 -14 -11 -33
-25 -25 -11 7 -4 36 9 36 5 0 12 -5 16 -11z m243 -5 c2 -2 12 1 22 7 30 16 24
-25 -7 -55 -27 -25 -41 -25 -79 1 -11 7 -29 13 -40 13 -18 1 -18 2 -4 13 9 7
14 17 12 24 -3 8 9 10 44 6 26 -2 50 -6 52 -9z m-2229 -4 c0 -5 -5 -10 -11
-10 -5 0 -7 5 -4 10 3 6 8 10 11 10 2 0 4 -4 4 -10z m-223 -26 c2 -13 1 -15
-4 -4 -3 8 -11 19 -17 23 -7 6 -6 7 4 4 8 -2 16 -12 17 -23z m3518 5 c5 -5
-12 -9 -43 -9 -41 0 -52 3 -52 16 0 13 7 15 43 9 23 -4 46 -11 52 -16z m-2830
1 c3 -5 -1 -10 -10 -10 -9 0 -13 5 -10 10 3 6 8 10 10 10 2 0 7 -4 10 -10z
m-171 -15 c3 -8 1 -15 -4 -15 -6 0 -10 7 -10 15 0 8 2 15 4 15 2 0 6 -7 10
-15z m664 -6 c-19 -13 -28 -11 -28 5 0 9 7 12 21 9 16 -4 17 -8 7 -14z m-1486
-12 c3 -13 1 -34 -3 -45 -7 -19 -16 -22 -69 -22 -73 0 -72 15 1 25 30 4 46 10
39 15 -9 6 -9 12 -1 29 15 28 28 27 33 -2z m-2014 -4 c5 -18 -28 -29 -38 -12
-5 7 -6 17 -3 22 7 12 35 5 41 -10z m2769 2 c8 -22 -6 -33 -17 -15 -13 20 -12
30 0 30 6 0 13 -7 17 -15z m838 5 c-3 -5 -12 -10 -18 -10 -7 0 -6 4 3 10 19
12 23 12 15 0z m105 0 c0 -5 -4 -10 -10 -10 -5 0 -10 5 -10 10 0 6 5 10 10 10
6 0 10 -4 10 -10z m-5572 -27 c-5 -25 -28 -28 -28 -4 0 12 6 21 16 21 9 0 14
-7 12 -17z m6376 11 c9 -3 16 -9 16 -13 0 -10 -88 -34 -99 -26 -6 3 -11 1 -11
-5 0 -6 -8 -10 -17 -8 -10 2 -18 10 -18 18 0 11 10 15 34 13 19 -1 41 5 48 13
16 16 24 17 47 8z m1431 -35 c33 -10 68 -19 78 -19 9 0 17 -4 17 -10 0 -15
-73 -12 -112 5 -20 8 -65 17 -102 21 -48 5 -66 11 -66 21 0 12 11 14 63 8 34
-4 89 -16 122 -26z m-4645 12 c0 -14 -14 -16 -75 -13 -77 5 -69 22 10 22 36 0
65 -4 65 -9z m1004 -6 c11 -8 38 -16 60 -16 23 -1 33 -3 24 -6 -10 -2 -18 -9
-18 -14 0 -13 -107 -11 -116 2 -3 6 -1 15 6 19 7 4 9 13 6 19 -10 16 15 13 38
-4z m1746 -14 c0 -17 5 -33 11 -37 17 -10 -17 -26 -41 -19 -11 4 -20 11 -20
16 0 5 -12 9 -27 9 -26 1 -27 2 -10 14 13 10 15 16 7 21 -18 11 8 25 48 25 29
0 32 -3 32 -29z m645 19 c3 -6 -1 -13 -10 -16 -13 -5 -13 -9 -3 -21 7 -9 21
-19 33 -23 18 -8 17 -9 -7 -9 -30 -1 -81 40 -60 47 7 2 12 10 12 18 0 16 26
19 35 4z m105 -10 c0 -11 -4 -20 -10 -20 -5 0 -10 9 -10 20 0 11 5 20 10 20 6
0 10 -9 10 -20z m-2673 -1 c-14 -8 -22 -8 -30 0 -8 8 -3 11 19 11 25 -1 27 -2
11 -11z m838 1 c3 -5 1 -10 -4 -10 -6 0 -11 5 -11 10 0 6 2 10 4 10 3 0 8 -4
11 -10z m945 0 c0 -5 -7 -10 -15 -10 -8 0 -15 5 -15 10 0 6 7 10 15 10 8 0 15
-4 15 -10z m655 0 c3 -5 2 -10 -4 -10 -5 0 -13 5 -16 10 -3 6 -2 10 4 10 5 0
13 -4 16 -10z m-1947 -22 c29 -29 -1 -52 -37 -29 -12 8 -12 12 -2 25 16 19 23
20 39 4z m1992 -3 c-12 -15 -30 -12 -30 6 0 5 10 9 21 9 18 0 19 -2 9 -15z
m-2530 -5 c0 -5 -5 -10 -11 -10 -5 0 -7 5 -4 10 3 6 8 10 11 10 2 0 4 -4 4
-10z m1015 0 c3 -5 -3 -10 -14 -10 -12 0 -21 5 -21 10 0 6 6 10 14 10 8 0 18
-4 21 -10z m-670 -38 c34 -16 32 -34 -2 -26 -49 10 -53 13 -53 33 0 22 23 35
28 16 2 -7 14 -17 27 -23z m-4899 -8 c-4 -12 -10 -14 -17 -7 -5 5 -7 17 -3 27
4 12 10 14 17 7 5 -5 7 -17 3 -27z m5206 18 c-7 -2 -12 -10 -12 -18 0 -15 39
-14 115 1 13 3 25 -3 33 -16 12 -18 11 -20 -5 -15 -28 9 -74 9 -120 1 -43 -7
-43 -7 -43 22 0 35 7 44 28 35 10 -4 12 -7 4 -10z m545 2 c4 -12 -42 -36 -51
-27 -3 3 -1 14 5 25 11 20 40 21 46 2z m2513 7 c0 -13 -26 -32 -33 -24 -14 13
-6 33 13 33 11 0 20 -4 20 -9z m-3782 -31 c3 -32 -3 -35 -42 -20 -46 17 -32
41 29 49 6 0 12 -12 13 -29z m2565 13 c4 -2 7 -9 7 -14 0 -6 -15 -7 -37 -3
-45 8 -47 9 -38 23 5 10 46 6 68 -6z m3062 -6 c0 -26 -20 -25 -23 2 -3 16 1
22 10 19 7 -3 13 -12 13 -21z m-5427 -10 c2 -10 -3 -17 -12 -17 -10 0 -16 9
-16 21 0 24 23 21 28 -4z m-2200 -5 c2 -7 -3 -12 -12 -12 -9 0 -16 7 -16 16 0
17 22 14 28 -4z m4499 -8 c-3 -3 -12 -4 -19 -1 -8 3 -5 6 6 6 11 1 17 -2 13
-5z"/>
<path d="M3393 6015 c-7 -8 -13 -16 -13 -19 0 -9 50 9 50 19 1 16 -24 16 -37
0z"/>
<path d="M2750 5995 c7 -9 15 -13 17 -11 7 7 -7 26 -19 26 -6 0 -6 -6 2 -15z"/>
<path d="M3308 5243 c-10 -2 -18 -5 -19 -6 0 -1 -2 -20 -5 -43 -7 -54 12 -74
70 -74 35 0 45 4 53 23 10 22 0 82 -15 90 -14 9 -67 15 -84 10z m66 -77 c-3
-9 -17 -16 -30 -16 -20 0 -24 5 -24 29 0 16 6 31 13 34 17 6 48 -29 41 -47z"/>
<path d="M9386 5128 c-34 -48 -7 -108 47 -108 47 1 67 20 67 67 0 49 -14 63
-61 63 -28 0 -42 -6 -53 -22z m69 -43 c0 -35 -16 -42 -33 -14 -10 16 -11 24
-1 35 18 22 34 11 34 -21z"/>
<path d="M5618 4594 c-2 -28 2 -53 9 -63 12 -15 14 -14 28 3 10 13 11 24 5 37
-6 10 -10 29 -10 43 0 16 -6 26 -14 26 -9 0 -15 -15 -18 -46z"/>
<path d="M12623 4883 c-15 -5 -18 -83 -4 -83 5 0 11 20 13 45 2 25 3 45 3 44
0 0 -6 -3 -12 -6z"/>
<path d="M2501 4277 c-26 -13 -49 -43 -40 -52 4 -3 20 2 37 12 25 14 32 15 46
4 9 -7 16 -21 16 -30 1 -23 24 -51 44 -51 20 0 21 23 1 40 -8 7 -15 18 -15 25
0 17 -39 65 -53 65 -7 0 -23 -6 -36 -13z"/>
<path d="M10214 4163 c-9 -16 -26 -41 -36 -56 -14 -21 -17 -32 -9 -40 14 -14
38 7 56 50 14 34 41 43 62 22 6 -6 19 -9 29 -7 17 3 16 6 -8 31 -36 36 -72 35
-94 0z"/>
<path d="M2863 3604 c-10 -27 2 -49 30 -52 24 -3 27 0 27 26 0 24 -5 31 -26
35 -16 3 -28 0 -31 -9z m37 -24 c0 -5 -4 -10 -10 -10 -5 0 -10 5 -10 10 0 6 5
10 10 10 6 0 10 -4 10 -10z"/>
<path d="M9862 3488 c2 -25 8 -32 29 -35 29 -4 44 17 34 48 -4 13 -16 19 -36
19 -28 0 -30 -2 -27 -32z"/>
<path d="M6150 4008 c0 -8 7 -23 15 -34 14 -19 14 -19 15 2 0 12 -7 27 -15 34
-12 10 -15 10 -15 -2z"/>
<path d="M7570 3320 c-35 -7 -35 -7 18 -15 28 -4 52 -11 52 -16 0 -5 13 -9 29
-9 21 0 32 6 36 19 3 12 17 22 33 24 15 2 -9 4 -53 4 -44 0 -96 -3 -115 -7z"/>
<path d="M5540 3290 c0 -5 5 -10 10 -10 6 0 10 5 10 10 0 6 -4 10 -10 10 -5 0
-10 -4 -10 -10z"/>
<path d="M4958 2345 c-3 -3 -37 -10 -74 -15 -38 -4 -87 -13 -109 -20 -22 -6
-53 -12 -70 -13 -22 -1 -30 -7 -30 -21 0 -26 57 -42 94 -27 14 6 47 12 73 13
25 2 44 7 41 11 -3 4 1 14 7 22 10 12 10 15 0 15 -8 0 -11 2 -8 5 3 3 17 0 32
-6 22 -11 29 -10 43 3 8 9 14 21 11 28 -2 6 -6 9 -10 5z"/>
<path d="M4945 2210 c-3 -5 3 -10 14 -10 12 0 21 5 21 10 0 6 -6 10 -14 10 -8
0 -18 -4 -21 -10z"/>
<path d="M5232 2209 c-28 -11 -28 -17 2 -29 36 -13 98 -1 94 18 -3 18 -60 24
-96 11z"/>
<path d="M5850 2200 c20 -13 53 -13 45 0 -3 6 -18 10 -33 10 -21 0 -24 -2 -12
-10z"/>
<path d="M5143 2193 c9 -2 25 -2 35 0 9 3 1 5 -18 5 -19 0 -27 -2 -17 -5z"/>
<path d="M5466 2184 c-16 -11 -22 -11 -28 -1 -6 9 -8 8 -8 -4 0 -29 25 -48 69
-53 52 -6 81 7 81 35 0 26 -29 37 -45 16 -10 -15 -13 -14 -31 3 -17 17 -21 17
-38 4z"/>
<path d="M4856 2181 c-3 -4 6 -6 19 -3 14 2 25 6 25 8 0 8 -39 4 -44 -5z"/>
<path d="M6840 2104 c0 -17 22 -14 28 4 2 7 -3 12 -12 12 -9 0 -16 -7 -16 -16z"/>
<path d="M7808 2093 c7 -3 16 -2 19 1 4 3 -2 6 -13 5 -11 0 -14 -3 -6 -6z"/>
<path d="M5478 2083 c7 -3 16 -2 19 1 4 3 -2 6 -13 5 -11 0 -14 -3 -6 -6z"/>
<path d="M5705 2079 c-110 -18 -130 -20 -118 -12 8 6 -8 8 -39 7 -28 -2 -56
-8 -61 -13 -6 -6 -19 -11 -29 -11 -11 0 -15 -5 -12 -15 7 -18 0 -19 -26 -3
-16 10 -23 9 -41 -7 -11 -11 -31 -19 -43 -17 -17 2 -18 1 -5 -7 8 -6 47 -13
85 -16 38 -4 90 -11 117 -16 65 -12 314 -13 354 0 17 5 34 7 37 5 3 -2 4 -1 1
3 -3 3 0 12 6 19 8 10 7 17 -4 29 -9 8 -18 24 -22 34 -3 10 -16 22 -28 25 -29
8 -109 5 -172 -5z"/>
<path d="M4723 2039 c-18 -12 -33 -25 -33 -29 0 -5 41 -7 92 -5 61 2 105 -1
132 -10 31 -11 44 -11 56 -2 8 6 17 13 19 14 2 2 -4 12 -14 23 -21 23 -55 29
-36 7 16 -21 1 -29 -24 -13 -12 8 -43 14 -69 14 -26 -1 -52 4 -58 10 -17 17
-28 15 -65 -9z"/>
<path d="M5980 2015 c10 -12 9 -15 -6 -15 -11 -1 -1 -7 20 -15 31 -11 44 -11
60 -2 12 6 26 10 31 8 9 -3 90 -9 143 -10 13 -1 20 -5 17 -11 -4 -7 24 -8 82
-4 48 3 121 6 161 6 71 1 93 10 50 22 -13 3 -73 6 -134 6 -79 0 -120 4 -140
15 -22 11 -64 15 -163 15 -117 0 -132 -2 -121 -15z"/>
<path d="M5033 1993 c9 -2 25 -2 35 0 9 3 1 5 -18 5 -19 0 -27 -2 -17 -5z"/>
<path d="M5243 1993 c9 -2 23 -2 30 0 6 3 -1 5 -18 5 -16 0 -22 -2 -12 -5z"/>
<path d="M4953 1176 c4 -14 47 -21 47 -8 0 5 -11 12 -25 15 -16 3 -24 0 -22
-7z"/>
<path d="M5998 1153 c7 -3 16 -2 19 1 4 3 -2 6 -13 5 -11 0 -14 -3 -6 -6z"/>
<path d="M8035 1150 c-3 -5 3 -10 15 -10 12 0 18 5 15 10 -3 6 -10 10 -15 10
-5 0 -12 -4 -15 -10z"/>
<path d="M6848 1143 c6 -2 18 -2 25 0 6 3 1 5 -13 5 -14 0 -19 -2 -12 -5z"/>
<path d="M6910 1135 c7 -8 17 -15 22 -15 6 0 5 7 -2 15 -7 8 -17 15 -22 15 -6
0 -5 -7 2 -15z"/>
<path d="M7888 1136 c19 -6 49 -10 68 -8 47 6 40 8 -36 15 -59 4 -62 4 -32 -7z"/>
<path d="M8095 1134 c9 -9 18 -14 21 -11 9 9 -6 27 -22 27 -13 0 -13 -2 1 -16z"/>
<path d="M7345 1110 c3 -5 8 -10 11 -10 2 0 4 5 4 10 0 6 -5 10 -11 10 -5 0
-7 -4 -4 -10z"/>
<path d="M7225 1099 c-10 -15 1 -23 20 -15 9 3 13 10 10 16 -8 13 -22 13 -30
-1z"/>
<path d="M7085 1091 c-18 -7 -17 -8 5 -12 34 -6 70 0 70 12 0 11 -47 11 -75 0z"/>
<path d="M6960 1070 c0 -5 5 -10 11 -10 5 0 7 5 4 10 -3 6 -8 10 -11 10 -2 0
-4 -4 -4 -10z"/>
<path d="M6596 1051 c-6 -10 26 -21 62 -21 25 0 30 15 6 24 -23 9 -62 7 -68
-3z"/>
<path d="M7265 1050 c3 -5 8 -10 11 -10 2 0 4 5 4 10 0 6 -5 10 -11 10 -5 0
-7 -4 -4 -10z"/>
<path d="M6878 1003 c7 -3 16 -2 19 1 4 3 -2 6 -13 5 -11 0 -14 -3 -6 -6z"/>
<path d="M7673 1003 c-24 -2 -43 -7 -43 -12 0 -4 37 -12 82 -19 78 -11 84 -11
102 8 20 20 20 20 -11 20 -17 0 -43 2 -59 4 -16 2 -48 1 -71 -1z"/>
<path d="M5025 990 c4 -6 11 -8 16 -5 14 9 11 15 -7 15 -8 0 -12 -5 -9 -10z"/>
<path d="M7563 913 c9 -2 23 -2 30 0 6 3 -1 5 -18 5 -16 0 -22 -2 -12 -5z"/>
<path d="M8285 500 c-3 -5 -4 -10 -1 -10 2 0 11 -3 20 -6 11 -4 16 -1 16 10 0
18 -25 22 -35 6z"/>
<path d="M12723 6013 c15 -2 39 -2 55 0 15 2 2 4 -28 4 -30 0 -43 -2 -27 -4z"/>
<path d="M12780 956 c0 -8 5 -18 10 -21 6 -3 10 3 10 14 0 12 -4 21 -10 21 -5
0 -10 -6 -10 -14z"/>
<path d="M5220 806 c18 -17 60 -30 60 -19 0 9 -47 33 -64 33 -6 0 -4 -6 4 -14z"/>
<path d="M5120 790 c0 -5 -2 -14 -5 -22 -4 -10 7 -13 45 -13 51 0 64 8 33 19
-55 19 -73 23 -73 16z"/>
<path d="M12755 760 c3 -5 8 -10 11 -10 2 0 4 5 4 10 0 6 -5 10 -11 10 -5 0
-7 -4 -4 -10z"/>
<path d="M4687 724 c-3 -4 -21 -8 -39 -10 -53 -7 -70 -14 -64 -31 3 -8 6 -24
6 -35 0 -18 4 -19 36 -13 25 4 39 2 44 -6 5 -6 13 -8 20 -4 10 6 9 11 -4 21
-16 11 -14 15 23 34 48 24 55 50 13 50 -16 0 -31 -3 -35 -6z"/>
<path d="M4550 709 c0 -5 5 -7 10 -4 6 3 10 8 10 11 0 2 -4 4 -10 4 -5 0 -10
-5 -10 -11z"/>
<path d="M5150 640 c0 -17 -5 -30 -12 -30 -7 0 -4 -6 6 -12 15 -8 22 -7 31 6
16 21 32 20 47 -4 15 -23 26 -25 51 -6 26 20 11 46 -28 46 -18 0 -38 7 -45 15
-7 8 -21 15 -31 15 -14 0 -19 -7 -19 -30z"/>
<path d="M4490 580 c0 -5 14 -10 31 -10 17 0 28 4 24 10 -3 6 -17 10 -31 10
-13 0 -24 -4 -24 -10z"/>
<path d="M5196 559 c-14 -9 -16 -13 -5 -20 14 -8 39 6 39 22 0 12 -11 11 -34
-2z"/>
<path d="M4622 539 c-12 -5 -22 -15 -22 -23 0 -8 -9 -18 -20 -21 -28 -9 -26
-37 3 -33 12 2 20 7 19 12 -2 5 1 12 8 16 17 10 110 12 110 1 0 -11 88 -13 95
-2 8 14 -22 32 -61 36 -20 2 -40 8 -43 14 -7 12 -57 12 -89 0z"/>
<path d="M4949 524 c46 -14 58 -13 46 5 -3 6 -25 11 -48 10 l-42 -1 44 -14z"/>
<path d="M5015 520 c-3 -6 1 -13 10 -16 19 -8 30 0 20 15 -8 14 -22 14 -30 1z"/>
<path d="M5093 501 c-2 -10 -21 -26 -41 -36 -33 -17 -35 -19 -14 -23 25 -4 30
-27 6 -36 -22 -8 -26 -8 -19 4 11 18 -32 10 -49 -9 -20 -21 -14 -43 9 -35 7 3
23 1 34 -6 18 -9 21 -8 21 10 0 11 6 22 13 24 6 2 28 9 47 15 60 22 64 20 68
-28 3 -41 2 -43 -20 -37 -13 3 -27 6 -32 6 -4 0 -6 7 -2 15 4 11 -1 15 -18 15
-32 0 -37 -9 -20 -35 11 -17 12 -24 3 -27 -18 -6 -1 -28 21 -28 11 0 20 -10
24 -25 8 -31 24 -32 56 -2 17 16 33 22 52 19 32 -5 38 13 8 21 -15 4 -20 14
-20 41 0 20 -5 36 -11 36 -7 0 -9 10 -7 25 3 13 1 22 -3 19 -5 -3 -9 4 -9 15
0 12 -3 21 -7 21 -5 0 -16 14 -25 30 -19 34 -57 41 -65 11z"/>
<path d="M4480 489 c0 -5 5 -7 10 -4 6 3 10 8 10 11 0 2 -4 4 -10 4 -5 0 -10
-5 -10 -11z"/>
<path d="M4640 450 c0 -6 7 -10 15 -10 8 0 15 2 15 4 0 2 -7 6 -15 10 -8 3
-15 1 -15 -4z"/>
<path d="M4922 434 c-10 -6 -29 -14 -42 -17 -14 -2 1 -4 33 -4 45 1 57 5 57
17 0 20 -23 22 -48 4z"/>
<path d="M4650 390 l-35 -19 33 -1 c43 0 81 18 61 31 -18 11 -18 11 -59 -11z"/>
<path d="M4846 351 c-7 -10 23 -20 42 -14 6 3 10 9 6 14 -7 12 -41 12 -48 0z"/>
<path d="M4997 333 c-10 -22 0 -48 21 -51 30 -5 28 -22 -3 -22 -14 0 -25 -4
-25 -9 0 -5 -3 -17 -7 -27 -5 -15 -2 -16 26 -11 22 5 31 3 30 -6 -5 -37 1 -43
36 -39 19 2 35 7 35 11 0 3 -16 17 -35 31 -19 14 -35 28 -35 33 0 4 18 7 41 7
27 0 38 4 33 11 -4 6 -19 9 -36 5 -26 -5 -29 -3 -23 15 9 28 -45 76 -58 52z"/>
<path d="M12746 285 c-5 -22 -17 -47 -28 -56 -23 -21 -23 -29 1 -29 30 0 42
25 39 77 l-3 48 -9 -40z"/>
<path d="M4618 303 c-13 -3 -16 -11 -11 -36 8 -46 18 -52 50 -30 20 14 36 18
59 13 32 -7 74 3 74 18 0 23 -120 47 -172 35z"/>
<path d="M5376 281 c-7 -11 22 -23 36 -15 6 4 5 10 -3 15 -18 11 -26 11 -33 0z"/>
<path d="M4532 265 c-47 -26 -48 -35 -5 -35 23 0 45 -4 48 -10 3 -5 14 -10 23
-10 15 1 14 3 -3 16 -11 8 -19 24 -17 34 4 23 -12 24 -46 5z"/>
<path d="M4562 18 c3 -7 22 -14 44 -16 37 -2 38 -1 20 13 -24 18 -69 20 -64 3z"/>
<path d="M4830 10 c0 -5 7 -10 15 -10 8 0 15 5 15 10 0 6 -7 10 -15 10 -8 0
-15 -4 -15 -10z"/>
</g>
</svg>
