<?xml version="1.0" standalone="no"?>
<!DOCTYPE svg PUBLIC "-//W3C//DTD SVG 20010904//EN"
 "http://www.w3.org/TR/2001/REC-SVG-20010904/DTD/svg10.dtd">
<svg version="1.0" xmlns="http://www.w3.org/2000/svg"
 width="747.000000pt" height="500.000000pt" viewBox="0 0 747.000000 500.000000"
 preserveAspectRatio="xMidYMid meet">

<g transform="translate(0.000000,500.000000) scale(0.100000,-0.100000)"
fill="#000000" stroke="none">
<path d="M0 2500 l0 -2500 3735 0 3735 0 0 2500 0 2500 -3735 0 -3735 0 0
-2500z m3617 1959 c2 -40 -2 -68 -11 -81 -15 -20 -11 -52 4 -43 17 10 20 -13
6 -40 -8 -16 -12 -41 -9 -60 4 -27 2 -34 -16 -40 -24 -7 -27 -27 -7 -44 10 -8
16 -9 21 -1 12 19 25 10 25 -16 0 -21 -4 -25 -20 -21 -13 3 -21 -1 -25 -14 -4
-11 -10 -17 -14 -15 -12 8 -7 -48 7 -62 17 -19 15 -34 -5 -30 -10 1 -24 -1
-30 -5 -10 -6 -13 1 -13 23 0 18 4 29 10 25 6 -4 5 5 -2 20 -7 17 -14 22 -19
14 -4 -7 -14 -9 -24 -6 -9 4 -27 -1 -41 -10 -19 -12 -28 -13 -37 -4 -6 6 -7
11 -2 11 5 0 -2 12 -16 26 -21 23 -24 35 -24 107 0 71 4 90 30 141 32 62 110
150 126 140 5 -3 9 -1 9 4 0 12 56 33 64 25 3 -4 6 -1 6 5 0 7 1 12 3 12 1 0
3 -28 4 -61z m27 -76 c4 -10 4 -14 0 -10 -4 4 -14 1 -22 -6 -13 -11 -14 -9 -1
11 17 26 15 26 23 5z m-893 -237 c16 -17 10 -23 -15 -19 -19 4 -25 -1 -35 -28
-6 -17 -11 -49 -11 -70 0 -40 -14 -59 -24 -33 -13 33 -5 72 29 143 19 40 36
85 37 99 1 15 3 2 5 -28 2 -30 8 -59 14 -64z m889 74 c0 -5 -5 -10 -11 -10 -5
0 -7 5 -4 10 3 6 8 10 11 10 2 0 4 -4 4 -10z m-646 -39 c17 -6 16 -9 -8 -25
-15 -9 -40 -38 -57 -64 -16 -25 -29 -43 -29 -40 0 26 56 139 68 137 4 0 15 -4
26 -8z m1676 2 c-1 -13 -40 -59 -40 -48 0 10 31 55 38 55 1 0 2 -3 2 -7z
m-1566 -9 c26 -10 18 -48 -16 -80 -27 -23 -29 -24 -10 -3 24 28 28 59 10 77
-13 13 -8 15 16 6z m1145 -4 c-9 -5 -28 -6 -45 0 -27 8 -26 8 16 9 32 0 40 -2
29 -9z m460 -67 c20 -81 22 -110 7 -122 -11 -9 -15 1 -20 60 -4 39 -10 77 -13
85 -3 8 0 14 6 14 5 0 14 -17 20 -37z m-372 -35 c12 -14 13 -18 3 -18 -17 0
-80 48 -80 61 0 12 55 -19 77 -43z m-1558 -5 c0 -21 -4 -47 -8 -58 -6 -13 -8
-1 -8 38 0 31 4 57 9 57 4 0 8 -17 7 -37z m1851 -5 c-1 -26 -3 -30 -10 -16 -6
9 -7 23 -4 32 9 25 14 19 14 -16z m-1625 -13 c-16 -8 -37 -14 -45 -14 -8 0 -1
7 15 14 17 8 37 14 45 14 8 0 2 -7 -15 -14z m988 -10 c-3 -9 -8 -14 -10 -11
-3 3 -2 9 2 15 9 16 15 13 8 -4z m-1088 -5 c3 -5 1 -10 -4 -10 -6 0 -11 5 -11
10 0 6 2 10 4 10 3 0 8 -4 11 -10z m591 -16 c4 -14 2 -30 -5 -37 -8 -8 -11 -5
-11 14 0 15 -3 19 -8 12 -10 -16 -29 -3 -29 20 0 29 45 22 53 -9z m1253 -178
c14 -14 20 -26 15 -26 -5 0 -34 26 -64 57 -48 49 -50 53 -15 26 22 -17 51 -43
64 -57z m-1869 48 c14 -3 41 -21 61 -38 19 -17 49 -41 65 -53 l29 -23 -38 21
c-32 18 -42 20 -66 9 -16 -6 -42 -10 -57 -7 -26 4 -25 4 7 6 77 3 70 52 -10
71 -28 6 -59 9 -70 5 -28 -9 -27 3 2 15 22 9 29 8 77 -6z m1605 -43 c-3 -12
-12 -21 -19 -21 -7 0 -25 -9 -40 -21 -41 -32 -31 -12 16 32 44 41 54 43 43 10z
m-2126 -81 c-11 -29 -8 -85 7 -137 11 -39 -23 -27 -36 12 -9 27 -9 52 0 102 6
36 8 80 5 97 l-6 31 21 -37 c16 -30 18 -41 9 -68z m451 47 l25 -11 -29 -4
c-20 -2 -35 3 -50 18 l-21 22 25 -7 c14 -4 36 -12 50 -18z m2231 -9 c-4 -12
-14 -24 -20 -26 -8 -3 -7 5 4 22 21 32 27 33 16 4z m-461 8 c0 -2 -7 -7 -16
-10 -8 -3 -12 -2 -9 4 6 10 25 14 25 6z m-1994 -54 l-29 -27 23 32 c13 18 26
30 29 28 3 -3 -8 -18 -23 -33z m2319 -118 c57 -94 90 -163 82 -171 -3 -2 -15
18 -27 44 -32 68 -117 208 -135 223 -8 7 -15 20 -15 29 1 22 27 -13 95 -125z
m92 99 c-8 -16 -17 -35 -20 -43 -4 -8 -5 -4 -4 10 1 14 9 33 17 43 21 24 23
21 7 -10z m63 -27 c0 -68 -33 -146 -63 -146 -6 0 -3 8 7 18 9 10 22 53 28 95
14 85 28 102 28 33z m-2631 -6 c0 -10 -3 -8 -9 5 -12 27 -12 43 0 25 5 -8 9
-22 9 -30z m99 -30 c-32 -51 -48 -68 -27 -27 15 28 49 77 54 77 2 0 -10 -22
-27 -50z m2439 -37 c-3 -10 -5 -4 -5 12 0 17 2 24 5 18 2 -7 2 -21 0 -30z
m-207 -33 c0 -5 -5 -10 -11 -10 -5 0 -7 5 -4 10 3 6 8 10 11 10 2 0 4 -4 4
-10z m-2142 -10 c-32 -4 -64 -11 -71 -16 -7 -5 -4 -1 6 9 14 12 34 17 71 16
l51 -2 -57 -7z m-154 -37 c-9 -21 -20 -48 -25 -60 -5 -13 -11 -23 -14 -23 -11
0 17 78 38 108 17 22 17 12 1 -25z m286 4 c22 -4 21 -4 -6 -6 -17 0 -37 -8
-44 -16 -7 -8 -17 -15 -23 -15 -5 0 -3 8 7 19 10 11 14 25 10 37 -7 18 -6 18
12 2 10 -9 30 -18 44 -21z m2100 23 c18 -12 2 -12 -25 0 -13 6 -15 9 -5 9 8 0
22 -4 30 -9z m-142 -11 c-2 -7 -22 -14 -43 -15 -39 -4 -40 -4 -15 11 30 17 63
19 58 4z m180 -34 c-3 -3 -9 2 -12 12 -6 14 -5 15 5 6 7 -7 10 -15 7 -18z
m-94 -36 c-3 -5 -18 -2 -34 6 -45 23 -45 35 0 18 22 -9 37 -20 34 -24z m-2140
9 c-3 -5 -9 -6 -13 -4 -4 3 -24 1 -45 -4 -21 -5 -46 -5 -55 -2 -11 5 -3 9 24
13 54 8 95 7 89 -3z m-1239 -155 c4 -27 11 -56 17 -67 6 -12 6 -16 0 -12 -16
9 -42 72 -42 100 0 44 17 29 25 -21z m902 31 c-3 -3 -12 -4 -19 -1 -8 3 -5 6
6 6 11 1 17 -2 13 -5z m188 -4 c3 -5 -1 -10 -9 -10 -8 0 -18 5 -21 10 -3 6 1
10 9 10 8 0 18 -4 21 -10z m125 -11 c0 -4 -7 -6 -15 -3 -8 4 -15 10 -15 15 0
4 7 6 15 3 8 -4 15 -10 15 -15z m913 7 c16 -12 15 -14 -13 -20 -17 -3 -42 -17
-55 -30 -27 -27 -55 -25 -55 4 0 28 38 50 100 59 3 0 13 -6 23 -13z m1327 2
c0 -4 8 -4 18 -1 14 6 15 4 5 -8 -12 -15 -103 -14 -103 1 0 5 9 6 20 3 11 -3
20 -1 20 4 0 5 9 9 20 9 11 0 20 -4 20 -8z m70 2 c0 -5 -4 -10 -10 -10 -5 0
-10 5 -10 10 0 6 5 10 10 10 6 0 10 -4 10 -10z m-2990 -33 c0 -18 -2 -19 -10
-7 -13 20 -13 43 0 35 6 -3 10 -16 10 -28z m2828 15 c3 -10 -10 -11 -46 -3 -2
1 0 6 3 12 9 13 37 8 43 -9z m215 11 c-7 -2 -19 -2 -25 0 -7 3 -2 5 12 5 14 0
19 -2 13 -5z m-3433 -22 l45 -9 -50 -1 c-56 -1 -95 7 -95 20 0 5 12 6 28 3 15
-3 47 -9 72 -13z m327 3 c6 -18 -55 -23 -62 -6 -4 11 -8 12 -20 2 -8 -7 -15
-20 -16 -29 0 -11 -3 -9 -9 7 -11 25 -25 29 -34 7 -6 -17 -36 -20 -36 -4 0 8
-6 7 -17 -2 -13 -11 -17 -11 -20 -1 -3 6 -18 12 -34 12 -19 0 -28 4 -23 11 3
6 14 9 23 6 9 -2 48 -1 86 3 94 10 158 7 162 -6z m2023 12 c0 -2 -9 -6 -20 -9
-11 -3 -18 -1 -14 4 5 9 34 13 34 5z m1707 -18 c-3 -8 -6 -5 -6 6 -1 11 2 17
5 13 3 -3 4 -12 1 -19z m-1824 -8 c10 -9 12 -39 6 -81 -3 -24 -6 -26 -26 -16
-17 8 -20 14 -13 28 6 10 14 21 20 24 10 6 -24 45 -39 45 -6 0 -13 5 -17 11
-7 13 55 3 69 -11z m-2834 -27 c-1 -33 -2 -35 -8 -13 -4 14 -6 31 -3 38 8 22
12 13 11 -25z m1825 8 c-2 -3 -12 3 -22 13 -16 17 -16 18 5 5 12 -7 20 -15 17
-18z m1911 19 c3 -5 -1 -10 -10 -10 -9 0 -13 5 -10 10 3 6 8 10 10 10 2 0 7
-4 10 -10z m-49 -27 c-10 -10 -19 5 -10 18 6 11 8 11 12 0 2 -7 1 -15 -2 -18z
m1884 7 c-24 -15 -36 -11 -14 4 10 8 21 12 24 10 2 -3 -2 -9 -10 -14z m-4380
3 c0 -5 -15 -8 -34 -8 -19 0 -38 3 -42 8 -4 4 11 7 34 7 23 0 42 -3 42 -7z
m45 -3 c3 -6 -1 -7 -9 -4 -18 7 -21 14 -7 14 6 0 13 -4 16 -10z m3405 -10 c-6
-11 -13 -20 -16 -20 -2 0 0 9 6 20 6 11 13 20 16 20 2 0 0 -9 -6 -20z m-3241
-60 c11 -22 9 -21 -13 5 -14 17 -26 39 -26 50 0 21 4 16 39 -55z m4131 60 c0
-5 -4 -10 -10 -10 -5 0 -10 5 -10 10 0 6 5 10 10 10 6 0 10 -4 10 -10z m-5307
-7 c-18 -2 -48 -2 -65 0 -18 2 -4 4 32 4 36 0 50 -2 33 -4z m5237 -9 c0 -2 -9
-4 -21 -4 -11 0 -18 4 -14 10 5 8 35 3 35 -6z m40 6 c0 -5 -7 -10 -16 -10 -8
0 -12 5 -9 10 3 6 10 10 16 10 5 0 9 -4 9 -10z m-3650 -10 c0 -5 -5 -10 -11
-10 -5 0 -7 5 -4 10 3 6 8 10 11 10 2 0 4 -4 4 -10z m1715 -20 c-5 -15 -2 -20
11 -20 14 0 15 -3 6 -12 -10 -10 -17 -10 -33 0 -19 12 -20 11 -14 -7 4 -14 2
-21 -7 -21 -7 0 -30 -9 -51 -20 -20 -11 -43 -20 -51 -20 -15 0 -29 -63 -20
-95 3 -11 1 -40 -5 -65 -6 -27 -6 -49 -1 -56 6 -6 6 -14 2 -18 -10 -11 -9 -30
3 -38 6 -5 3 -8 -6 -8 -18 0 -33 -25 -38 -59 -3 -21 -83 -91 -104 -91 -18 0
-13 7 28 44 l50 44 -5 83 c-2 46 -5 115 -5 153 l0 69 53 47 c53 47 155 109
180 110 9 0 11 -7 7 -20z m-2425 0 c0 -5 -2 -10 -4 -10 -3 0 -8 5 -11 10 -3 6
-1 10 4 10 6 0 11 -4 11 -10z m829 -23 c0 -9 -2 -9 -6 1 -2 6 -11 12 -19 12
-8 0 -14 5 -14 10 0 7 6 7 20 0 11 -6 20 -16 19 -23z m418 3 c9 -25 9 -30 -3
-30 -8 0 -32 -11 -52 -25 -41 -28 -58 -21 -43 18 9 23 63 67 81 67 3 0 11 -13
17 -30z m2490 20 c-28 -9 -167 -14 -227 -9 -30 3 107 13 220 16 34 1 34 1 7
-7z m-2380 -43 c-2 -7 12 -17 32 -24 l36 -12 -40 6 c-22 4 -46 6 -52 6 -18 0
-16 16 2 23 8 4 12 11 8 17 -3 6 -1 7 6 3 7 -4 10 -13 8 -19z m-2704 -16 c-4
-15 14 -14 19 1 4 10 9 8 21 -3 9 -9 14 -19 11 -21 -9 -9 -56 5 -61 18 -2 7
-11 10 -20 7 -12 -5 -12 -7 -1 -14 10 -7 11 -9 0 -9 -7 0 -10 -4 -7 -10 3 -5
2 -10 -4 -10 -16 0 -24 40 -11 55 13 16 57 4 53 -14z m2255 9 c23 -11 42 -22
42 -24 0 -5 -100 31 -108 39 -13 12 28 3 66 -15z m-1018 -18 c0 -15 -2 -15
-10 -2 -13 20 -13 33 0 25 6 -3 10 -14 10 -23z m4302 17 c-40 -15 -192 -24
-192 -11 0 6 7 9 15 6 8 -4 15 -2 15 2 0 5 42 10 93 10 63 1 85 -1 69 -7z
m-4166 -39 c23 0 34 -4 32 -12 -5 -14 -47 -18 -68 -7 -8 4 -23 10 -32 13 -10
3 -18 10 -18 15 0 7 9 7 26 1 14 -6 41 -10 60 -10z m1672 -8 c6 -19 -33 -14
-52 7 -16 18 -16 18 15 12 18 -4 34 -12 37 -19z m972 18 c0 -5 -5 -10 -11 -10
-5 0 -7 5 -4 10 3 6 8 10 11 10 2 0 4 -4 4 -10z m57 4 c-3 -3 -12 -4 -19 -1
-8 3 -5 6 6 6 11 1 17 -2 13 -5z m-2527 -7 c-10 -9 -90 -17 -90 -9 0 5 21 9
47 11 26 1 45 0 43 -2z m1310 -6 c0 -6 -17 -7 -37 -4 -52 8 -54 13 -5 13 23 0
42 -4 42 -9z m1250 -1 c0 -5 -5 -10 -11 -10 -5 0 -7 5 -4 10 3 6 8 10 11 10 2
0 4 -4 4 -10z m-4080 -4 c0 -3 -4 -8 -10 -11 -5 -3 -10 -1 -10 4 0 6 5 11 10
11 6 0 10 -2 10 -4z m2334 -27 c27 -31 34 -59 16 -59 -9 0 -14 14 -12 32 1 3
-6 12 -16 20 -15 11 -15 11 -6 -2 6 -8 11 -27 10 -43 -1 -20 2 -26 12 -22 10
3 12 0 8 -10 -3 -9 0 -25 7 -36 10 -16 9 -21 -3 -29 -8 -5 -18 -6 -22 -4 -5 3
-11 -9 -14 -26 -8 -38 -14 -42 -37 -25 -12 8 -14 15 -8 20 6 3 11 15 11 26 0
11 5 17 10 14 6 -3 10 -2 10 3 0 10 -44 32 -65 32 -27 0 -16 17 14 23 19 4 34
16 44 36 14 27 13 31 -4 47 -15 14 -17 19 -7 26 20 12 24 10 52 -23z m557 17
c14 8 49 -25 49 -45 0 -13 -2 -13 -9 -3 -4 8 -19 19 -31 25 -13 7 -25 18 -26
25 -1 7 0 8 3 2 2 -5 9 -7 14 -4z m74 -2 c29 -19 44 -50 17 -35 -18 10 -56 51
-47 51 3 0 16 -7 30 -16z m1575 6 c0 -5 -2 -10 -4 -10 -3 0 -8 5 -11 10 -3 6
-1 10 4 10 6 0 11 -4 11 -10z m-4561 -19 c10 -6 10 -10 1 -16 -7 -4 -19 0 -28
9 -14 13 -14 16 -2 16 8 0 21 -4 29 -9z m4118 3 c-3 -3 -12 -4 -19 -1 -8 3 -5
6 6 6 11 1 17 -2 13 -5z m940 -20 c-3 -3 -12 -4 -19 -1 -8 3 -5 6 6 6 11 1 17
-2 13 -5z m-2151 -61 c27 -29 30 -61 13 -129 -9 -34 -23 -54 -62 -86 -30 -25
-44 -34 -36 -21 15 25 7 41 -14 27 -7 -5 -2 1 11 12 34 30 46 103 28 164 -14
46 -13 49 7 67 17 14 23 16 25 6 2 -8 14 -25 28 -40z m1744 47 c-8 -5 -26 -9
-40 -9 -23 1 -23 2 5 9 43 11 52 11 35 0z m338 3 c-16 -2 -40 -2 -55 0 -16 2
-3 4 27 4 30 0 43 -2 28 -4z m-3155 -32 l58 -6 -31 -13 c-17 -8 -38 -11 -48
-6 -9 4 -22 6 -28 6 -6 -1 -19 8 -30 20 -19 21 -19 21 1 13 11 -5 46 -11 78
-14z m-533 -45 c0 -6 -7 -2 -15 8 -8 11 -15 25 -15 30 0 6 7 2 15 -8 8 -11 15
-25 15 -30z m1740 34 c0 -5 -2 -10 -4 -10 -3 0 -8 5 -11 10 -3 6 -1 10 4 10 6
0 11 -4 11 -10z m1063 3 c-7 -2 -19 -2 -25 0 -7 3 -2 5 12 5 14 0 19 -2 13 -5z
m1394 1 c-3 -3 -12 -4 -19 -1 -8 3 -5 6 6 6 11 1 17 -2 13 -5z m-747 -34 c-6
-12 -14 -19 -17 -17 -2 3 1 15 7 27 6 12 14 19 17 17 2 -3 -1 -15 -7 -27z
m-3025 0 c3 -5 -1 -10 -9 -10 -9 0 -16 5 -16 10 0 6 4 10 9 10 6 0 13 -4 16
-10z m4110 0 c-3 -5 -14 -10 -23 -9 -14 0 -13 2 3 9 27 11 27 11 20 0z m-5841
-26 c-5 -19 -3 -25 4 -20 7 4 10 2 7 -6 -3 -8 4 -24 15 -36 11 -12 17 -22 12
-22 -4 0 -20 13 -35 28 -26 27 -35 61 -20 75 15 15 23 5 17 -19z m3032 -12
c-10 -11 -16 -12 -16 -4 0 7 5 12 10 12 6 0 10 8 11 18 0 11 2 13 6 4 3 -8 -2
-21 -11 -30z m1769 28 c3 -5 1 -10 -4 -10 -6 0 -11 5 -11 10 0 6 2 10 4 10 3
0 8 -4 11 -10z m-305 -7 c-8 -4 -21 -12 -28 -20 -15 -15 -36 -8 -26 9 4 6 2 8
-4 4 -6 -3 -13 -2 -17 4 -4 6 12 10 42 9 26 0 41 -3 33 -6z m-95 -14 c11 -17
2 -18 -19 -3 -17 12 -17 14 -4 14 9 0 20 -5 23 -11z m601 -2 c4 -4 -1 -7 -12
-8 -10 0 -38 -3 -61 -5 -41 -4 -61 10 -25 18 26 6 90 3 98 -5z m-146 -5 c0 -4
-17 -6 -37 -4 -59 5 -63 10 -10 11 26 1 47 -3 47 -7z m-1630 -12 c0 -5 -8 -10
-17 -10 -15 0 -16 2 -3 10 19 12 20 12 20 0z m-1100 -9 c0 -5 -10 -13 -22 -17
-13 -4 -26 -11 -29 -17 -4 -6 -13 -5 -25 2 -11 6 -17 11 -14 11 3 0 23 7 45
15 49 17 45 17 45 6z m1720 -1 c0 -5 -2 -10 -4 -10 -3 0 -8 5 -11 10 -3 6 -1
10 4 10 6 0 11 -4 11 -10z m-1415 -67 c-10 -53 -19 -31 -10 24 5 26 10 40 13
30 2 -11 1 -35 -3 -54z m1745 57 c0 -5 -7 -10 -15 -10 -8 0 -15 5 -15 10 0 6
7 10 15 10 8 0 15 -4 15 -10z m1118 3 c-10 -2 -26 -2 -35 0 -10 3 -2 5 17 5
19 0 27 -2 18 -5z m120 0 c-10 -2 -28 -2 -40 0 -13 2 -5 4 17 4 22 1 32 -1 23
-4z m-3482 -35 c-18 -10 -39 -2 -31 12 3 4 15 6 26 3 19 -5 19 -7 5 -15z
m2044 12 c8 -1 4 -6 -9 -11 -19 -7 -28 -6 -40 7 -15 15 -14 16 9 10 14 -3 32
-6 40 -6z m1803 -7 c-7 -2 -19 -2 -25 0 -7 3 -2 5 12 5 14 0 19 -2 13 -5z
m-1098 -31 c-3 -3 -11 0 -18 7 -9 10 -8 11 6 5 10 -3 15 -9 12 -12z m-750 -13
c-8 -12 -35 -12 -35 0 0 11 22 20 33 14 4 -2 5 -9 2 -14z m1095 11 c0 -5 -12
-10 -27 -10 -22 0 -25 2 -13 10 20 13 40 13 40 0z m-3156 -9 c7 -10 -54 -21
-69 -13 -5 3 1 9 15 13 36 10 48 10 54 0z m495 -7 c6 4 11 2 11 -3 0 -6 -4
-11 -10 -11 -5 0 -10 -7 -10 -15 0 -17 -18 -19 -40 -5 -12 7 -11 12 5 30 13
14 21 17 26 9 4 -6 12 -8 18 -5z m1478 10 c-3 -3 -12 -4 -19 -1 -8 3 -5 6 6 6
11 1 17 -2 13 -5z m-717 -13 c0 -6 -4 -13 -10 -16 -5 -3 -10 1 -10 9 0 9 5 16
10 16 6 0 10 -4 10 -9z m995 -9 c-3 -3 -11 0 -18 7 -9 10 -8 11 6 5 10 -3 15
-9 12 -12z m-2328 -8 c-3 -3 -12 -4 -19 -1 -8 3 -5 6 6 6 11 1 17 -2 13 -5z
m2588 -32 c-3 -3 -11 0 -18 7 -9 10 -8 11 6 5 10 -3 15 -9 12 -12z m1085 9 c0
-5 -9 -11 -20 -14 -22 -6 -28 8 -7 16 19 8 27 8 27 -2z m30 5 c0 -3 -4 -8 -10
-11 -5 -3 -10 -1 -10 4 0 6 5 11 10 11 6 0 10 -2 10 -4z m300 -6 c-8 -5 -19
-10 -25 -10 -5 0 -3 5 5 10 8 5 20 10 25 10 6 0 3 -5 -5 -10z m-422 -17 c-10
-2 -26 -2 -35 0 -10 3 -2 5 17 5 19 0 27 -2 18 -5z m-3511 -9 c-3 -3 -12 -4
-19 -1 -8 3 -5 6 6 6 11 1 17 -2 13 -5z m280 0 c-3 -3 -12 -4 -19 -1 -8 3 -5
6 6 6 11 1 17 -2 13 -5z m233 -13 c0 -3 -15 -14 -32 -24 -32 -18 -32 -18 -15
0 9 11 17 25 17 31 0 6 7 9 15 6 8 -4 15 -9 15 -13z m3298 12 c-10 -2 -26 -2
-35 0 -10 3 -2 5 17 5 19 0 27 -2 18 -5z m-3668 -7 c0 -3 -4 -8 -10 -11 -5 -3
-10 -1 -10 4 0 6 5 11 10 11 6 0 10 -2 10 -4z m1039 -43 c0 -35 -1 -36 -10
-14 -5 14 -7 31 -5 38 10 24 16 13 15 -24z m-186 -15 c-3 -24 -10 -47 -16 -53
-6 -7 -7 5 -3 34 11 71 27 87 19 19z m-158 12 c18 -8 17 -9 -7 -9 -16 -1 -28
4 -28 9 0 12 8 12 35 0z m-2338 -15 c0 -8 -4 -12 -9 -9 -4 3 -8 9 -8 15 0 5 4
9 8 9 5 0 9 -7 9 -15z m2053 -8 c0 -7 -10 -23 -21 -37 l-20 -25 6 25 c14 55
17 60 26 55 5 -4 9 -12 9 -18z m600 2 c0 -6 -4 -7 -10 -4 -5 3 -10 11 -10 16
0 6 5 7 10 4 6 -3 10 -11 10 -16z m2150 1 c0 -5 -5 -10 -11 -10 -5 0 -7 5 -4
10 3 6 8 10 11 10 2 0 4 -4 4 -10z m475 -11 c-8 -12 -56 -32 -62 -25 -5 5 46
35 60 36 5 0 5 -5 2 -11z m-2285 -8 c0 -5 -7 -14 -15 -21 -16 -14 -18 -10 -9
14 6 17 24 22 24 7z m-780 -11 c0 -13 -11 -13 -30 0 -12 8 -11 10 8 10 12 0
22 -4 22 -10z m840 0 c13 -8 13 -10 -2 -10 -9 0 -20 5 -23 10 -8 13 5 13 25 0z
m-1226 -22 c-7 -11 -45 -10 -64 2 -11 7 -3 9 27 8 23 -1 40 -5 37 -10z m3351
3 c-35 -14 -105 -22 -105 -12 0 13 25 19 80 19 32 1 39 -2 25 -7z m-2780 -31
c25 -104 71 -112 149 -23 l41 47 7 -40 c12 -65 1 -108 -33 -128 -20 -12 -29
-13 -29 -5 0 16 -15 1 -15 -14 0 -7 -8 -11 -17 -11 -10 1 -14 -4 -11 -11 3
-10 -8 -13 -39 -13 -24 0 -54 -5 -68 -10 -46 -17 -130 -125 -130 -165 0 -8 -6
-20 -14 -26 -49 -41 -15 218 40 302 13 20 20 37 15 37 -5 0 -7 9 -4 20 3 11 9
20 14 20 5 0 9 11 9 24 0 21 4 23 39 22 34 0 41 -4 46 -26z m380 -18 c-3 -16
-15 -38 -26 -48 -22 -20 -24 -9 -4 26 8 14 14 36 15 50 0 17 3 21 11 13 6 -6
8 -24 4 -41z m2278 41 c-7 -2 -19 -2 -25 0 -7 3 -2 5 12 5 14 0 19 -2 13 -5z
m-183 -46 c-32 -15 -69 -21 -130 -23 l-85 -3 85 9 c47 4 101 15 120 23 53 23
61 18 10 -6z m-2893 -49 c-3 -8 -6 -5 -6 6 -1 11 2 17 5 13 3 -3 4 -12 1 -19z
m1046 8 c3 -8 -2 -16 -13 -19 -16 -4 -17 -2 -7 14 14 23 13 23 20 5z m-1428
-16 c-10 -11 -21 -18 -23 -15 -3 3 3 12 14 20 27 20 30 18 9 -5z m2931 1 c-32
-36 -211 -103 -192 -73 4 7 16 12 26 12 26 0 97 29 140 56 43 28 48 29 26 5z
m-1426 -13 c0 -19 -2 -20 -10 -8 -13 19 -13 30 0 30 6 0 10 -10 10 -22z m-909
-42 c-14 -36 -22 -33 -9 5 6 16 12 28 14 26 3 -2 0 -16 -5 -31z m-281 -3 c0
-5 -10 -19 -21 -33 l-21 -25 18 33 c18 32 24 38 24 25z m207 -40 c-3 -10 -5
-2 -5 17 0 19 2 27 5 18 2 -10 2 -26 0 -35z m-334 7 c-3 -12 -8 -19 -11 -16
-5 6 5 36 12 36 2 0 2 -9 -1 -20z m2484 4 c-3 -3 -12 -4 -19 -1 -8 3 -5 6 6 6
11 1 17 -2 13 -5z m-2604 -29 c-3 -9 -8 -14 -10 -11 -3 3 -2 9 2 15 9 16 15
13 8 -4z m865 -2 c-16 -15 -15 -18 7 -45 14 -16 25 -35 25 -41 0 -7 -8 0 -18
16 -10 15 -27 33 -37 41 -17 12 -17 14 6 29 30 22 38 22 17 0z m-484 -27 c-9
-15 -19 -25 -21 -22 -3 2 3 16 13 30 9 15 19 25 21 22 3 -2 -3 -16 -13 -30z
m-54 21 c0 -2 -12 -14 -27 -28 l-28 -24 24 28 c23 25 31 32 31 24z m-887 -207
c4 -93 2 -125 -3 -90 -8 56 -13 247 -6 239 2 -2 6 -69 9 -149z m1707 131 c0
-5 -9 -7 -20 -4 -11 3 -20 7 -20 9 0 2 9 4 20 4 11 0 20 -4 20 -9z m-1868 -32
c23 -22 27 -29 13 -24 -72 23 -158 17 -192 -14 -13 -13 -39 -20 -76 -22 -30
-2 -53 -2 -51 1 15 14 225 90 251 90 13 0 37 -14 55 -31z m1459 9 c-1 -5 -3
-8 -6 -8 -48 0 -50 0 -35 10 16 11 41 9 41 -2z m1698 -142 c-7 -56 -15 -93
-17 -83 -2 9 1 48 7 87 6 38 12 86 12 107 1 26 3 31 6 14 3 -14 -1 -70 -8
-125z m-1504 80 c9 -60 12 -176 4 -176 -10 0 -27 101 -29 168 -1 73 15 77 25
8z m32 32 c-3 -8 -6 -5 -6 6 -1 11 2 17 5 13 3 -3 4 -12 1 -19z m-1097 9 c0
-2 -11 -18 -25 -37 -14 -19 -25 -31 -25 -27 0 5 10 21 22 37 20 27 28 35 28
27z m2838 -12 c2 -1 -21 -6 -51 -9 -65 -8 -109 -34 -139 -81 -13 -19 -27 -35
-31 -35 -4 0 6 20 23 44 16 25 30 48 30 53 1 20 66 41 115 37 27 -3 51 -7 53
-9z m81 -24 c15 -11 45 -21 67 -24 l39 -4 -46 -1 c-27 -1 -52 -8 -59 -17 -7
-8 -17 -15 -22 -15 -6 0 -5 6 2 15 15 18 4 52 -18 58 -10 3 -11 5 -4 6 8 0 26
-8 41 -18z m-2382 -33 c-3 -7 -5 -2 -5 12 0 14 2 19 5 13 2 -7 2 -19 0 -25z
m923 22 c0 -5 -2 -10 -4 -10 -3 0 -8 5 -11 10 -3 6 -1 10 4 10 6 0 11 -4 11
-10z m-163 -37 c-3 -10 -5 -4 -5 12 0 17 2 24 5 18 2 -7 2 -21 0 -30z m-1923
-4 c17 -7 37 -19 44 -26 16 -15 32 -17 32 -4 0 5 9 13 20 16 11 3 20 13 20 20
0 8 4 16 8 19 17 10 4 -48 -14 -61 -38 -29 -205 4 -241 49 -11 13 -6 14 43 7
31 -4 71 -13 88 -20z m1043 -16 c-3 -10 -5 -4 -5 12 0 17 2 24 5 18 2 -7 2
-21 0 -30z m809 11 c-4 -9 -9 -15 -11 -12 -3 3 -3 13 1 22 4 9 9 15 11 12 3
-3 3 -13 -1 -22z m-118 -23 c1 -17 -2 -31 -8 -31 -5 0 -10 16 -10 36 0 42 15
38 18 -5z m1052 29 c0 -5 -7 -10 -16 -10 -8 0 -12 5 -9 10 3 6 10 10 16 10 5
0 9 -4 9 -10z m-605 -10 c3 -5 1 -10 -4 -10 -6 0 -11 5 -11 10 0 6 2 10 4 10
3 0 8 -4 11 -10z m630 -38 c-3 -3 -11 0 -18 7 -9 10 -8 11 6 5 10 -3 15 -9 12
-12z m625 8 c0 -6 9 -6 26 1 15 5 29 8 31 5 8 -8 -63 -27 -123 -33 -37 -3 -69
-1 -80 5 -16 10 -12 12 26 13 25 1 59 5 75 9 43 11 45 11 45 0z m-600 -14 c0
-2 -8 -10 -17 -17 -16 -13 -17 -12 -4 4 13 16 21 21 21 13z m-1400 -49 c0 -10
-4 -15 -10 -12 -5 3 -10 18 -10 33 0 21 2 24 10 12 5 -8 10 -23 10 -33z m-41
-84 c1 -7 -5 -13 -12 -13 -10 0 -12 10 -9 32 4 28 6 30 13 13 4 -11 8 -26 8
-32z m536 10 c-9 -21 -27 -49 -41 -63 -20 -20 -18 -14 12 38 20 34 39 62 41
62 2 0 -4 -17 -12 -37z m961 -32 c-6 -33 -15 -63 -20 -68 -5 -4 -6 3 -3 17 3
14 9 46 12 72 4 26 11 46 14 43 4 -2 3 -31 -3 -64z m-2339 22 c-3 -10 -5 -4
-5 12 0 17 2 24 5 18 2 -7 2 -21 0 -30z m922 -14 c-17 -30 -21 -43 -11 -46 6
-3 12 -9 12 -14 0 -6 -4 -8 -9 -5 -5 3 -14 -8 -21 -24 -10 -25 -18 -30 -46
-30 -32 0 -34 1 -22 23 7 12 17 25 22 28 5 4 5 12 2 18 -4 6 3 16 16 22 13 5
34 26 47 45 32 47 39 35 10 -17z m-912 -56 c-3 -10 -5 -2 -5 17 0 19 2 27 5
18 2 -10 2 -26 0 -35z m-447 23 c0 -8 8 -16 18 -18 15 -3 15 -4 1 -10 -11 -4
-20 1 -28 18 -6 15 -7 24 -1 24 6 0 10 -6 10 -14z m40 -40 c0 -3 -4 -8 -10
-11 -5 -3 -10 -1 -10 4 0 6 5 11 10 11 6 0 10 -2 10 -4z m3112 -38 c-6 -6 -7
0 -4 19 5 21 7 23 10 9 2 -10 0 -22 -6 -28z m-152 -85 c-13 -38 -27 -72 -33
-78 -7 -7 -8 -5 -5 5 3 8 16 48 29 88 13 41 25 69 27 63 2 -6 -6 -41 -18 -78z
m-3236 18 c-14 -23 -31 -41 -36 -41 -5 0 6 20 24 44 41 54 49 52 12 -3z m1551
40 c3 -6 19 -8 34 -5 16 4 32 1 35 -5 5 -7 -8 -11 -38 -11 -25 0 -48 5 -52 11
-5 8 -10 6 -16 -5 -9 -16 -11 -16 -29 0 -10 9 -19 12 -19 7 0 -13 -79 -22 -86
-11 -3 5 -14 3 -25 -3 -21 -11 -183 -3 -204 10 -12 7 100 15 272 19 72 1 124
-2 128 -7z m938 1 l157 -2 0 -57 c0 -44 -3 -54 -11 -43 -9 12 -10 11 -6 -8 3
-12 1 -20 -4 -16 -14 8 -11 44 4 45 10 0 10 2 0 6 -7 2 -13 13 -13 24 0 10 -7
19 -15 19 -8 0 -15 5 -15 11 0 8 -4 8 -14 -1 -11 -8 -62 -10 -188 -6 -95 3
-183 5 -195 5 -13 1 -23 5 -23 11 0 8 79 16 140 14 14 0 96 -2 183 -2z m892
-32 c-9 -41 -17 -33 -9 9 4 17 9 30 11 27 3 -2 2 -19 -2 -36z m-2260 20 c4 -6
-7 -10 -24 -10 -17 0 -31 5 -31 10 0 6 11 10 24 10 14 0 28 -4 31 -10z m710
-1 c-28 -11 -67 -11 -61 0 3 5 23 9 43 9 29 0 33 -2 18 -9z m160 1 c3 -5 1
-10 -4 -10 -6 0 -11 5 -11 10 0 6 2 10 4 10 3 0 8 -4 11 -10z m165 6 c0 -3 -4
-8 -10 -11 -5 -3 -10 -1 -10 4 0 6 5 11 10 11 6 0 10 -2 10 -4z m610 -272 c0
-244 -2 -275 -15 -264 -8 7 -12 17 -8 23 3 5 2 7 -4 4 -5 -3 -25 9 -43 28 -38
39 -65 46 -57 15 3 -11 1 -20 -3 -20 -10 0 -25 88 -17 97 4 3 30 -18 59 -46
28 -28 54 -51 57 -51 4 0 5 87 4 192 -1 138 1 195 10 200 8 5 6 9 -6 14 -13 5
-29 -3 -53 -27 -55 -54 -42 -9 17 55 28 31 53 56 55 56 2 0 4 -124 4 -276z
m-2620 242 c0 -8 -51 -13 -56 -5 -3 5 9 9 25 9 17 0 31 -2 31 -4z m239 -46 c0
-9 -4 -8 -9 5 -5 11 -9 27 -9 35 0 9 4 8 9 -5 5 -11 9 -27 9 -35z m565 35 c3
-9 0 -18 -7 -20 -8 -4 -11 -30 -9 -91 2 -56 -1 -90 -8 -99 -7 -8 -10 -21 -7
-28 3 -8 1 -20 -4 -28 -6 -9 -9 0 -9 29 0 27 4 42 13 42 9 0 9 2 -1 8 -18 12
-15 172 4 179 8 3 11 9 8 14 -3 5 -1 9 4 9 6 0 13 -7 16 -15z m2516 5 c0 -5
-4 -10 -10 -10 -5 0 -10 5 -10 10 0 6 5 10 10 10 6 0 10 -4 10 -10z m108 -3
c27 -5 35 -12 38 -32 2 -17 -4 -18 -58 -9 -21 4 -35 10 -33 14 3 4 -2 11 -11
14 -8 3 -12 2 -9 -4 3 -6 -5 -10 -19 -10 -24 0 -25 2 -14 21 13 21 18 21 106
6z m-2525 -27 c3 -13 0 -20 -9 -20 -8 0 -14 9 -14 20 0 11 4 20 9 20 5 0 11
-9 14 -20z m115 13 c-10 -2 -26 -2 -35 0 -10 3 -2 5 17 5 19 0 27 -2 18 -5z
m165 0 c-24 -2 -62 -2 -85 0 -24 2 -5 4 42 4 47 0 66 -2 43 -4z m165 0 c-15
-2 -42 -2 -60 0 -18 2 -6 4 27 4 33 0 48 -2 33 -4z m995 0 c-46 -2 -120 -2
-165 0 -46 1 -9 3 82 3 91 0 128 -2 83 -3z m-1502 -29 c7 -8 25 -22 41 -30 15
-8 28 -20 28 -26 0 -6 -8 -4 -18 5 -22 20 -36 22 -26 5 4 -7 -7 0 -24 16 -18
17 -32 33 -32 38 0 13 17 9 31 -8z m389 -48 c-3 -5 -23 -10 -45 -10 -36 -1
-40 -3 -37 -26 1 -13 13 -35 25 -49 15 -16 18 -25 10 -28 -24 -9 -13 -25 12
-20 29 5 55 -23 55 -60 0 -27 -33 -63 -57 -63 -15 0 -15 1 0 18 28 30 20 52
-35 103 -42 38 -51 53 -51 80 0 45 34 71 87 67 23 -2 39 -7 36 -12z m2251 -9
c-10 -9 -11 -8 -5 6 3 10 9 15 12 12 3 -3 0 -11 -7 -18z m-1385 1 c-9 -5 -16
-15 -16 -23 0 -8 -6 -18 -14 -22 -8 -4 -16 -26 -19 -48 -3 -33 -4 -30 -5 17
-3 74 3 85 39 85 23 0 27 -3 15 -9z m90 -13 c28 -28 28 -61 0 -58 -11 1 -15
-4 -12 -14 3 -8 0 -21 -8 -29 -23 -22 -26 -17 -12 18 14 32 4 88 -15 88 -5 0
-9 5 -9 10 0 19 31 10 56 -15z m-1511 -1 c15 -10 25 -26 25 -40 0 -13 4 -24 9
-24 16 0 21 -74 6 -90 -10 -10 -15 -10 -15 -2 0 7 -4 12 -9 12 -5 0 -8 -7 -7
-16 0 -9 -5 -19 -11 -21 -7 -3 -13 2 -13 11 0 9 -4 16 -9 16 -10 0 -30 45 -41
96 -7 32 -6 40 12 56 25 22 23 22 53 2z m1025 13 c0 -2 -10 -12 -22 -23 l-23
-19 19 23 c18 21 26 27 26 19z m-1205 -83 c20 -34 24 -48 15 -54 -6 -4 -12
-11 -12 -16 -1 -21 -10 -30 -31 -31 -12 0 -16 1 -9 4 9 3 5 12 -12 30 -31 31
-45 91 -25 104 28 18 48 8 74 -37z m432 14 c-3 -7 -5 -2 -5 12 0 14 2 19 5 13
2 -7 2 -19 0 -25z m2026 4 c3 -10 10 -32 15 -49 9 -29 8 -33 -9 -33 -40 0 -88
82 -59 100 18 11 47 1 53 -18z m-203 7 c0 -5 -4 -8 -9 -4 -6 3 -8 -12 -7 -35
4 -49 -5 -51 -27 -4 -10 19 -13 33 -8 30 5 -3 11 1 15 9 6 17 36 21 36 4z
m-2422 -41 c11 -40 6 -57 -16 -54 -25 4 -47 53 -32 72 20 23 39 16 48 -18z
m2526 -6 c26 -37 35 -95 17 -106 -12 -8 -41 3 -41 15 0 5 -8 18 -17 29 -24 27
-27 87 -5 93 10 3 18 5 18 6 1 0 13 -16 28 -37z m254 17 c7 -12 16 -18 19 -15
12 11 43 -27 43 -52 0 -23 -1 -24 -17 -9 -10 8 -29 17 -43 19 -40 5 -65 78
-27 78 7 0 18 -9 25 -21z m-353 1 c3 -5 1 -10 -4 -10 -6 0 -11 5 -11 10 0 6 2
10 4 10 3 0 8 -4 11 -10z m-2547 -25 c15 -33 15 -35 -3 -35 -14 0 -35 29 -35
49 0 21 27 11 38 -14z m3002 15 c0 -5 7 -10 15 -10 15 0 38 -34 29 -43 -3 -3
-17 1 -31 8 -40 21 -57 55 -28 55 8 0 15 -4 15 -10z m-3077 -20 c3 -13 0 -20
-9 -20 -8 0 -14 9 -14 20 0 11 4 20 9 20 5 0 11 -9 14 -20z m794 -17 c-3 -10
-5 -4 -5 12 0 17 2 24 5 18 2 -7 2 -21 0 -30z m2123 -29 c0 -13 -4 -25 -9 -28
-13 -9 -54 41 -48 58 4 9 1 16 -6 17 -7 0 -3 4 8 8 25 10 55 -21 55 -55z
m-2973 34 c-3 -8 -6 -5 -6 6 -1 11 2 17 5 13 3 -3 4 -12 1 -19z m1800 -15 c-3
-10 -5 -4 -5 12 0 17 2 24 5 18 2 -7 2 -21 0 -30z m1433 4 c0 -8 -3 -8 -9 1
-4 8 -12 13 -17 12 -5 -1 -10 4 -12 10 -3 9 1 9 17 1 11 -7 21 -17 21 -24z
m-2415 3 c-3 -5 -12 -10 -18 -10 -7 0 -6 4 3 10 19 12 23 12 15 0z m1610 0 c3
-6 -1 -7 -9 -4 -18 7 -21 14 -7 14 6 0 13 -4 16 -10z m-1915 -25 c0 -8 -4 -17
-10 -20 -6 -3 -9 4 -8 19 2 25 18 26 18 1z m-190 -5 c0 -5 -2 -10 -4 -10 -3 0
-8 5 -11 10 -3 6 -1 10 4 10 6 0 11 -4 11 -10z m527 -27 c-3 -10 -5 -4 -5 12
0 17 2 24 5 18 2 -7 2 -21 0 -30z m460 5 c-3 -8 -6 -5 -6 6 -1 11 2 17 5 13 3
-3 4 -12 1 -19z m-242 -48 c8 0 15 -4 15 -10 0 -5 -6 -10 -12 -9 -30 1 -43 16
-46 49 l-2 35 14 -32 c8 -18 22 -33 31 -33z m716 37 c-10 -9 -11 -8 -5 6 3 10
9 15 12 12 3 -3 0 -11 -7 -18z m192 -14 c4 -19 2 -33 -3 -33 -6 0 -10 17 -10
37 0 43 5 41 13 -4z m181 -5 c5 -9 7 -20 3 -24 -10 -11 -57 13 -57 29 0 20 40
16 54 -5z m-1307 -50 c-3 -7 -5 -2 -5 12 0 14 2 19 5 13 2 -7 2 -19 0 -25z
m900 26 c-3 -3 -12 -4 -19 -1 -8 3 -5 6 6 6 11 1 17 -2 13 -5z m-1046 -44 c15
0 10 -27 -6 -34 -12 -4 -15 3 -14 37 1 23 4 32 6 20 2 -13 9 -23 14 -23z
m1168 5 c21 6 30 -9 11 -20 -12 -8 -70 22 -70 37 0 6 9 3 19 -6 13 -11 27 -15
40 -11z m-1041 -68 l-3 -42 104 4 c77 2 105 0 111 -10 6 -9 12 -10 22 -2 17
14 158 15 158 1 0 -7 4 -7 13 -1 6 5 53 8 102 7 50 -2 142 -3 205 -4 80 0 110
-3 100 -10 -19 -13 -450 -12 -450 1 0 6 -8 5 -19 -1 -26 -13 -291 -13 -291 0
0 6 -5 10 -11 10 -5 0 -8 -4 -4 -9 3 -5 -10 -9 -29 -8 -30 2 -33 4 -24 21 7
13 6 21 -3 28 -11 7 -11 11 -1 15 6 2 12 9 12 14 0 6 -4 8 -9 5 -13 -9 -20 31
-8 43 17 17 29 -14 25 -62z m-487 46 c13 -16 12 -17 -3 -4 -10 7 -18 15 -18
17 0 8 8 3 21 -13z m1583 11 c18 -7 12 -24 -10 -24 -8 0 -14 7 -14 15 0 17 2
18 24 9z m877 -66 c-43 -66 -123 -158 -136 -158 -4 0 14 24 41 53 27 28 67 80
89 114 21 35 41 61 43 58 3 -2 -14 -33 -37 -67z m-1925 -11 c21 -4 21 -4 -3
-3 -24 1 -28 6 -30 34 -3 30 -3 31 3 3 4 -22 12 -31 30 -34z m1137 56 c-7 -2
-19 -2 -25 0 -7 3 -2 5 12 5 14 0 19 -2 13 -5z m-1780 -30 c18 -11 3 -21 -40
-27 -64 -8 -141 -54 -191 -113 -22 -26 -55 -57 -73 -67 l-33 -19 21 29 c40 54
178 183 213 198 31 14 79 13 103 -1z m138 0 c13 -16 12 -17 -3 -4 -10 7 -18
15 -18 17 0 8 8 3 21 -13z m373 -6 c-10 -13 -28 -31 -40 -40 -22 -17 -23 -16
-22 13 1 28 18 56 18 31 0 -17 27 -13 34 4 3 8 10 15 16 15 6 0 3 -10 -6 -23z
m2250 -11 c-3 -8 -27 -16 -57 -19 -29 -3 -61 -8 -72 -12 -16 -6 -17 -5 -5 4 8
6 34 13 58 17 23 3 45 10 48 15 9 15 34 10 28 -5z m-2693 -13 c12 -15 12 -16
-4 -10 -10 4 -23 7 -28 7 -6 0 -7 5 -4 10 9 15 21 12 36 -7z m2769 -14 c0 -3
-13 -4 -30 -1 -31 4 -40 17 -17 25 12 4 47 -13 47 -24z m-1742 14 c-75 -2
-201 -2 -280 0 -79 1 -17 3 137 3 154 0 218 -2 143 -3z m279 1 c-3 -3 -12 -4
-19 -1 -8 3 -5 6 6 6 11 1 17 -2 13 -5z m56 -1 c-7 -2 -19 -2 -25 0 -7 3 -2 5
12 5 14 0 19 -2 13 -5z m264 1 c-3 -3 -12 -4 -19 -1 -8 3 -5 6 6 6 11 1 17 -2
13 -5z m196 -1 c-13 -2 -35 -2 -50 0 -16 2 -5 4 22 4 28 0 40 -2 28 -4z
m-1712 -20 c13 -16 12 -17 -3 -4 -17 13 -22 21 -14 21 2 0 10 -8 17 -17z m-61
-42 c0 -31 -53 -70 -109 -81 -65 -12 -231 -13 -231 -1 0 20 116 55 190 56 97
3 134 17 124 47 -6 20 -5 21 10 9 9 -7 16 -21 16 -30z m2010 29 c10 -7 -101
-10 -337 -10 -200 1 -355 5 -358 10 -8 13 676 13 695 0z m801 -36 c8 -10 -4
-5 -28 11 -24 15 -43 29 -43 32 0 8 57 -27 71 -43z m-1751 5 c0 -8 11 -9 32
-5 17 3 29 3 25 0 -4 -4 1 -13 11 -20 15 -12 14 -14 -15 -15 -18 0 -44 -1 -57
-2 -27 -1 -106 22 -121 35 -6 6 -3 7 8 3 10 -4 17 -2 17 4 0 7 20 11 50 11 30
0 50 -4 50 -11z m500 -5 c0 -7 -40 -44 -48 -44 -18 0 -34 37 -19 43 10 5 67 5
67 1z m-1340 -102 c0 -7 -74 55 -95 79 -11 13 6 1 38 -26 31 -27 57 -51 57
-53z m2315 53 c30 -18 35 -24 20 -25 -11 0 -33 11 -50 25 -39 32 -21 32 30 0z
m-1328 9 c-3 -3 -12 -4 -19 -1 -8 3 -5 6 6 6 11 1 17 -2 13 -5z m-598 -38 c-3
-3 -11 5 -18 17 -13 21 -12 21 5 5 10 -10 16 -20 13 -22z m2091 -6 c0 -5 -9
-10 -20 -10 -11 0 -20 5 -20 10 0 6 9 10 20 10 11 0 20 -4 20 -10z m67 4 c-3
-3 -12 -4 -19 -1 -8 3 -5 6 6 6 11 1 17 -2 13 -5z m-2118 -116 c1 -10 -3 -18
-8 -18 -11 0 -18 19 -26 75 l-5 40 19 -40 c11 -22 20 -48 20 -57z m-344 36
c25 -22 26 -24 5 -12 -55 32 -70 43 -70 51 0 11 29 -6 65 -39z m1306 -24 c-24
-54 -32 -60 -18 -14 9 32 23 53 34 54 1 0 -6 -18 -16 -40z m95 -29 c-9 -16
-31 -41 -48 -54 -53 -39 -66 -42 -30 -7 18 17 45 51 59 73 29 46 44 36 19 -12z
m-1321 -1 c3 -5 1 -10 -4 -10 -6 0 -11 5 -11 10 0 6 2 10 4 10 3 0 8 -4 11
-10z m295 -10 c6 -11 8 -20 6 -20 -3 0 -10 9 -16 20 -6 11 -8 20 -6 20 3 0 10
-9 16 -20z m-244 -15 c10 -8 14 -15 8 -15 -5 0 -19 7 -30 15 -10 8 -14 15 -8
15 5 0 19 -7 30 -15z m178 -56 c-5 -8 32 -19 69 -19 15 0 27 -4 27 -10 0 -5 8
-10 18 -10 18 0 65 -29 47 -30 -9 0 -157 49 -218 72 -17 7 -24 14 -17 18 13 8
80 -11 74 -21z m-279 -9 c6 0 -7 -7 -27 -14 -54 -20 -81 -39 -124 -91 -27 -33
-38 -56 -38 -82 -1 -27 -11 -46 -48 -86 -27 -29 -48 -47 -48 -42 0 6 4 15 8
20 5 6 22 40 37 78 15 37 32 67 38 67 5 0 7 7 3 15 -3 8 -2 15 3 15 5 0 16 15
25 34 9 19 31 47 50 63 33 29 42 31 121 23z m1793 -7 c-10 -2 -26 -2 -35 0
-10 3 -2 5 17 5 19 0 27 -2 18 -5z m97 -24 c17 -10 40 -24 51 -30 12 -6 27
-22 33 -36 10 -21 5 -19 -34 15 -26 23 -65 47 -88 56 -32 11 -36 14 -17 14 14
1 39 -8 55 -19z m-1747 -9 c-9 -29 -78 -101 -108 -114 -61 -26 -175 -66 -188
-66 -18 0 -14 14 9 30 12 8 27 20 33 25 24 22 65 44 140 75 43 18 80 39 83 46
6 16 36 19 31 4z m1552 -23 c1 -17 32 -52 59 -67 19 -10 21 -14 10 -21 -21
-13 -29 -11 -23 6 4 11 2 13 -8 10 -10 -4 -21 5 -32 29 -9 19 -29 44 -44 55
l-27 21 33 -11 c17 -6 32 -16 32 -22z m-1163 -13 c-3 -3 -12 -4 -19 -1 -8 3
-5 6 6 6 11 1 17 -2 13 -5z m792 2 c-2 -2 -17 -6 -34 -10 -22 -5 -26 -4 -15 4
14 9 59 15 49 6z m-666 -33 c-7 -2 -19 -2 -25 0 -7 3 -2 5 12 5 14 0 19 -2 13
-5z m504 -9 c-3 -3 -12 -4 -19 -1 -8 3 -5 6 6 6 11 1 17 -2 13 -5z m-50 -10
c-3 -3 -12 -4 -19 -1 -8 3 -5 6 6 6 11 1 17 -2 13 -5z m-327 -14 c18 -12 2
-12 -25 0 -13 6 -15 9 -5 9 8 0 22 -4 30 -9z m1065 -20 c3 -11 14 -20 23 -20
12 0 13 -3 5 -11 -8 -8 -21 -6 -47 6 -29 14 -34 20 -25 31 16 20 37 17 44 -6z
m-955 -10 c18 -12 2 -12 -25 0 -13 6 -15 9 -5 9 8 0 22 -4 30 -9z m85 -20 c3
-5 1 -10 -4 -10 -6 0 -11 5 -11 10 0 6 2 10 4 10 3 0 8 -4 11 -10z m-215 -25
c0 -6 -73 -25 -78 -20 -2 2 11 8 29 14 41 11 49 12 49 6z m-96 -20 c-4 -8 -10
-12 -15 -9 -11 6 -2 24 11 24 5 0 7 -7 4 -15z m1405 -48 c-2 -3 -15 10 -28 27
l-24 31 28 -27 c16 -15 27 -29 24 -31z m-1449 33 c-20 -13 -43 -13 -35 0 3 6
16 10 28 10 18 0 19 -2 7 -10z m-123 -36 c-3 -3 -12 -4 -19 -1 -8 3 -5 6 6 6
11 1 17 -2 13 -5z m-52 -13 c-6 -5 -55 -24 -110 -41 -125 -41 -151 -53 -197
-98 -34 -33 -38 -34 -38 -15 0 12 5 25 10 28 6 3 10 15 10 27 0 15 5 19 20 15
21 -6 28 9 8 16 -7 2 5 7 27 11 22 4 76 18 120 31 110 32 166 42 150 26z m929
-32 c23 -10 34 -19 26 -19 -8 0 -37 11 -65 25 -56 28 -25 23 39 -6z m87 -34
c34 -16 34 -16 4 -10 -16 4 -34 11 -39 16 -14 13 -3 11 35 -6z m79 -25 c27 0
138 -49 113 -50 -12 0 -37 6 -55 14 -18 8 -48 20 -65 26 -18 7 -33 17 -33 23
0 7 4 7 12 -1 7 -7 19 -12 28 -12z"/>
<path d="M3075 3040 c3 -5 10 -10 16 -10 5 0 9 5 9 10 0 6 -7 10 -16 10 -8 0
-12 -4 -9 -10z"/>
<path d="M3573 2563 c-7 -3 -13 -14 -13 -26 0 -20 1 -20 16 -5 18 18 16 37 -3
31z"/>
<path d="M3605 2530 c3 -5 8 -10 11 -10 2 0 4 5 4 10 0 6 -5 10 -11 10 -5 0
-7 -4 -4 -10z"/>
<path d="M4107 1773 c-4 -3 -7 -11 -7 -17 0 -6 5 -5 12 2 6 6 9 14 7 17 -3 3
-9 2 -12 -2z"/>
</g>
</svg>
